<?xml version="1.0" encoding="UTF-8"?>
<svg id="Layer_2" data-name="Layer 2" xmlns="http://www.w3.org/2000/svg" viewBox="0 0 316 142.2">
  <g id="Layer_1-2" data-name="Layer 1">
    <g>
      <path d="M0,140L54,0h30.2l54.8,140h-32.4l-10-26.2v.4h-55v-.4l-9.6,26.2H0ZM50,88.8h37.8l-18.6-56-19.2,56Z"/>
      <path d="M316,37.4v102.6h-29.8v-15c-7.4,10.6-17,17.2-32.2,17.2-31.2,0-50-24-50-54s17.4-53,49.4-53c13.8,0,25.8,6.8,32.8,16.2v-14h29.8ZM260.2,118c14.6,0,26.8-9.6,26.8-28s-11.4-30.6-27.6-30.6-25.6,13.2-25.6,29c0,16.6,9.8,29.6,26.4,29.6Z"/>
    </g>
  </g>
</svg>