<?xml version="1.0" encoding="UTF-8"?>
<svg id="Layer_2" data-name="Layer 2" xmlns="http://www.w3.org/2000/svg" viewBox="0 0 337.11 337.09">
  <defs>
    <style>
      .cls-1 {
        fill: #0d0c1d;
      }
    </style>
  </defs>
  <g id="Layer_1-2" data-name="Layer 1">
    <g>
      <path class="cls-1" d="M11.82,188.77c.03,3.26-2.59,5.93-5.85,5.97-3.26.03-5.93-2.59-5.97-5.85-.03-3.26,2.59-5.93,5.85-5.97,3.26-.03,5.93,2.58,5.97,5.84h0Z"/>
      <path class="cls-1" d="M8.12,209.09c0,1.22-.99,2.21-2.21,2.21-1.22,0-2.21-.99-2.21-2.21s.99-2.21,2.21-2.21c1.22,0,2.21.99,2.21,2.21h0Z"/>
      <path class="cls-1" d="M32.31,107.49c0,3.36-2.73,6.08-6.09,6.08-3.36,0-6.08-2.73-6.08-6.09,0-3.36,2.73-6.08,6.09-6.08,3.36,0,6.08,2.72,6.08,6.08h0Z"/>
      <path class="cls-1" d="M32.31,127.81c0,3.36-2.73,6.08-6.09,6.08-3.36,0-6.08-2.73-6.08-6.09,0-3.36,2.73-6.08,6.09-6.08,3.36,0,6.08,2.72,6.08,6.08h0Z"/>
      <path class="cls-1" d="M29.11,168.45c0,1.59-1.29,2.88-2.88,2.88s-2.88-1.29-2.88-2.88,1.29-2.88,2.88-2.88c1.59,0,2.88,1.29,2.88,2.88h0Z"/>
      <path class="cls-1" d="M32.31,188.77c0,3.36-2.73,6.08-6.09,6.08-3.36,0-6.08-2.73-6.08-6.09,0-3.36,2.73-6.08,6.09-6.08,3.36,0,6.08,2.72,6.08,6.08h0Z"/>
      <path class="cls-1" d="M32.31,209.09c0,3.36-2.73,6.08-6.09,6.08-3.36,0-6.08-2.73-6.08-6.09,0-3.36,2.73-6.08,6.09-6.08,3.36,0,6.08,2.72,6.08,6.08h0Z"/>
      <path class="cls-1" d="M32.31,229.41c0,3.36-2.73,6.08-6.09,6.08-3.36,0-6.08-2.73-6.08-6.09,0-3.36,2.73-6.08,6.09-6.08,3.36,0,6.08,2.72,6.08,6.08h0Z"/>
      <path class="cls-1" d="M52.63,87.17c0,3.36-2.73,6.08-6.09,6.08-3.36,0-6.08-2.73-6.08-6.09,0-3.36,2.73-6.08,6.09-6.08,3.36,0,6.08,2.72,6.08,6.08h0Z"/>
      <path class="cls-1" d="M52.63,107.49c0,3.36-2.73,6.08-6.09,6.08-3.36,0-6.08-2.73-6.08-6.09,0-3.36,2.73-6.08,6.09-6.08,3.36,0,6.08,2.72,6.08,6.08h0Z"/>
      <path class="cls-1" d="M50.15,127.81c0,1.99-1.61,3.6-3.6,3.6-1.99,0-3.6-1.61-3.6-3.6,0-1.99,1.61-3.6,3.6-3.6,1.99,0,3.6,1.61,3.6,3.6h0Z"/>
      <path class="cls-1" d="M52.63,270.05c0,3.36-2.73,6.08-6.09,6.08-3.36,0-6.08-2.73-6.08-6.09,0-3.36,2.73-6.08,6.09-6.08,3.36,0,6.08,2.72,6.08,6.08h0Z"/>
      <path class="cls-1" d="M52.31,290.37c0,3.18-2.58,5.76-5.76,5.76s-5.76-2.58-5.76-5.76,2.58-5.76,5.76-5.76c3.18,0,5.76,2.58,5.76,5.76h0Z"/>
      <path class="cls-1" d="M71.54,87.17c0,2.58-2.09,4.67-4.67,4.67-2.58,0-4.67-2.09-4.67-4.67s2.09-4.67,4.67-4.67c2.58,0,4.66,2.09,4.67,4.67h0Z"/>
      <path class="cls-1" d="M67.09,127.81c0,.12-.1.22-.22.22-.12,0-.22-.1-.22-.22s.1-.22.22-.22c.12,0,.22.1.22.22h0Z"/>
      <path class="cls-1" d="M72.95,148.13c0,3.36-2.73,6.08-6.09,6.08-3.36,0-6.08-2.73-6.08-6.09,0-3.36,2.73-6.08,6.09-6.08,3.36,0,6.08,2.72,6.08,6.08h0Z"/>
      <path class="cls-1" d="M72.95,168.45c0,3.36-2.73,6.08-6.09,6.08-3.36,0-6.08-2.73-6.08-6.09,0-3.36,2.73-6.08,6.09-6.08,3.36,0,6.08,2.72,6.08,6.08h0Z"/>
      <path class="cls-1" d="M72.95,188.77c0,3.36-2.73,6.08-6.09,6.08-3.36,0-6.08-2.73-6.08-6.09,0-3.36,2.73-6.08,6.09-6.08,3.36,0,6.08,2.72,6.08,6.08h0Z"/>
      <path class="cls-1" d="M72.95,209.09c0,3.36-2.73,6.08-6.09,6.08-3.36,0-6.08-2.73-6.08-6.09,0-3.36,2.73-6.08,6.09-6.08,3.36,0,6.08,2.72,6.08,6.08h0Z"/>
      <path class="cls-1" d="M71.46,229.41c0,2.54-2.06,4.59-4.6,4.59-2.54,0-4.59-2.06-4.59-4.6,0-2.54,2.06-4.59,4.6-4.59,2.53,0,4.59,2.06,4.59,4.59h0Z"/>
      <path class="cls-1" d="M71.81,270.05c0,2.73-2.21,4.94-4.94,4.94-2.73,0-4.94-2.21-4.94-4.94,0-2.73,2.21-4.94,4.94-4.94,2.73,0,4.94,2.21,4.94,4.94h0Z"/>
      <path class="cls-1" d="M72.95,290.37c0,3.36-2.73,6.08-6.09,6.08-3.36,0-6.08-2.73-6.08-6.09,0-3.36,2.73-6.08,6.09-6.08,3.36,0,6.08,2.72,6.08,6.08h0Z"/>
      <path class="cls-1" d="M72.95,310.69c0,3.36-2.73,6.08-6.09,6.08-3.36,0-6.08-2.73-6.08-6.09,0-3.36,2.73-6.08,6.09-6.08,3.36,0,6.08,2.72,6.08,6.08h0Z"/>
      <path class="cls-1" d="M93.27,46.53c0,3.36-2.73,6.08-6.09,6.08-3.36,0-6.08-2.73-6.08-6.09,0-3.36,2.73-6.08,6.09-6.08,3.36,0,6.08,2.72,6.08,6.08h0Z"/>
      <path class="cls-1" d="M92,66.85c0,2.66-2.16,4.82-4.82,4.81-2.66,0-4.82-2.16-4.81-4.82s2.16-4.82,4.82-4.81c2.66,0,4.81,2.16,4.81,4.81h0Z"/>
      <path class="cls-1" d="M93.27,107.49c0,3.36-2.73,6.08-6.09,6.08-3.36,0-6.08-2.73-6.08-6.09,0-3.36,2.73-6.08,6.09-6.08,3.36,0,6.08,2.72,6.08,6.08h0Z"/>
      <path class="cls-1" d="M93.27,127.81c0,3.36-2.73,6.08-6.09,6.08-3.36,0-6.08-2.73-6.08-6.09,0-3.36,2.73-6.08,6.09-6.08,3.36,0,6.08,2.72,6.08,6.08h0Z"/>
      <path class="cls-1" d="M93.27,148.13c0,3.36-2.73,6.08-6.09,6.08-3.36,0-6.08-2.73-6.08-6.09,0-3.36,2.73-6.08,6.09-6.08,3.36,0,6.08,2.72,6.08,6.08h0Z"/>
      <path class="cls-1" d="M93.27,168.45c0,3.36-2.73,6.08-6.09,6.08-3.36,0-6.08-2.73-6.08-6.09,0-3.36,2.73-6.08,6.09-6.08,3.36,0,6.08,2.72,6.08,6.08h0Z"/>
      <path class="cls-1" d="M93.27,188.77c0,3.36-2.73,6.08-6.09,6.08-3.36,0-6.08-2.73-6.08-6.09,0-3.36,2.73-6.08,6.09-6.08,3.36,0,6.08,2.72,6.08,6.08h0Z"/>
      <path class="cls-1" d="M93.27,209.09c0,3.36-2.73,6.08-6.09,6.08-3.36,0-6.08-2.73-6.08-6.09,0-3.36,2.73-6.08,6.09-6.08,3.36,0,6.08,2.72,6.08,6.08h0Z"/>
      <path class="cls-1" d="M93.27,229.41c0,3.36-2.73,6.08-6.09,6.08-3.36,0-6.08-2.73-6.08-6.09,0-3.36,2.73-6.08,6.09-6.08,3.36,0,6.08,2.72,6.08,6.08h0Z"/>
      <path class="cls-1" d="M93.27,249.73c0,3.36-2.73,6.08-6.09,6.08-3.36,0-6.08-2.73-6.08-6.09,0-3.36,2.73-6.08,6.09-6.08,3.36,0,6.08,2.72,6.08,6.08h0Z"/>
      <path class="cls-1" d="M87.41,290.37c0,.12-.1.22-.22.22-.12,0-.22-.1-.22-.22,0-.12.1-.22.22-.22.12,0,.22.1.22.22h0Z"/>
      <path class="cls-1" d="M93.27,310.69c0,3.36-2.73,6.08-6.09,6.08-3.36,0-6.08-2.73-6.08-6.09,0-3.36,2.73-6.08,6.09-6.08,3.36,0,6.08,2.72,6.08,6.08h0Z"/>
      <path class="cls-1" d="M113.59,26.21c0,3.36-2.73,6.08-6.09,6.08-3.36,0-6.08-2.73-6.08-6.09,0-3.36,2.73-6.08,6.09-6.08,3.36,0,6.08,2.72,6.08,6.08h0Z"/>
      <path class="cls-1" d="M113.59,46.53c0,3.36-2.73,6.08-6.09,6.08-3.36,0-6.08-2.73-6.08-6.09,0-3.36,2.73-6.08,6.09-6.08,3.36,0,6.08,2.72,6.08,6.08h0Z"/>
      <path class="cls-1" d="M113.59,87.17c0,3.36-2.73,6.08-6.09,6.08-3.36,0-6.08-2.73-6.08-6.09,0-3.36,2.73-6.08,6.09-6.08,3.36,0,6.08,2.72,6.08,6.08h0Z"/>
      <path class="cls-1" d="M113.59,107.49c0,3.36-2.73,6.08-6.09,6.08-3.36,0-6.08-2.73-6.08-6.09,0-3.36,2.73-6.08,6.09-6.08,3.36,0,6.08,2.72,6.08,6.08h0Z"/>
      <path class="cls-1" d="M113.59,127.81c0,3.36-2.73,6.08-6.09,6.08-3.36,0-6.08-2.73-6.08-6.09,0-3.36,2.73-6.08,6.09-6.08,3.36,0,6.08,2.72,6.08,6.08h0Z"/>
      <path class="cls-1" d="M113.59,148.13c0,3.36-2.73,6.08-6.09,6.08-3.36,0-6.08-2.73-6.08-6.09,0-3.36,2.73-6.08,6.09-6.08,3.36,0,6.08,2.72,6.08,6.08h0Z"/>
      <path class="cls-1" d="M113.59,168.45c0,3.36-2.73,6.08-6.09,6.08-3.36,0-6.08-2.73-6.08-6.09,0-3.36,2.73-6.08,6.09-6.08,3.36,0,6.08,2.72,6.08,6.08h0Z"/>
      <path class="cls-1" d="M113.59,188.77c0,3.36-2.73,6.08-6.09,6.08-3.36,0-6.08-2.73-6.08-6.09,0-3.36,2.73-6.08,6.09-6.08,3.36,0,6.08,2.72,6.08,6.08h0Z"/>
      <path class="cls-1" d="M113.59,209.09c0,3.36-2.73,6.08-6.09,6.08-3.36,0-6.08-2.73-6.08-6.09,0-3.36,2.73-6.08,6.09-6.08,3.36,0,6.08,2.72,6.08,6.08h0Z"/>
      <path class="cls-1" d="M113.59,229.41c0,3.36-2.73,6.08-6.09,6.08-3.36,0-6.08-2.73-6.08-6.09,0-3.36,2.73-6.08,6.09-6.08,3.36,0,6.08,2.72,6.08,6.08h0Z"/>
      <path class="cls-1" d="M113.59,249.73c0,3.36-2.73,6.08-6.09,6.08-3.36,0-6.08-2.73-6.08-6.09,0-3.36,2.73-6.08,6.09-6.08,3.36,0,6.08,2.72,6.08,6.08h0Z"/>
      <path class="cls-1" d="M113.59,270.05c0,3.36-2.73,6.08-6.09,6.08-3.36,0-6.08-2.73-6.08-6.09,0-3.36,2.73-6.08,6.09-6.08,3.36,0,6.08,2.72,6.08,6.08h0Z"/>
      <path class="cls-1" d="M133.91,26.21c0,3.36-2.73,6.08-6.09,6.08-3.36,0-6.08-2.73-6.08-6.09,0-3.36,2.73-6.08,6.09-6.08,3.36,0,6.08,2.72,6.08,6.08h0Z"/>
      <path class="cls-1" d="M131.5,46.53c0,2.03-1.65,3.67-3.68,3.67-2.03,0-3.67-1.65-3.67-3.68,0-2.03,1.65-3.67,3.68-3.67,2.03,0,3.67,1.64,3.67,3.67h0Z"/>
      <path class="cls-1" d="M128.05,66.85c0,.12-.1.22-.22.22-.12,0-.22-.1-.22-.22s.1-.22.22-.22c.12,0,.22.1.22.22h0Z"/>
      <path class="cls-1" d="M133.91,87.17c0,3.36-2.73,6.08-6.09,6.08-3.36,0-6.08-2.73-6.08-6.09,0-3.36,2.73-6.08,6.09-6.08,3.36,0,6.08,2.72,6.08,6.08h0Z"/>
      <path class="cls-1" d="M133.91,107.49c0,3.36-2.73,6.08-6.09,6.08-3.36,0-6.08-2.73-6.08-6.09,0-3.36,2.73-6.08,6.09-6.08,3.36,0,6.08,2.72,6.08,6.08h0Z"/>
      <path class="cls-1" d="M133.91,127.81c0,3.36-2.73,6.08-6.09,6.08-3.36,0-6.08-2.73-6.08-6.09,0-3.36,2.73-6.08,6.09-6.08,3.36,0,6.08,2.72,6.08,6.08h0Z"/>
      <path class="cls-1" d="M133.91,148.13c0,3.36-2.73,6.08-6.09,6.08-3.36,0-6.08-2.73-6.08-6.09,0-3.36,2.73-6.08,6.09-6.08,3.36,0,6.08,2.72,6.08,6.08h0Z"/>
      <path class="cls-1" d="M133.91,168.45c0,3.36-2.73,6.08-6.09,6.08-3.36,0-6.08-2.73-6.08-6.09,0-3.36,2.73-6.08,6.09-6.08,3.36,0,6.08,2.72,6.08,6.08h0Z"/>
      <path class="cls-1" d="M133.91,188.77c0,3.36-2.73,6.08-6.09,6.08-3.36,0-6.08-2.73-6.08-6.09,0-3.36,2.73-6.08,6.09-6.08,3.36,0,6.08,2.72,6.08,6.08h0Z"/>
      <path class="cls-1" d="M133.91,209.09c0,3.36-2.73,6.08-6.09,6.08-3.36,0-6.08-2.73-6.08-6.09,0-3.36,2.73-6.08,6.09-6.08,3.36,0,6.08,2.72,6.08,6.08h0Z"/>
      <path class="cls-1" d="M133.91,229.41c0,3.36-2.73,6.08-6.09,6.08-3.36,0-6.08-2.73-6.08-6.09,0-3.36,2.73-6.08,6.09-6.08,3.36,0,6.08,2.72,6.08,6.08h0Z"/>
      <path class="cls-1" d="M133.91,249.73c0,3.36-2.73,6.08-6.09,6.08-3.36,0-6.08-2.73-6.08-6.09,0-3.36,2.73-6.08,6.09-6.08,3.36,0,6.08,2.72,6.08,6.08h0Z"/>
      <path class="cls-1" d="M133.91,270.05c0,3.36-2.73,6.08-6.09,6.08-3.36,0-6.08-2.73-6.08-6.09,0-3.36,2.73-6.08,6.09-6.08,3.36,0,6.08,2.72,6.08,6.08h0Z"/>
      <path class="cls-1" d="M133.91,290.37c0,3.36-2.73,6.08-6.09,6.08-3.36,0-6.08-2.73-6.08-6.09,0-3.36,2.73-6.08,6.09-6.08,3.36,0,6.08,2.72,6.08,6.08h0Z"/>
      <path class="cls-1" d="M133.91,331.01c0,3.36-2.73,6.08-6.09,6.08-3.36,0-6.08-2.73-6.08-6.09,0-3.36,2.73-6.08,6.09-6.08,3.36,0,6.08,2.72,6.08,6.08h0Z"/>
      <path class="cls-1" d="M154.23,66.85c0,3.36-2.73,6.08-6.09,6.08-3.36,0-6.08-2.73-6.08-6.09,0-3.36,2.73-6.08,6.09-6.08,3.36,0,6.08,2.72,6.08,6.08h0Z"/>
      <path class="cls-1" d="M154.23,87.17c0,3.36-2.73,6.08-6.09,6.08-3.36,0-6.08-2.73-6.08-6.09,0-3.36,2.73-6.08,6.09-6.08,3.36,0,6.08,2.72,6.08,6.08h0Z"/>
      <path class="cls-1" d="M154.23,107.49c0,3.36-2.73,6.08-6.09,6.08-3.36,0-6.08-2.73-6.08-6.09,0-3.36,2.73-6.08,6.09-6.08,3.36,0,6.08,2.72,6.08,6.08h0Z"/>
      <path class="cls-1" d="M154.23,127.81c0,3.36-2.73,6.08-6.09,6.08-3.36,0-6.08-2.73-6.08-6.09,0-3.36,2.73-6.08,6.09-6.08,3.36,0,6.08,2.72,6.08,6.08h0Z"/>
      <path class="cls-1" d="M154.23,148.13c0,3.36-2.73,6.08-6.09,6.08-3.36,0-6.08-2.73-6.08-6.09,0-3.36,2.73-6.08,6.09-6.08,3.36,0,6.08,2.72,6.08,6.08h0Z"/>
      <path class="cls-1" d="M154.23,168.45c0,3.36-2.73,6.08-6.09,6.08-3.36,0-6.08-2.73-6.08-6.09,0-3.36,2.73-6.08,6.09-6.08,3.36,0,6.08,2.72,6.08,6.08h0Z"/>
      <path class="cls-1" d="M154.23,188.77c0,3.36-2.73,6.08-6.09,6.08-3.36,0-6.08-2.73-6.08-6.09,0-3.36,2.73-6.08,6.09-6.08,3.36,0,6.08,2.72,6.08,6.08h0Z"/>
      <path class="cls-1" d="M154.23,209.09c0,3.36-2.73,6.08-6.09,6.08-3.36,0-6.08-2.73-6.08-6.09,0-3.36,2.73-6.08,6.09-6.08,3.36,0,6.08,2.72,6.08,6.08h0Z"/>
      <path class="cls-1" d="M154.23,229.41c0,3.36-2.73,6.08-6.09,6.08-3.36,0-6.08-2.73-6.08-6.09,0-3.36,2.73-6.08,6.09-6.08,3.36,0,6.08,2.72,6.08,6.08h0Z"/>
      <path class="cls-1" d="M154.23,249.73c0,3.36-2.73,6.08-6.09,6.08-3.36,0-6.08-2.73-6.08-6.09,0-3.36,2.73-6.08,6.09-6.08,3.36,0,6.08,2.72,6.08,6.08h0Z"/>
      <path class="cls-1" d="M154.23,270.05c0,3.36-2.73,6.08-6.09,6.08-3.36,0-6.08-2.73-6.08-6.09,0-3.36,2.73-6.08,6.09-6.08,3.36,0,6.08,2.72,6.08,6.08h0Z"/>
      <path class="cls-1" d="M154.23,290.37c0,3.36-2.73,6.08-6.09,6.08-3.36,0-6.08-2.73-6.08-6.09,0-3.36,2.73-6.08,6.09-6.08,3.36,0,6.08,2.72,6.08,6.08h0Z"/>
      <path class="cls-1" d="M154.23,331.01c0,3.36-2.73,6.08-6.09,6.08-3.36,0-6.08-2.73-6.08-6.09,0-3.36,2.73-6.08,6.09-6.08,3.36,0,6.08,2.72,6.08,6.08h0Z"/>
      <path class="cls-1" d="M171.6,26.21c0,1.73-1.4,3.13-3.13,3.13s-3.13-1.4-3.13-3.13,1.4-3.13,3.13-3.13c1.73,0,3.13,1.4,3.13,3.13h0Z"/>
      <path class="cls-1" d="M174.55,66.85c0,3.36-2.73,6.08-6.09,6.08-3.36,0-6.08-2.73-6.08-6.09,0-3.36,2.73-6.08,6.09-6.08,3.36,0,6.08,2.72,6.08,6.08h0Z"/>
      <path class="cls-1" d="M174.55,87.17c0,3.36-2.73,6.08-6.09,6.08-3.36,0-6.08-2.73-6.08-6.09,0-3.36,2.73-6.08,6.09-6.08,3.36,0,6.08,2.72,6.08,6.08h0Z"/>
      <path class="cls-1" d="M174.55,107.49c0,3.36-2.73,6.08-6.09,6.08-3.36,0-6.08-2.73-6.08-6.09,0-3.36,2.73-6.08,6.09-6.08,3.36,0,6.08,2.72,6.08,6.08h0Z"/>
      <path class="cls-1" d="M174.55,127.81c0,3.36-2.73,6.08-6.09,6.08-3.36,0-6.08-2.73-6.08-6.09,0-3.36,2.73-6.08,6.09-6.08,3.36,0,6.08,2.72,6.08,6.08h0Z"/>
      <path class="cls-1" d="M174.55,148.13c0,3.36-2.73,6.08-6.09,6.08-3.36,0-6.08-2.73-6.08-6.09,0-3.36,2.73-6.08,6.09-6.08,3.36,0,6.08,2.72,6.08,6.08h0Z"/>
      <path class="cls-1" d="M174.55,168.45c0,3.36-2.73,6.08-6.09,6.08-3.36,0-6.08-2.73-6.08-6.09,0-3.36,2.73-6.08,6.09-6.08,3.36,0,6.08,2.72,6.08,6.08h0Z"/>
      <path class="cls-1" d="M174.55,188.77c0,3.36-2.73,6.08-6.09,6.08-3.36,0-6.08-2.73-6.08-6.09,0-3.36,2.73-6.08,6.09-6.08,3.36,0,6.08,2.72,6.08,6.08h0Z"/>
      <path class="cls-1" d="M174.55,209.09c0,3.36-2.73,6.08-6.09,6.08-3.36,0-6.08-2.73-6.08-6.09,0-3.36,2.73-6.08,6.09-6.08,3.36,0,6.08,2.72,6.08,6.08h0Z"/>
      <path class="cls-1" d="M174.55,229.41c0,3.36-2.73,6.08-6.09,6.08-3.36,0-6.08-2.73-6.08-6.09,0-3.36,2.73-6.08,6.09-6.08,3.36,0,6.08,2.72,6.08,6.08h0Z"/>
      <path class="cls-1" d="M174.55,249.73c0,3.36-2.73,6.08-6.09,6.08-3.36,0-6.08-2.73-6.08-6.09,0-3.36,2.73-6.08,6.09-6.08,3.36,0,6.08,2.72,6.08,6.08h0Z"/>
      <path class="cls-1" d="M174.55,270.05c0,3.36-2.73,6.08-6.09,6.08-3.36,0-6.08-2.73-6.08-6.09,0-3.36,2.73-6.08,6.09-6.08,3.36,0,6.08,2.72,6.08,6.08h0Z"/>
      <path class="cls-1" d="M174.55,290.37c0,3.36-2.73,6.08-6.09,6.08-3.36,0-6.08-2.73-6.08-6.09,0-3.36,2.73-6.08,6.09-6.08,3.36,0,6.08,2.72,6.08,6.08h0Z"/>
      <path class="cls-1" d="M174.55,331.01c0,3.36-2.73,6.08-6.09,6.08-3.36,0-6.08-2.73-6.08-6.09,0-3.36,2.73-6.08,6.09-6.08,3.36,0,6.08,2.72,6.08,6.08h0Z"/>
      <path class="cls-1" d="M194.67,5.89c0,3.25-2.64,5.88-5.89,5.88-3.25,0-5.88-2.64-5.88-5.89C182.91,2.63,185.54,0,188.79,0c3.25,0,5.88,2.63,5.88,5.88h0Z"/>
      <path class="cls-1" d="M194.87,26.21c0,3.36-2.73,6.08-6.09,6.08-3.36,0-6.08-2.73-6.08-6.09,0-3.36,2.73-6.08,6.09-6.08,3.36,0,6.08,2.72,6.08,6.08h0Z"/>
      <path class="cls-1" d="M194.87,66.85c0,3.36-2.73,6.08-6.09,6.08-3.36,0-6.08-2.73-6.08-6.09,0-3.36,2.73-6.08,6.09-6.08,3.36,0,6.08,2.72,6.08,6.08h0Z"/>
      <path class="cls-1" d="M194.87,87.17c0,3.36-2.73,6.08-6.09,6.08-3.36,0-6.08-2.73-6.08-6.09,0-3.36,2.73-6.08,6.09-6.08,3.36,0,6.08,2.72,6.08,6.08h0Z"/>
      <path class="cls-1" d="M194.87,107.49c0,3.36-2.73,6.08-6.09,6.08-3.36,0-6.08-2.73-6.08-6.09,0-3.36,2.73-6.08,6.09-6.08,3.36,0,6.08,2.72,6.08,6.08h0Z"/>
      <path class="cls-1" d="M194.87,127.81c0,3.36-2.73,6.08-6.09,6.08-3.36,0-6.08-2.73-6.08-6.09,0-3.36,2.73-6.08,6.09-6.08,3.36,0,6.08,2.72,6.08,6.08h0Z"/>
      <path class="cls-1" d="M194.87,148.13c0,3.36-2.73,6.08-6.09,6.08-3.36,0-6.08-2.73-6.08-6.09,0-3.36,2.73-6.08,6.09-6.08,3.36,0,6.08,2.72,6.08,6.08h0Z"/>
      <path class="cls-1" d="M194.87,168.45c0,3.36-2.73,6.08-6.09,6.08-3.36,0-6.08-2.73-6.08-6.09,0-3.36,2.73-6.08,6.09-6.08,3.36,0,6.08,2.72,6.08,6.08h0Z"/>
      <path class="cls-1" d="M194.87,188.77c0,3.36-2.73,6.08-6.09,6.08-3.36,0-6.08-2.73-6.08-6.09,0-3.36,2.73-6.08,6.09-6.08,3.36,0,6.08,2.72,6.08,6.08h0Z"/>
      <path class="cls-1" d="M194.87,209.09c0,3.36-2.73,6.08-6.09,6.08-3.36,0-6.08-2.73-6.08-6.09,0-3.36,2.73-6.08,6.09-6.08,3.36,0,6.08,2.72,6.08,6.08h0Z"/>
      <path class="cls-1" d="M194.87,229.41c0,3.36-2.73,6.08-6.09,6.08-3.36,0-6.08-2.73-6.08-6.09,0-3.36,2.73-6.08,6.09-6.08,3.36,0,6.08,2.72,6.08,6.08h0Z"/>
      <path class="cls-1" d="M194.87,249.73c0,3.36-2.73,6.08-6.09,6.08-3.36,0-6.08-2.73-6.08-6.09,0-3.36,2.73-6.08,6.09-6.08,3.36,0,6.08,2.72,6.08,6.08h0Z"/>
      <path class="cls-1" d="M194.87,270.05c0,3.36-2.73,6.08-6.09,6.08-3.36,0-6.08-2.73-6.08-6.09,0-3.36,2.73-6.08,6.09-6.08,3.36,0,6.08,2.72,6.08,6.08h0Z"/>
      <path class="cls-1" d="M194.87,290.37c0,3.36-2.73,6.08-6.09,6.08-3.36,0-6.08-2.73-6.08-6.09,0-3.36,2.73-6.08,6.09-6.08,3.36,0,6.08,2.72,6.08,6.08h0Z"/>
      <path class="cls-1" d="M189.14,310.69c0,.19-.16.35-.35.35s-.35-.16-.35-.35c0-.19.16-.35.35-.35.19,0,.35.16.35.35h0Z"/>
      <path class="cls-1" d="M194.87,331.01c0,3.36-2.73,6.08-6.09,6.08-3.36,0-6.08-2.73-6.08-6.09,0-3.36,2.73-6.08,6.09-6.08,3.36,0,6.08,2.72,6.08,6.08h0Z"/>
      <path class="cls-1" d="M211.29,5.89c0,1.21-.98,2.18-2.19,2.18-1.21,0-2.18-.98-2.18-2.19,0-1.21.98-2.18,2.19-2.18,1.21,0,2.18.98,2.18,2.18h0Z"/>
      <path class="cls-1" d="M215.19,26.21c0,3.36-2.73,6.08-6.09,6.08-3.36,0-6.08-2.73-6.08-6.09,0-3.36,2.73-6.08,6.09-6.08,3.36,0,6.08,2.72,6.08,6.08h0Z"/>
      <path class="cls-1" d="M215.19,66.85c0,3.36-2.73,6.08-6.09,6.08-3.36,0-6.08-2.73-6.08-6.09,0-3.36,2.73-6.08,6.09-6.08,3.36,0,6.08,2.72,6.08,6.08h0Z"/>
      <path class="cls-1" d="M215.19,87.17c0,3.36-2.73,6.08-6.09,6.08-3.36,0-6.08-2.73-6.08-6.09,0-3.36,2.73-6.08,6.09-6.08,3.36,0,6.08,2.72,6.08,6.08h0Z"/>
      <path class="cls-1" d="M215.19,107.49c0,3.36-2.73,6.08-6.09,6.08-3.36,0-6.08-2.73-6.08-6.09,0-3.36,2.73-6.08,6.09-6.08,3.36,0,6.08,2.72,6.08,6.08h0Z"/>
      <path class="cls-1" d="M215.19,127.81c0,3.36-2.73,6.08-6.09,6.08-3.36,0-6.08-2.73-6.08-6.09,0-3.36,2.73-6.08,6.09-6.08,3.36,0,6.08,2.72,6.08,6.08h0Z"/>
      <path class="cls-1" d="M215.19,148.13c0,3.36-2.73,6.08-6.09,6.08-3.36,0-6.08-2.73-6.08-6.09,0-3.36,2.73-6.08,6.09-6.08,3.36,0,6.08,2.72,6.08,6.08h0Z"/>
      <path class="cls-1" d="M215.19,168.45c0,3.36-2.73,6.08-6.09,6.08-3.36,0-6.08-2.73-6.08-6.09,0-3.36,2.73-6.08,6.09-6.08,3.36,0,6.08,2.72,6.08,6.08h0Z"/>
      <path class="cls-1" d="M215.19,188.77c0,3.36-2.73,6.08-6.09,6.08-3.36,0-6.08-2.73-6.08-6.09,0-3.36,2.73-6.08,6.09-6.08,3.36,0,6.08,2.72,6.08,6.08h0Z"/>
      <path class="cls-1" d="M215.19,209.09c0,3.36-2.73,6.08-6.09,6.08-3.36,0-6.08-2.73-6.08-6.09,0-3.36,2.73-6.08,6.09-6.08,3.36,0,6.08,2.72,6.08,6.08h0Z"/>
      <path class="cls-1" d="M215.19,229.41c0,3.36-2.73,6.08-6.09,6.08-3.36,0-6.08-2.73-6.08-6.09,0-3.36,2.73-6.08,6.09-6.08,3.36,0,6.08,2.72,6.08,6.08h0Z"/>
      <path class="cls-1" d="M215.19,249.73c0,3.36-2.73,6.08-6.09,6.08-3.36,0-6.08-2.73-6.08-6.09,0-3.36,2.73-6.08,6.09-6.08,3.36,0,6.08,2.72,6.08,6.08h0Z"/>
      <path class="cls-1" d="M215.19,270.05c0,3.36-2.73,6.08-6.09,6.08-3.36,0-6.08-2.73-6.08-6.09,0-3.36,2.73-6.08,6.09-6.08,3.36,0,6.08,2.72,6.08,6.08h0Z"/>
      <path class="cls-1" d="M215.19,290.37c0,3.36-2.73,6.08-6.09,6.08-3.36,0-6.08-2.73-6.08-6.09,0-3.36,2.73-6.08,6.09-6.08,3.36,0,6.08,2.72,6.08,6.08h0Z"/>
      <path class="cls-1" d="M235.51,26.21c0,3.36-2.73,6.08-6.09,6.08-3.36,0-6.08-2.73-6.08-6.09,0-3.36,2.73-6.08,6.09-6.08,3.36,0,6.08,2.72,6.08,6.08h0Z"/>
      <path class="cls-1" d="M234.05,66.85c0,2.55-2.07,4.62-4.62,4.62s-4.62-2.07-4.62-4.62,2.07-4.62,4.62-4.62c2.55,0,4.61,2.07,4.62,4.62h0Z"/>
      <path class="cls-1" d="M235.51,87.17c0,3.36-2.73,6.08-6.09,6.08-3.36,0-6.08-2.73-6.08-6.09,0-3.36,2.73-6.08,6.09-6.08,3.36,0,6.08,2.72,6.08,6.08h0Z"/>
      <path class="cls-1" d="M235.51,107.49c0,3.36-2.73,6.08-6.09,6.08-3.36,0-6.08-2.73-6.08-6.09,0-3.36,2.73-6.08,6.09-6.08,3.36,0,6.08,2.72,6.08,6.08h0Z"/>
      <path class="cls-1" d="M235.51,127.81c0,3.36-2.73,6.08-6.09,6.08-3.36,0-6.08-2.73-6.08-6.09,0-3.36,2.73-6.08,6.09-6.08,3.36,0,6.08,2.72,6.08,6.08h0Z"/>
      <path class="cls-1" d="M235.51,148.13c0,3.36-2.73,6.08-6.09,6.08-3.36,0-6.08-2.73-6.08-6.09,0-3.36,2.73-6.08,6.09-6.08,3.36,0,6.08,2.72,6.08,6.08h0Z"/>
      <path class="cls-1" d="M235.51,168.45c0,3.36-2.73,6.08-6.09,6.08-3.36,0-6.08-2.73-6.08-6.09,0-3.36,2.73-6.08,6.09-6.08,3.36,0,6.08,2.72,6.08,6.08h0Z"/>
      <path class="cls-1" d="M235.51,188.77c0,3.36-2.73,6.08-6.09,6.08-3.36,0-6.08-2.73-6.08-6.09,0-3.36,2.73-6.08,6.09-6.08,3.36,0,6.08,2.72,6.08,6.08h0Z"/>
      <path class="cls-1" d="M235.51,209.09c0,3.36-2.73,6.08-6.09,6.08-3.36,0-6.08-2.73-6.08-6.09,0-3.36,2.73-6.08,6.09-6.08,3.36,0,6.08,2.72,6.08,6.08h0Z"/>
      <path class="cls-1" d="M235.51,229.41c0,3.36-2.73,6.08-6.09,6.08-3.36,0-6.08-2.73-6.08-6.09,0-3.36,2.73-6.08,6.09-6.08,3.36,0,6.08,2.72,6.08,6.08h0Z"/>
      <path class="cls-1" d="M235.51,249.73c0,3.36-2.73,6.08-6.09,6.08-3.36,0-6.08-2.73-6.08-6.09,0-3.36,2.73-6.08,6.09-6.08,3.36,0,6.08,2.72,6.08,6.08h0Z"/>
      <path class="cls-1" d="M235.51,270.05c0,3.36-2.73,6.08-6.09,6.08-3.36,0-6.08-2.73-6.08-6.09,0-3.36,2.73-6.08,6.09-6.08,3.36,0,6.08,2.72,6.08,6.08h0Z"/>
      <path class="cls-1" d="M235.51,290.37c0,3.36-2.73,6.08-6.09,6.08-3.36,0-6.08-2.73-6.08-6.09,0-3.36,2.73-6.08,6.09-6.08,3.36,0,6.08,2.72,6.08,6.08h0Z"/>
      <path class="cls-1" d="M235.51,331.01c0,3.36-2.73,6.08-6.09,6.08-3.36,0-6.08-2.73-6.08-6.09,0-3.36,2.73-6.08,6.09-6.08,3.36,0,6.08,2.72,6.08,6.08h0Z"/>
      <path class="cls-1" d="M255.83,87.17c0,3.36-2.73,6.08-6.09,6.08-3.36,0-6.08-2.73-6.08-6.09,0-3.36,2.73-6.08,6.09-6.08,3.36,0,6.08,2.72,6.08,6.08h0Z"/>
      <path class="cls-1" d="M255.83,107.49c0,3.36-2.73,6.08-6.09,6.08-3.36,0-6.08-2.73-6.08-6.09,0-3.36,2.73-6.08,6.09-6.08,3.36,0,6.08,2.72,6.08,6.08h0Z"/>
      <path class="cls-1" d="M255.83,127.81c0,3.36-2.73,6.08-6.09,6.08-3.36,0-6.08-2.73-6.08-6.09,0-3.36,2.73-6.08,6.09-6.08,3.36,0,6.08,2.72,6.08,6.08h0Z"/>
      <path class="cls-1" d="M255.83,148.13c0,3.36-2.73,6.08-6.09,6.08-3.36,0-6.08-2.73-6.08-6.09,0-3.36,2.73-6.08,6.09-6.08,3.36,0,6.08,2.72,6.08,6.08h0Z"/>
      <path class="cls-1" d="M255.83,168.45c0,3.36-2.73,6.08-6.09,6.08-3.36,0-6.08-2.73-6.08-6.09,0-3.36,2.73-6.08,6.09-6.08,3.36,0,6.08,2.72,6.08,6.08h0Z"/>
      <path class="cls-1" d="M255.83,188.77c0,3.36-2.73,6.08-6.09,6.08-3.36,0-6.08-2.73-6.08-6.09,0-3.36,2.73-6.08,6.09-6.08,3.36,0,6.08,2.72,6.08,6.08h0Z"/>
      <path class="cls-1" d="M255.83,209.09c0,3.36-2.73,6.08-6.09,6.08-3.36,0-6.08-2.73-6.08-6.09,0-3.36,2.73-6.08,6.09-6.08,3.36,0,6.08,2.72,6.08,6.08h0Z"/>
      <path class="cls-1" d="M255.83,229.41c0,3.36-2.73,6.08-6.09,6.08-3.36,0-6.08-2.73-6.08-6.09,0-3.36,2.73-6.08,6.09-6.08,3.36,0,6.08,2.72,6.08,6.08h0Z"/>
      <path class="cls-1" d="M255.83,249.73c0,3.36-2.73,6.08-6.09,6.08-3.36,0-6.08-2.73-6.08-6.09,0-3.36,2.73-6.08,6.09-6.08,3.36,0,6.08,2.72,6.08,6.08h0Z"/>
      <path class="cls-1" d="M255.83,270.05c0,3.36-2.73,6.08-6.09,6.08-3.36,0-6.08-2.73-6.08-6.09,0-3.36,2.73-6.08,6.09-6.08,3.36,0,6.08,2.72,6.08,6.08h0Z"/>
      <path class="cls-1" d="M250.59,290.37c0,.47-.38.84-.84.84-.47,0-.84-.38-.84-.84,0-.47.38-.84.84-.84.47,0,.84.38.84.84h0Z"/>
      <path class="cls-1" d="M249.92,310.69c0,.1-.08.17-.17.17-.1,0-.17-.08-.17-.17,0-.1.08-.17.17-.17s.17.08.17.17h0Z"/>
      <path class="cls-1" d="M255.83,331.01c0,3.36-2.73,6.08-6.09,6.08-3.36,0-6.08-2.73-6.08-6.09,0-3.36,2.73-6.08,6.09-6.08,3.36,0,6.08,2.72,6.08,6.08h0Z"/>
      <path class="cls-1" d="M276.15,46.53c0,3.36-2.73,6.08-6.09,6.08-3.36,0-6.08-2.73-6.08-6.09,0-3.36,2.73-6.08,6.09-6.08,3.36,0,6.08,2.72,6.08,6.08h0Z"/>
      <path class="cls-1" d="M274.98,66.85c0,2.71-2.2,4.91-4.92,4.91-2.71,0-4.91-2.2-4.91-4.92s2.2-4.91,4.92-4.91c2.71,0,4.91,2.2,4.91,4.91h0Z"/>
      <path class="cls-1" d="M276.15,107.49c0,3.36-2.73,6.08-6.09,6.08-3.36,0-6.08-2.73-6.08-6.09,0-3.36,2.73-6.08,6.09-6.08,3.36,0,6.08,2.72,6.08,6.08h0Z"/>
      <path class="cls-1" d="M276.15,127.81c0,3.36-2.73,6.08-6.09,6.08-3.36,0-6.08-2.73-6.08-6.09,0-3.36,2.73-6.08,6.09-6.08,3.36,0,6.08,2.72,6.08,6.08h0Z"/>
      <path class="cls-1" d="M276.15,148.13c0,3.36-2.73,6.08-6.09,6.08-3.36,0-6.08-2.73-6.08-6.09,0-3.36,2.73-6.08,6.09-6.08,3.36,0,6.08,2.72,6.08,6.08h0Z"/>
      <path class="cls-1" d="M276.15,168.45c0,3.36-2.73,6.08-6.09,6.08-3.36,0-6.08-2.73-6.08-6.09,0-3.36,2.73-6.08,6.09-6.08,3.36,0,6.08,2.72,6.08,6.08h0Z"/>
      <path class="cls-1" d="M276.15,188.77c0,3.36-2.73,6.08-6.09,6.08-3.36,0-6.08-2.73-6.08-6.09,0-3.36,2.73-6.08,6.09-6.08,3.36,0,6.08,2.72,6.08,6.08h0Z"/>
      <path class="cls-1" d="M276.15,209.09c0,3.36-2.73,6.08-6.09,6.08-3.36,0-6.08-2.73-6.08-6.09,0-3.36,2.73-6.08,6.09-6.08,3.36,0,6.08,2.72,6.08,6.08h0Z"/>
      <path class="cls-1" d="M276.15,229.41c0,3.36-2.73,6.08-6.09,6.08-3.36,0-6.08-2.73-6.08-6.09,0-3.36,2.73-6.08,6.09-6.08,3.36,0,6.08,2.72,6.08,6.08h0Z"/>
      <path class="cls-1" d="M276.15,249.73c0,3.36-2.73,6.08-6.09,6.08-3.36,0-6.08-2.73-6.08-6.09,0-3.36,2.73-6.08,6.09-6.08,3.36,0,6.08,2.72,6.08,6.08h0Z"/>
      <path class="cls-1" d="M272.85,270.05c0,1.54-1.25,2.78-2.78,2.78s-2.78-1.25-2.78-2.78c0-1.54,1.25-2.78,2.78-2.78,1.53,0,2.78,1.24,2.78,2.78h0Z"/>
      <path class="cls-1" d="M276.15,310.69c0,3.36-2.73,6.08-6.09,6.08-3.36,0-6.08-2.73-6.08-6.09,0-3.36,2.73-6.08,6.09-6.08,3.36,0,6.08,2.72,6.08,6.08h0Z"/>
      <path class="cls-1" d="M273.4,331.01c0,1.84-1.49,3.33-3.33,3.33-1.84,0-3.33-1.49-3.33-3.33s1.49-3.33,3.33-3.33c1.84,0,3.32,1.49,3.33,3.33h0Z"/>
      <path class="cls-1" d="M296.15,46.53c0,3.18-2.58,5.76-5.76,5.76s-5.76-2.58-5.76-5.76,2.58-5.76,5.76-5.76c3.18,0,5.76,2.58,5.76,5.76h0Z"/>
      <path class="cls-1" d="M296.47,66.85c0,3.36-2.73,6.08-6.09,6.08-3.36,0-6.08-2.73-6.08-6.09,0-3.36,2.73-6.08,6.09-6.08,3.36,0,6.08,2.72,6.08,6.08h0Z"/>
      <path class="cls-1" d="M290.61,87.17c0,.12-.1.22-.22.22-.12,0-.22-.1-.22-.22s.1-.22.22-.22c.12,0,.22.1.22.22h0Z"/>
      <path class="cls-1" d="M296.47,127.81c0,3.36-2.73,6.08-6.09,6.08-3.36,0-6.08-2.73-6.08-6.09,0-3.36,2.73-6.08,6.09-6.08,3.36,0,6.08,2.72,6.08,6.08h0Z"/>
      <path class="cls-1" d="M296.47,148.13c0,3.36-2.73,6.08-6.09,6.08-3.36,0-6.08-2.73-6.08-6.09,0-3.36,2.73-6.08,6.09-6.08,3.36,0,6.08,2.72,6.08,6.08h0Z"/>
      <path class="cls-1" d="M296.47,168.45c0,3.36-2.73,6.08-6.09,6.08-3.36,0-6.08-2.73-6.08-6.09,0-3.36,2.73-6.08,6.09-6.08,3.36,0,6.08,2.72,6.08,6.08h0Z"/>
      <path class="cls-1" d="M296.47,188.77c0,3.36-2.73,6.08-6.09,6.08-3.36,0-6.08-2.73-6.08-6.09,0-3.36,2.73-6.08,6.09-6.08,3.36,0,6.08,2.72,6.08,6.08h0Z"/>
      <path class="cls-1" d="M296.47,209.09c0,3.36-2.73,6.08-6.09,6.08-3.36,0-6.08-2.73-6.08-6.09,0-3.36,2.73-6.08,6.09-6.08,3.36,0,6.08,2.72,6.08,6.08h0Z"/>
      <path class="cls-1" d="M296.47,229.41c0,3.36-2.73,6.08-6.09,6.08-3.36,0-6.08-2.73-6.08-6.09,0-3.36,2.73-6.08,6.09-6.08,3.36,0,6.08,2.72,6.08,6.08h0Z"/>
      <path class="cls-1" d="M291.26,249.73c0,.48-.39.87-.87.87s-.87-.39-.87-.87.39-.87.87-.87c.48,0,.87.39.87.87h0Z"/>
      <path class="cls-1" d="M294.01,310.69c0,2-1.62,3.62-3.63,3.62s-3.62-1.62-3.62-3.63c0-2,1.62-3.62,3.63-3.62,2,0,3.62,1.62,3.62,3.62h0Z"/>
      <path class="cls-1" d="M316.79,66.85c.07,3.36-2.6,6.13-5.96,6.2s-6.13-2.6-6.2-5.96c-.07-3.36,2.6-6.13,5.96-6.2,3.36-.07,6.13,2.6,6.2,5.96h0Z"/>
      <path class="cls-1" d="M316.79,87.17c.07,3.36-2.6,6.13-5.96,6.2s-6.13-2.6-6.2-5.96c-.07-3.36,2.6-6.13,5.96-6.2,3.36-.07,6.13,2.6,6.2,5.96h0Z"/>
      <path class="cls-1" d="M311.11,188.77c0,.22-.18.4-.4.4-.22,0-.4-.18-.4-.4s.18-.4.4-.4c.22,0,.4.18.4.4h0Z"/>
      <path class="cls-1" d="M310.91,249.73c0,.11-.09.2-.2.2s-.2-.09-.2-.2c0-.11.09-.2.2-.2.11,0,.2.09.2.2h0Z"/>
      <path class="cls-1" d="M316.79,270.05c.07,3.36-2.6,6.13-5.96,6.2-3.36.07-6.13-2.6-6.2-5.96-.07-3.36,2.6-6.13,5.96-6.2,3.36-.07,6.13,2.6,6.2,5.96h0Z"/>
      <path class="cls-1" d="M313.94,290.37c0,1.78-1.45,3.23-3.23,3.23-1.78,0-3.23-1.45-3.23-3.23,0-1.78,1.45-3.23,3.23-3.23,1.78,0,3.22,1.44,3.23,3.23h0Z"/>
      <path class="cls-1" d="M337.11,127.81c0,3.36-2.73,6.08-6.09,6.08s-6.08-2.73-6.08-6.09c0-3.36,2.73-6.08,6.09-6.08,3.36,0,6.08,2.72,6.08,6.08h0Z"/>
      <path class="cls-1" d="M337.11,148.13c0,3.36-2.73,6.08-6.09,6.08-3.36,0-6.08-2.73-6.08-6.09,0-3.36,2.73-6.08,6.09-6.08,3.36,0,6.08,2.72,6.08,6.08h0Z"/>
      <path class="cls-1" d="M337.11,168.45c0,3.36-2.73,6.08-6.09,6.08s-6.08-2.73-6.08-6.09c0-3.36,2.73-6.08,6.09-6.08,3.36,0,6.08,2.72,6.08,6.08h0Z"/>
      <path class="cls-1" d="M337.11,188.77c0,3.36-2.73,6.08-6.09,6.08s-6.08-2.73-6.08-6.09c0-3.36,2.73-6.08,6.09-6.08,3.36,0,6.08,2.72,6.08,6.08h0Z"/>
      <path class="cls-1" d="M337.11,229.41c0,3.36-2.73,6.08-6.09,6.08-3.36,0-6.08-2.73-6.08-6.09,0-3.36,2.73-6.08,6.09-6.08,3.36,0,6.08,2.72,6.08,6.08h0Z"/>
      <path class="cls-1" d="M337.11,249.73c0,3.36-2.73,6.08-6.09,6.08-3.36,0-6.08-2.73-6.08-6.09,0-3.36,2.73-6.08,6.09-6.08,3.36,0,6.08,2.72,6.08,6.08h0Z"/>
      <path class="cls-1" d="M334.28,270.05c0,1.8-1.46,3.25-3.25,3.25s-3.25-1.46-3.25-3.25c0-1.8,1.46-3.25,3.25-3.25,1.79,0,3.25,1.46,3.25,3.25h0Z"/>
    </g>
  </g>
</svg>