<?xml version="1.0" encoding="UTF-8"?>
<svg id="Layer_2" data-name="Layer 2" xmlns="http://www.w3.org/2000/svg" viewBox="0 0 283.13 327.11">
  <defs>
    <style>
      .cls-1 {
        fill: #0d0c1d;
      }
    </style>
  </defs>
  <g id="Layer_1-2" data-name="Layer 1">
    <g>
      <path class="cls-1" d="M31.13,143.56c0,8.59-6.98,15.56-15.57,15.55C6.96,159.11,0,152.14,0,143.54s6.98-15.56,15.57-15.55c8.59,0,15.55,6.97,15.55,15.55v.02Z"/>
      <path class="cls-1" d="M24.71,171.56c0,5.05-4.1,9.14-9.15,9.14-5.05,0-9.14-4.1-9.14-9.15s4.1-9.14,9.15-9.14c5.05,0,9.14,4.09,9.14,9.14h0Z"/>
      <path class="cls-1" d="M59.13,115.56c0,8.59-6.98,15.56-15.57,15.55-8.59,0-15.56-6.98-15.55-15.57s6.98-15.56,15.57-15.55c8.59,0,15.55,6.97,15.55,15.55v.02Z"/>
      <path class="cls-1" d="M59.13,143.56c0,8.59-6.98,15.56-15.57,15.55-8.59,0-15.56-6.98-15.55-15.57s6.98-15.56,15.57-15.55c8.59,0,15.55,6.97,15.55,15.55v.02Z"/>
      <path class="cls-1" d="M59.13,171.56c0,8.59-6.98,15.56-15.57,15.55-8.59,0-15.56-6.98-15.55-15.57s6.98-15.56,15.57-15.55c8.59,0,15.55,6.97,15.55,15.55v.02Z"/>
      <path class="cls-1" d="M59.13,199.56c0,8.59-6.98,15.56-15.57,15.55-8.59,0-15.56-6.98-15.55-15.57s6.98-15.56,15.57-15.55c8.59,0,15.55,6.97,15.55,15.55v.02Z"/>
      <path class="cls-1" d="M59.13,227.56c0,8.59-6.98,15.56-15.57,15.55-8.59,0-15.56-6.98-15.55-15.57s6.98-15.56,15.57-15.55c8.59,0,15.55,6.97,15.55,15.55v.02Z"/>
      <path class="cls-1" d="M59.13,255.56c0,8.59-6.98,15.56-15.57,15.55-8.59,0-15.56-6.98-15.55-15.57s6.98-15.56,15.57-15.55c8.59,0,15.55,6.97,15.55,15.55v.02Z"/>
      <path class="cls-1" d="M59.13,283.56c0,8.59-6.98,15.56-15.57,15.55-8.59,0-15.56-6.98-15.55-15.57s6.98-15.56,15.57-15.55c8.59,0,15.55,6.97,15.55,15.55v.02Z"/>
      <path class="cls-1" d="M59.13,311.56c0,8.59-6.98,15.56-15.57,15.55-8.59,0-15.56-6.98-15.55-15.57s6.98-15.56,15.57-15.55c8.59,0,15.55,6.97,15.55,15.55v.02Z"/>
      <path class="cls-1" d="M87.13,87.56c0,8.59-6.98,15.56-15.57,15.55-8.59,0-15.56-6.98-15.55-15.57s6.98-15.56,15.57-15.55c8.59,0,15.55,6.97,15.55,15.55v.02Z"/>
      <path class="cls-1" d="M87.13,115.56c0,8.59-6.98,15.56-15.57,15.55-8.59,0-15.56-6.98-15.55-15.57s6.98-15.56,15.57-15.55c8.59,0,15.55,6.97,15.55,15.55v.02Z"/>
      <path class="cls-1" d="M87.13,143.56c0,8.59-6.98,15.56-15.57,15.55-8.59,0-15.56-6.98-15.55-15.57s6.98-15.56,15.57-15.55c8.59,0,15.55,6.97,15.55,15.55v.02Z"/>
      <path class="cls-1" d="M87.13,171.56c0,8.59-6.98,15.56-15.57,15.55-8.59,0-15.56-6.98-15.55-15.57s6.98-15.56,15.57-15.55c8.59,0,15.55,6.97,15.55,15.55v.02Z"/>
      <path class="cls-1" d="M87.13,199.56c0,8.59-6.98,15.56-15.57,15.55-8.59,0-15.56-6.98-15.55-15.57s6.98-15.56,15.57-15.55c8.59,0,15.55,6.97,15.55,15.55v.02Z"/>
      <path class="cls-1" d="M87.13,227.56c0,8.59-6.98,15.56-15.57,15.55-8.59,0-15.56-6.98-15.55-15.57s6.98-15.56,15.57-15.55c8.59,0,15.55,6.97,15.55,15.55v.02Z"/>
      <path class="cls-1" d="M87.13,255.56c0,8.59-6.98,15.56-15.57,15.55-8.59,0-15.56-6.98-15.55-15.57s6.98-15.56,15.57-15.55c8.59,0,15.55,6.97,15.55,15.55v.02Z"/>
      <path class="cls-1" d="M87.13,283.56c0,8.59-6.98,15.56-15.57,15.55-8.59,0-15.56-6.98-15.55-15.57s6.98-15.56,15.57-15.55c8.59,0,15.55,6.97,15.55,15.55v.02Z"/>
      <path class="cls-1" d="M87.13,311.56c0,8.59-6.98,15.56-15.57,15.55-8.59,0-15.56-6.98-15.55-15.57s6.98-15.56,15.57-15.55c8.59,0,15.55,6.97,15.55,15.55v.02Z"/>
      <path class="cls-1" d="M115.13,59.56c0,8.59-6.98,15.56-15.57,15.55-8.59,0-15.56-6.98-15.55-15.57s6.98-15.56,15.57-15.55c8.59,0,15.55,6.97,15.55,15.55v.02Z"/>
      <path class="cls-1" d="M115.13,87.56c0,8.59-6.98,15.56-15.57,15.55-8.59,0-15.56-6.98-15.55-15.57s6.98-15.56,15.57-15.55c8.59,0,15.55,6.97,15.55,15.55v.02Z"/>
      <path class="cls-1" d="M115.13,115.56c0,8.59-6.98,15.56-15.57,15.55-8.59,0-15.56-6.98-15.55-15.57s6.98-15.56,15.57-15.55c8.59,0,15.55,6.97,15.55,15.55v.02Z"/>
      <path class="cls-1" d="M115.13,143.56c0,8.59-6.98,15.56-15.57,15.55-8.59,0-15.56-6.98-15.55-15.57s6.98-15.56,15.57-15.55c8.59,0,15.55,6.97,15.55,15.55v.02Z"/>
      <path class="cls-1" d="M115.13,171.56c0,8.59-6.98,15.56-15.57,15.55-8.59,0-15.56-6.98-15.55-15.57s6.98-15.56,15.57-15.55c8.59,0,15.55,6.97,15.55,15.55v.02Z"/>
      <path class="cls-1" d="M115.13,199.56c0,8.59-6.98,15.56-15.57,15.55-8.59,0-15.56-6.98-15.55-15.57s6.98-15.56,15.57-15.55c8.59,0,15.55,6.97,15.55,15.55v.02Z"/>
      <path class="cls-1" d="M115.13,227.56c0,8.59-6.98,15.56-15.57,15.55-8.59,0-15.56-6.98-15.55-15.57s6.98-15.56,15.57-15.55c8.59,0,15.55,6.97,15.55,15.55v.02Z"/>
      <path class="cls-1" d="M115.13,255.56c0,8.59-6.98,15.56-15.57,15.55-8.59,0-15.56-6.98-15.55-15.57s6.98-15.56,15.57-15.55c8.59,0,15.55,6.97,15.55,15.55v.02Z"/>
      <path class="cls-1" d="M115.13,283.56c0,8.59-6.98,15.56-15.57,15.55-8.59,0-15.56-6.98-15.55-15.57s6.98-15.56,15.57-15.55c8.59,0,15.55,6.97,15.55,15.55v.02Z"/>
      <path class="cls-1" d="M115.13,311.56c0,8.59-6.98,15.56-15.57,15.55-8.59,0-15.56-6.98-15.55-15.57s6.98-15.56,15.57-15.55c8.59,0,15.55,6.97,15.55,15.55v.02Z"/>
      <path class="cls-1" d="M131.12,3.56c0,1.96-1.59,3.56-3.56,3.56-1.96,0-3.56-1.59-3.56-3.56S125.6,0,127.56,0c1.96,0,3.55,1.59,3.56,3.56h0Z"/>
      <path class="cls-1" d="M143.13,31.56c0,8.59-6.98,15.56-15.57,15.55-8.59,0-15.56-6.98-15.55-15.57s6.98-15.56,15.57-15.55c8.59,0,15.55,6.97,15.55,15.55v.02Z"/>
      <path class="cls-1" d="M143.13,59.56c0,8.59-6.98,15.56-15.57,15.55-8.59,0-15.56-6.98-15.55-15.57s6.98-15.56,15.57-15.55c8.59,0,15.55,6.97,15.55,15.55v.02Z"/>
      <path class="cls-1" d="M143.13,87.56c0,8.59-6.98,15.56-15.57,15.55-8.59,0-15.56-6.98-15.55-15.57s6.98-15.56,15.57-15.55c8.59,0,15.55,6.97,15.55,15.55v.02Z"/>
      <path class="cls-1" d="M143.13,115.56c0,8.59-6.98,15.56-15.57,15.55-8.59,0-15.56-6.98-15.55-15.57s6.98-15.56,15.57-15.55c8.59,0,15.55,6.97,15.55,15.55v.02Z"/>
      <path class="cls-1" d="M143.13,143.56c0,8.59-6.98,15.56-15.57,15.55-8.59,0-15.56-6.98-15.55-15.57s6.98-15.56,15.57-15.55c8.59,0,15.55,6.97,15.55,15.55v.02Z"/>
      <path class="cls-1" d="M143.13,171.56c0,8.59-6.98,15.56-15.57,15.55-8.59,0-15.56-6.98-15.55-15.57s6.98-15.56,15.57-15.55c8.59,0,15.55,6.97,15.55,15.55v.02Z"/>
      <path class="cls-1" d="M143.13,199.56c0,8.59-6.98,15.56-15.57,15.55-8.59,0-15.56-6.98-15.55-15.57s6.98-15.56,15.57-15.55c8.59,0,15.55,6.97,15.55,15.55v.02Z"/>
      <path class="cls-1" d="M143.13,227.56c0,8.59-6.98,15.56-15.57,15.55-8.59,0-15.56-6.98-15.55-15.57s6.98-15.56,15.57-15.55c8.59,0,15.55,6.97,15.55,15.55v.02Z"/>
      <path class="cls-1" d="M143.13,255.56c0,8.59-6.98,15.56-15.57,15.55-8.59,0-15.56-6.98-15.55-15.57s6.98-15.56,15.57-15.55c8.59,0,15.55,6.97,15.55,15.55v.02Z"/>
      <path class="cls-1" d="M171.13,31.56c0,8.59-6.98,15.56-15.57,15.55-8.59,0-15.56-6.98-15.55-15.57s6.98-15.56,15.57-15.55c8.59,0,15.55,6.97,15.55,15.55v.02Z"/>
      <path class="cls-1" d="M171.13,59.56c0,8.59-6.98,15.56-15.57,15.55-8.59,0-15.56-6.98-15.55-15.57s6.98-15.56,15.57-15.55c8.59,0,15.55,6.97,15.55,15.55v.02Z"/>
      <path class="cls-1" d="M171.13,87.56c0,8.59-6.98,15.56-15.57,15.55-8.59,0-15.56-6.98-15.55-15.57s6.98-15.56,15.57-15.55c8.59,0,15.55,6.97,15.55,15.55v.02Z"/>
      <path class="cls-1" d="M171.13,115.56c0,8.59-6.98,15.56-15.57,15.55-8.59,0-15.56-6.98-15.55-15.57s6.98-15.56,15.57-15.55c8.59,0,15.55,6.97,15.55,15.55v.02Z"/>
      <path class="cls-1" d="M171.13,143.56c0,8.59-6.98,15.56-15.57,15.55-8.59,0-15.56-6.98-15.55-15.57s6.98-15.56,15.57-15.55c8.59,0,15.55,6.97,15.55,15.55v.02Z"/>
      <path class="cls-1" d="M171.13,171.56c0,8.59-6.98,15.56-15.57,15.55-8.59,0-15.56-6.98-15.55-15.57s6.98-15.56,15.57-15.55c8.59,0,15.55,6.97,15.55,15.55v.02Z"/>
      <path class="cls-1" d="M171.13,199.56c0,8.59-6.98,15.56-15.57,15.55-8.59,0-15.56-6.98-15.55-15.57s6.98-15.56,15.57-15.55c8.59,0,15.55,6.97,15.55,15.55v.02Z"/>
      <path class="cls-1" d="M171.13,227.56c0,8.59-6.98,15.56-15.57,15.55-8.59,0-15.56-6.98-15.55-15.57s6.98-15.56,15.57-15.55c8.59,0,15.55,6.97,15.55,15.55v.02Z"/>
      <path class="cls-1" d="M171.13,255.56c0,8.59-6.98,15.56-15.57,15.55-8.59,0-15.56-6.98-15.55-15.57s6.98-15.56,15.57-15.55c8.59,0,15.55,6.97,15.55,15.55v.02Z"/>
      <path class="cls-1" d="M159.31,283.56c0,2.07-1.68,3.75-3.75,3.75-2.07,0-3.75-1.68-3.75-3.75s1.68-3.75,3.75-3.75c2.07,0,3.74,1.68,3.75,3.75h0Z"/>
      <path class="cls-1" d="M157.98,311.56c0,1.33-1.08,2.41-2.41,2.41-1.33,0-2.41-1.08-2.41-2.41,0-1.33,1.08-2.41,2.41-2.41,1.33,0,2.41,1.08,2.41,2.41h0Z"/>
      <path class="cls-1" d="M189.98,31.56c.03,3.54-2.81,6.44-6.36,6.47-3.54.03-6.44-2.81-6.47-6.36-.03-3.54,2.81-6.44,6.36-6.47,3.54-.03,6.44,2.81,6.47,6.35h0Z"/>
      <path class="cls-1" d="M199.13,59.56c0,8.59-6.98,15.56-15.57,15.55-8.59,0-15.56-6.98-15.55-15.57s6.98-15.56,15.57-15.55c8.59,0,15.55,6.97,15.55,15.55v.02Z"/>
      <path class="cls-1" d="M199.13,87.56c0,8.59-6.98,15.56-15.57,15.55-8.59,0-15.56-6.98-15.55-15.57s6.98-15.56,15.57-15.55c8.59,0,15.55,6.97,15.55,15.55v.02Z"/>
      <path class="cls-1" d="M199.13,115.56c0,8.59-6.98,15.56-15.57,15.55-8.59,0-15.56-6.98-15.55-15.57s6.98-15.56,15.57-15.55c8.59,0,15.55,6.97,15.55,15.55v.02Z"/>
      <path class="cls-1" d="M199.13,143.56c0,8.59-6.98,15.56-15.57,15.55-8.59,0-15.56-6.98-15.55-15.57s6.98-15.56,15.57-15.55c8.59,0,15.55,6.97,15.55,15.55v.02Z"/>
      <path class="cls-1" d="M199.13,171.56c0,8.59-6.98,15.56-15.57,15.55-8.59,0-15.56-6.98-15.55-15.57s6.98-15.56,15.57-15.55c8.59,0,15.55,6.97,15.55,15.55v.02Z"/>
      <path class="cls-1" d="M199.13,199.56c0,8.59-6.98,15.56-15.57,15.55-8.59,0-15.56-6.98-15.55-15.57s6.98-15.56,15.57-15.55c8.59,0,15.55,6.97,15.55,15.55v.02Z"/>
      <path class="cls-1" d="M199.13,227.56c0,8.59-6.98,15.56-15.57,15.55-8.59,0-15.56-6.98-15.55-15.57s6.98-15.56,15.57-15.55c8.59,0,15.55,6.97,15.55,15.55v.02Z"/>
      <path class="cls-1" d="M199.13,255.56c0,8.59-6.98,15.56-15.57,15.55-8.59,0-15.56-6.98-15.55-15.57s6.98-15.56,15.57-15.55c8.59,0,15.55,6.97,15.55,15.55v.02Z"/>
      <path class="cls-1" d="M199.13,283.56c0,8.59-6.98,15.56-15.57,15.55-8.59,0-15.56-6.98-15.55-15.57s6.98-15.56,15.57-15.55c8.59,0,15.55,6.97,15.55,15.55v.02Z"/>
      <path class="cls-1" d="M199.13,311.56c0,8.59-6.98,15.56-15.57,15.55-8.59,0-15.56-6.98-15.55-15.57s6.98-15.56,15.57-15.55c8.59,0,15.55,6.97,15.55,15.55v.02Z"/>
      <path class="cls-1" d="M227.13,31.56c0,8.59-6.98,15.56-15.57,15.55-8.59,0-15.56-6.98-15.55-15.57s6.98-15.56,15.57-15.55c8.59,0,15.55,6.97,15.55,15.55v.02Z"/>
      <path class="cls-1" d="M227.13,59.56c0,8.59-6.98,15.56-15.57,15.55-8.59,0-15.56-6.98-15.55-15.57s6.98-15.56,15.57-15.55c8.59,0,15.55,6.97,15.55,15.55v.02Z"/>
      <path class="cls-1" d="M227.13,87.56c0,8.59-6.98,15.56-15.57,15.55-8.59,0-15.56-6.98-15.55-15.57s6.98-15.56,15.57-15.55c8.59,0,15.55,6.97,15.55,15.55v.02Z"/>
      <path class="cls-1" d="M227.13,115.56c0,8.59-6.98,15.56-15.57,15.55-8.59,0-15.56-6.98-15.55-15.57s6.98-15.56,15.57-15.55c8.59,0,15.55,6.97,15.55,15.55v.02Z"/>
      <path class="cls-1" d="M227.13,143.56c0,8.59-6.98,15.56-15.57,15.55-8.59,0-15.56-6.98-15.55-15.57s6.98-15.56,15.57-15.55c8.59,0,15.55,6.97,15.55,15.55v.02Z"/>
      <path class="cls-1" d="M227.13,171.56c0,8.59-6.98,15.56-15.57,15.55-8.59,0-15.56-6.98-15.55-15.57s6.98-15.56,15.57-15.55c8.59,0,15.55,6.97,15.55,15.55v.02Z"/>
      <path class="cls-1" d="M227.13,199.56c0,8.59-6.98,15.56-15.57,15.55-8.59,0-15.56-6.98-15.55-15.57s6.98-15.56,15.57-15.55c8.59,0,15.55,6.97,15.55,15.55v.02Z"/>
      <path class="cls-1" d="M227.13,227.56c0,8.59-6.98,15.56-15.57,15.55-8.59,0-15.56-6.98-15.55-15.57s6.98-15.56,15.57-15.55c8.59,0,15.55,6.97,15.55,15.55v.02Z"/>
      <path class="cls-1" d="M227.13,255.56c0,8.59-6.98,15.56-15.57,15.55-8.59,0-15.56-6.98-15.55-15.57s6.98-15.56,15.57-15.55c8.59,0,15.55,6.97,15.55,15.55v.02Z"/>
      <path class="cls-1" d="M227.13,283.56c0,8.59-6.98,15.56-15.57,15.55-8.59,0-15.56-6.98-15.55-15.57s6.98-15.56,15.57-15.55c8.59,0,15.55,6.97,15.55,15.55v.02Z"/>
      <path class="cls-1" d="M227.13,311.56c0,8.59-6.98,15.56-15.57,15.55-8.59,0-15.56-6.98-15.55-15.57s6.98-15.56,15.57-15.55c8.59,0,15.55,6.97,15.55,15.55v.02Z"/>
      <path class="cls-1" d="M255.13,31.56c0,8.59-6.98,15.56-15.57,15.55-8.59,0-15.56-6.98-15.55-15.57s6.98-15.56,15.57-15.55c8.59,0,15.55,6.97,15.55,15.55v.02Z"/>
      <path class="cls-1" d="M255.13,59.56c0,8.59-6.98,15.56-15.57,15.55-8.59,0-15.56-6.98-15.55-15.57s6.98-15.56,15.57-15.55c8.59,0,15.55,6.97,15.55,15.55v.02Z"/>
      <path class="cls-1" d="M255.13,87.56c0,8.59-6.98,15.56-15.57,15.55-8.59,0-15.56-6.98-15.55-15.57s6.98-15.56,15.57-15.55c8.59,0,15.55,6.97,15.55,15.55v.02Z"/>
      <path class="cls-1" d="M255.13,115.56c0,8.59-6.98,15.56-15.57,15.55-8.59,0-15.56-6.98-15.55-15.57s6.98-15.56,15.57-15.55c8.59,0,15.55,6.97,15.55,15.55v.02Z"/>
      <path class="cls-1" d="M255.13,143.56c0,8.59-6.98,15.56-15.57,15.55-8.59,0-15.56-6.98-15.55-15.57s6.98-15.56,15.57-15.55c8.59,0,15.55,6.97,15.55,15.55v.02Z"/>
      <path class="cls-1" d="M255.13,171.56c0,8.59-6.98,15.56-15.57,15.55-8.59,0-15.56-6.98-15.55-15.57s6.98-15.56,15.57-15.55c8.59,0,15.55,6.97,15.55,15.55v.02Z"/>
      <path class="cls-1" d="M255.13,199.56c0,8.59-6.98,15.56-15.57,15.55-8.59,0-15.56-6.98-15.55-15.57s6.98-15.56,15.57-15.55c8.59,0,15.55,6.97,15.55,15.55v.02Z"/>
      <path class="cls-1" d="M255.13,227.56c0,8.59-6.98,15.56-15.57,15.55-8.59,0-15.56-6.98-15.55-15.57s6.98-15.56,15.57-15.55c8.59,0,15.55,6.97,15.55,15.55v.02Z"/>
      <path class="cls-1" d="M255.13,255.56c0,8.59-6.98,15.56-15.57,15.55-8.59,0-15.56-6.98-15.55-15.57s6.98-15.56,15.57-15.55c8.59,0,15.55,6.97,15.55,15.55v.02Z"/>
      <path class="cls-1" d="M255.13,283.56c0,8.59-6.98,15.56-15.57,15.55-8.59,0-15.56-6.98-15.55-15.57s6.98-15.56,15.57-15.55c8.59,0,15.55,6.97,15.55,15.55v.02Z"/>
      <path class="cls-1" d="M255.06,311.56c0,8.56-6.95,15.5-15.51,15.49-8.56,0-15.5-6.95-15.49-15.51,0-8.56,6.95-15.5,15.51-15.49,8.55,0,15.49,6.94,15.49,15.49v.02Z"/>
      <path class="cls-1" d="M283.13,143.56c0,8.59-6.98,15.56-15.57,15.55-8.59,0-15.56-6.98-15.55-15.57s6.98-15.56,15.57-15.55c8.59,0,15.55,6.97,15.55,15.55v.02Z"/>
      <path class="cls-1" d="M276.71,171.56c0,5.05-4.1,9.14-9.15,9.14-5.05,0-9.14-4.1-9.14-9.15s4.1-9.14,9.15-9.14c5.05,0,9.14,4.09,9.14,9.14h0Z"/>
    </g>
  </g>
</svg>