<?xml version="1.0" encoding="UTF-8"?>
<svg id="Layer_2" data-name="Layer 2" xmlns="http://www.w3.org/2000/svg" viewBox="0 0 350.42 353.23">
  <defs>
    <style>
      .cls-1 {
        fill: #0d0c1d;
      }
    </style>
  </defs>
  <g id="Layer_1-2" data-name="Layer 1">
    <g>
      <path class="cls-1" d="M23.12,176.62c0,6.38-5.18,11.56-11.57,11.55C5.17,188.18,0,183,0,176.61c0-6.38,5.18-11.56,11.57-11.55,6.38,0,11.55,5.17,11.55,11.55h0Z"/>
      <path class="cls-1" d="M52.98,95.5c0,7.94-6.44,14.37-14.38,14.37-7.94,0-14.37-6.44-14.37-14.38s6.44-14.37,14.38-14.37c7.93,0,14.37,6.44,14.37,14.37h0Z"/>
      <path class="cls-1" d="M52.98,176.62c0,7.94-6.44,14.37-14.38,14.37-7.94,0-14.37-6.44-14.37-14.38s6.44-14.37,14.38-14.37c7.93,0,14.37,6.44,14.37,14.37h0Z"/>
      <path class="cls-1" d="M52.98,257.74c0,7.94-6.44,14.37-14.38,14.37-7.94,0-14.37-6.44-14.37-14.38s6.44-14.37,14.38-14.37c7.93,0,14.37,6.44,14.37,14.37h0Z"/>
      <path class="cls-1" d="M68.99,122.54c0,1.85-1.5,3.34-3.35,3.34-1.85,0-3.34-1.5-3.34-3.35s1.5-3.34,3.35-3.34c1.85,0,3.34,1.5,3.34,3.34h0Z"/>
      <path class="cls-1" d="M106.59,122.54c0,7.68-6.23,13.9-13.91,13.9s-13.9-6.23-13.9-13.91,6.23-13.9,13.91-13.9c7.68,0,13.9,6.23,13.9,13.9h0Z"/>
      <path class="cls-1" d="M107.06,149.58c0,7.94-6.44,14.37-14.38,14.37-7.94,0-14.37-6.44-14.37-14.38s6.44-14.37,14.38-14.37c7.93,0,14.37,6.44,14.37,14.37h0Z"/>
      <path class="cls-1" d="M107.06,176.62c0,7.94-6.44,14.37-14.38,14.37-7.94,0-14.37-6.44-14.37-14.38s6.44-14.37,14.38-14.37c7.93,0,14.37,6.44,14.37,14.37h0Z"/>
      <path class="cls-1" d="M107.06,203.66c0,7.94-6.44,14.37-14.38,14.37s-14.37-6.44-14.37-14.38c0-7.94,6.44-14.37,14.38-14.37,7.93,0,14.37,6.44,14.37,14.37h0Z"/>
      <path class="cls-1" d="M107.06,230.7c0,7.94-6.44,14.37-14.38,14.37s-14.37-6.44-14.37-14.38,6.44-14.37,14.38-14.37c7.93,0,14.37,6.44,14.37,14.37h0Z"/>
      <path class="cls-1" d="M104.83,311.82c0,6.71-5.44,12.14-12.15,12.14-6.71,0-12.14-5.44-12.14-12.15s5.44-12.14,12.15-12.14c6.7,0,12.14,5.44,12.14,12.14h0Z"/>
      <path class="cls-1" d="M133.86,95.5c.03,7.81-6.28,14.17-14.09,14.2s-14.17-6.28-14.2-14.09c-.03-7.81,6.28-14.17,14.09-14.2,7.81-.03,14.16,6.27,14.2,14.07h0Z"/>
      <path class="cls-1" d="M134.1,122.54c0,7.94-6.44,14.37-14.38,14.37-7.94,0-14.37-6.44-14.37-14.38s6.44-14.37,14.38-14.37c7.93,0,14.37,6.44,14.37,14.37h0Z"/>
      <path class="cls-1" d="M134.1,149.58c0,7.94-6.44,14.37-14.38,14.37-7.94,0-14.37-6.44-14.37-14.38s6.44-14.37,14.38-14.37c7.93,0,14.37,6.44,14.37,14.37h0Z"/>
      <path class="cls-1" d="M134.1,176.62c0,7.94-6.44,14.37-14.38,14.37-7.94,0-14.37-6.44-14.37-14.38s6.44-14.37,14.38-14.37c7.93,0,14.37,6.44,14.37,14.37h0Z"/>
      <path class="cls-1" d="M134.1,203.66c0,7.94-6.44,14.37-14.38,14.37s-14.37-6.44-14.37-14.38c0-7.94,6.44-14.37,14.38-14.37,7.93,0,14.37,6.44,14.37,14.37h0Z"/>
      <path class="cls-1" d="M134.1,230.7c0,7.94-6.44,14.37-14.38,14.37s-14.37-6.44-14.37-14.38,6.44-14.37,14.38-14.37c7.93,0,14.37,6.44,14.37,14.37h0Z"/>
      <path class="cls-1" d="M134.1,257.74c0,7.94-6.44,14.37-14.38,14.37-7.94,0-14.37-6.44-14.37-14.38s6.44-14.37,14.38-14.37c7.93,0,14.37,6.44,14.37,14.37h0Z"/>
      <path class="cls-1" d="M119.84,284.78c0,.06-.05.12-.12.12-.06,0-.12-.05-.12-.12,0-.06.05-.12.12-.12.06,0,.12.05.12.12h0Z"/>
      <path class="cls-1" d="M158.5,14.38c0,6.48-5.26,11.73-11.74,11.73-6.48,0-11.73-5.26-11.73-11.74s5.26-11.73,11.74-11.73c6.48,0,11.73,5.25,11.73,11.73h0Z"/>
      <path class="cls-1" d="M157.5,41.42c0,5.93-4.81,10.74-10.74,10.73-5.93,0-10.74-4.81-10.73-10.74,0-5.93,4.81-10.74,10.74-10.73,5.93,0,10.73,4.81,10.73,10.73h0Z"/>
      <path class="cls-1" d="M161.14,68.46c0,7.94-6.44,14.37-14.38,14.37s-14.37-6.44-14.37-14.38,6.44-14.37,14.38-14.37c7.93,0,14.37,6.44,14.37,14.37h0Z"/>
      <path class="cls-1" d="M161.14,95.5c0,7.94-6.44,14.37-14.38,14.37-7.94,0-14.37-6.44-14.37-14.38s6.44-14.37,14.38-14.37c7.93,0,14.37,6.44,14.37,14.37h0Z"/>
      <path class="cls-1" d="M161.14,122.54c0,7.94-6.44,14.37-14.38,14.37-7.94,0-14.37-6.44-14.37-14.38s6.44-14.37,14.38-14.37c7.93,0,14.37,6.44,14.37,14.37h0Z"/>
      <path class="cls-1" d="M161.14,149.58c0,7.94-6.44,14.37-14.38,14.37-7.94,0-14.37-6.44-14.37-14.38s6.44-14.37,14.38-14.37c7.93,0,14.37,6.44,14.37,14.37h0Z"/>
      <path class="cls-1" d="M161.14,176.62c0,7.94-6.44,14.37-14.38,14.37-7.94,0-14.37-6.44-14.37-14.38s6.44-14.37,14.38-14.37c7.93,0,14.37,6.44,14.37,14.37h0Z"/>
      <path class="cls-1" d="M161.14,203.66c0,7.94-6.44,14.37-14.38,14.37s-14.37-6.44-14.37-14.38c0-7.94,6.44-14.37,14.38-14.37,7.93,0,14.37,6.44,14.37,14.37h0Z"/>
      <path class="cls-1" d="M161.14,230.7c0,7.94-6.44,14.37-14.38,14.37s-14.37-6.44-14.37-14.38,6.44-14.37,14.38-14.37c7.93,0,14.37,6.44,14.37,14.37h0Z"/>
      <path class="cls-1" d="M161.14,257.74c0,7.94-6.44,14.37-14.38,14.37-7.94,0-14.37-6.44-14.37-14.38s6.44-14.37,14.38-14.37c7.93,0,14.37,6.44,14.37,14.37h0Z"/>
      <path class="cls-1" d="M188.18,14.38c0,7.94-6.44,14.37-14.38,14.37-7.94,0-14.37-6.44-14.37-14.38S165.87,0,173.81,0c7.93,0,14.37,6.44,14.37,14.37h0Z"/>
      <path class="cls-1" d="M184.54,41.42c0,5.93-4.81,10.74-10.74,10.73-5.93,0-10.74-4.81-10.73-10.74,0-5.93,4.81-10.74,10.74-10.73,5.93,0,10.73,4.81,10.73,10.73h0Z"/>
      <path class="cls-1" d="M188.18,68.46c0,7.94-6.44,14.37-14.38,14.37s-14.37-6.44-14.37-14.38,6.44-14.37,14.38-14.37c7.93,0,14.37,6.44,14.37,14.37h0Z"/>
      <path class="cls-1" d="M188.18,95.5c0,7.94-6.44,14.37-14.38,14.37-7.94,0-14.37-6.44-14.37-14.38s6.44-14.37,14.38-14.37c7.93,0,14.37,6.44,14.37,14.37h0Z"/>
      <path class="cls-1" d="M188.18,122.54c0,7.94-6.44,14.37-14.38,14.37-7.94,0-14.37-6.44-14.37-14.38s6.44-14.37,14.38-14.37c7.93,0,14.37,6.44,14.37,14.37h0Z"/>
      <path class="cls-1" d="M188.18,149.58c0,7.94-6.44,14.37-14.38,14.37-7.94,0-14.37-6.44-14.37-14.38s6.44-14.37,14.38-14.37c7.93,0,14.37,6.44,14.37,14.37h0Z"/>
      <path class="cls-1" d="M188.18,176.62c0,7.94-6.44,14.37-14.38,14.37-7.94,0-14.37-6.44-14.37-14.38s6.44-14.37,14.38-14.37c7.93,0,14.37,6.44,14.37,14.37h0Z"/>
      <path class="cls-1" d="M188.18,203.66c0,7.94-6.44,14.37-14.38,14.37s-14.37-6.44-14.37-14.38c0-7.94,6.44-14.37,14.38-14.37,7.93,0,14.37,6.44,14.37,14.37h0Z"/>
      <path class="cls-1" d="M188.18,230.7c0,7.94-6.44,14.37-14.38,14.37s-14.37-6.44-14.37-14.38,6.44-14.37,14.38-14.37c7.93,0,14.37,6.44,14.37,14.37h0Z"/>
      <path class="cls-1" d="M188.18,257.74c0,7.94-6.44,14.37-14.38,14.37-7.94,0-14.37-6.44-14.37-14.38s6.44-14.37,14.38-14.37c7.93,0,14.37,6.44,14.37,14.37h0Z"/>
      <path class="cls-1" d="M188.18,311.82c0,7.94-6.44,14.37-14.38,14.37s-14.37-6.44-14.37-14.38,6.44-14.37,14.38-14.37c7.93,0,14.37,6.44,14.37,14.37h0Z"/>
      <path class="cls-1" d="M188.18,338.86c0,7.94-6.44,14.37-14.38,14.37-7.94,0-14.37-6.44-14.37-14.38s6.44-14.37,14.38-14.37c7.93,0,14.37,6.44,14.37,14.37h0Z"/>
      <path class="cls-1" d="M215.22,14.38c.03,7.94-6.38,14.4-14.32,14.43-7.94.03-14.4-6.38-14.43-14.32-.03-7.94,6.38-14.4,14.32-14.43,7.93-.03,14.39,6.37,14.43,14.31h0Z"/>
      <path class="cls-1" d="M211.58,41.42c0,5.93-4.81,10.74-10.74,10.73-5.93,0-10.74-4.81-10.73-10.74,0-5.93,4.81-10.74,10.74-10.73,5.93,0,10.73,4.81,10.73,10.73h0Z"/>
      <path class="cls-1" d="M215.22,68.46c.03,7.94-6.38,14.4-14.32,14.43s-14.4-6.38-14.43-14.32c-.03-7.94,6.38-14.4,14.32-14.43,7.93-.03,14.39,6.37,14.43,14.31h0Z"/>
      <path class="cls-1" d="M215.22,95.5c.03,7.94-6.38,14.4-14.32,14.43-7.94.03-14.4-6.38-14.43-14.32-.03-7.94,6.38-14.4,14.32-14.43,7.93-.03,14.39,6.37,14.43,14.31h0Z"/>
      <path class="cls-1" d="M215.22,122.54c.03,7.94-6.38,14.4-14.32,14.43-7.94.03-14.4-6.38-14.43-14.32-.03-7.94,6.38-14.4,14.32-14.43,7.93-.03,14.39,6.37,14.43,14.31h0Z"/>
      <path class="cls-1" d="M215.22,149.58c.03,7.94-6.38,14.4-14.32,14.43-7.94.03-14.4-6.38-14.43-14.32-.03-7.94,6.38-14.4,14.32-14.43,7.93-.03,14.39,6.37,14.43,14.31h0Z"/>
      <path class="cls-1" d="M215.22,176.62c.03,7.94-6.38,14.4-14.32,14.43-7.94.03-14.4-6.38-14.43-14.32-.03-7.94,6.38-14.4,14.32-14.43,7.93-.03,14.39,6.37,14.43,14.31h0Z"/>
      <path class="cls-1" d="M215.22,203.66c.03,7.94-6.38,14.4-14.32,14.43-7.94.03-14.4-6.38-14.43-14.32-.03-7.94,6.38-14.4,14.32-14.43,7.93-.03,14.39,6.37,14.43,14.31h0Z"/>
      <path class="cls-1" d="M215.22,230.7c.03,7.94-6.38,14.4-14.32,14.43-7.94.03-14.4-6.38-14.43-14.32s6.38-14.4,14.32-14.43c7.93-.03,14.39,6.37,14.43,14.31h0Z"/>
      <path class="cls-1" d="M215.22,257.74c.03,7.94-6.38,14.4-14.32,14.43-7.94.03-14.4-6.38-14.43-14.32-.03-7.94,6.38-14.4,14.32-14.43,7.93-.03,14.39,6.37,14.43,14.31h0Z"/>
      <path class="cls-1" d="M242.26,95.5c0,7.94-6.44,14.37-14.38,14.37-7.94,0-14.37-6.44-14.37-14.38s6.44-14.37,14.38-14.37c7.93,0,14.37,6.44,14.37,14.37h0Z"/>
      <path class="cls-1" d="M242.26,122.54c0,7.94-6.44,14.37-14.38,14.37-7.94,0-14.37-6.44-14.37-14.38s6.44-14.37,14.38-14.37c7.93,0,14.37,6.44,14.37,14.37h0Z"/>
      <path class="cls-1" d="M242.26,149.58c0,7.94-6.44,14.37-14.38,14.37-7.94,0-14.37-6.44-14.37-14.38s6.44-14.37,14.38-14.37c7.93,0,14.37,6.44,14.37,14.37h0Z"/>
      <path class="cls-1" d="M242.26,176.62c0,7.94-6.44,14.37-14.38,14.37-7.94,0-14.37-6.44-14.37-14.38s6.44-14.37,14.38-14.37c7.93,0,14.37,6.44,14.37,14.37h0Z"/>
      <path class="cls-1" d="M242.26,203.66c0,7.94-6.44,14.37-14.38,14.37s-14.37-6.44-14.37-14.38c0-7.94,6.44-14.37,14.38-14.37,7.93,0,14.37,6.44,14.37,14.37h0Z"/>
      <path class="cls-1" d="M242.26,230.7c0,7.94-6.44,14.37-14.38,14.37s-14.37-6.44-14.37-14.38,6.44-14.37,14.38-14.37c7.93,0,14.37,6.44,14.37,14.37h0Z"/>
      <path class="cls-1" d="M242.26,257.74c0,7.94-6.44,14.37-14.38,14.37-7.94,0-14.37-6.44-14.37-14.38s6.44-14.37,14.38-14.37c7.93,0,14.37,6.44,14.37,14.37h0Z"/>
      <path class="cls-1" d="M269.3,122.54c0,7.94-6.44,14.37-14.38,14.37-7.94,0-14.37-6.44-14.37-14.38s6.44-14.37,14.38-14.37c7.93,0,14.37,6.44,14.37,14.37h0Z"/>
      <path class="cls-1" d="M269.3,149.58c0,7.94-6.44,14.37-14.38,14.37-7.94,0-14.37-6.44-14.37-14.38s6.44-14.37,14.38-14.37c7.93,0,14.37,6.44,14.37,14.37h0Z"/>
      <path class="cls-1" d="M269.3,176.62c0,7.94-6.44,14.37-14.38,14.37-7.94,0-14.37-6.44-14.37-14.38s6.44-14.37,14.38-14.37c7.93,0,14.37,6.44,14.37,14.37h0Z"/>
      <path class="cls-1" d="M269.3,203.66c0,7.94-6.44,14.37-14.38,14.37s-14.37-6.44-14.37-14.38c0-7.94,6.44-14.37,14.38-14.37,7.93,0,14.37,6.44,14.37,14.37h0Z"/>
      <path class="cls-1" d="M269.3,230.7c0,7.94-6.44,14.37-14.38,14.37s-14.37-6.44-14.37-14.38,6.44-14.37,14.38-14.37c7.93,0,14.37,6.44,14.37,14.37h0Z"/>
      <path class="cls-1" d="M269.3,311.82c0,7.94-6.44,14.37-14.38,14.37s-14.37-6.44-14.37-14.38,6.44-14.37,14.38-14.37c7.93,0,14.37,6.44,14.37,14.37h0Z"/>
      <path class="cls-1" d="M282.72,122.54c0,.42-.34.76-.76.76s-.76-.34-.76-.76c0-.42.34-.76.76-.76.42,0,.76.34.76.76h0Z"/>
      <path class="cls-1" d="M321.15,95.5c0,6.71-5.44,12.14-12.15,12.14s-12.14-5.44-12.14-12.15,5.44-12.14,12.15-12.14c6.7,0,12.14,5.44,12.14,12.14h0Z"/>
      <path class="cls-1" d="M323.38,176.62c0,7.94-6.44,14.37-14.38,14.37-7.94,0-14.37-6.44-14.37-14.38s6.44-14.37,14.38-14.37c7.93,0,14.37,6.44,14.37,14.37h0Z"/>
      <path class="cls-1" d="M323.38,257.74c0,7.94-6.44,14.37-14.38,14.37-7.94,0-14.37-6.44-14.37-14.38s6.44-14.37,14.38-14.37c7.93,0,14.37,6.44,14.37,14.37h0Z"/>
      <path class="cls-1" d="M350.42,176.62c0,7.94-6.44,14.37-14.38,14.37-7.94,0-14.37-6.44-14.37-14.38,0-7.94,6.44-14.37,14.38-14.37,7.93,0,14.37,6.44,14.37,14.37h0Z"/>
    </g>
  </g>
</svg>