<?xml version="1.0" encoding="UTF-8"?>
<svg id="Layer_2" data-name="Layer 2" xmlns="http://www.w3.org/2000/svg" viewBox="0 0 1087.53 902.23">
  <defs>
    <style>
      .cls-1 {
        fill: #0d0c1d;
      }
    </style>
  </defs>
  <g id="Layer_1-2" data-name="Layer 1">
    <g>
      <path class="cls-1" d="M36.99,49.3c0,10.21-8.29,18.49-18.5,18.48C8.27,67.78,0,59.5,0,49.29c0-10.21,8.29-18.49,18.5-18.48,10.21,0,18.48,8.28,18.48,18.48v.02Z"/>
      <path class="cls-1" d="M67.79,18.42c0,10.17-8.25,18.41-18.42,18.41s-18.41-8.25-18.41-18.42S39.21,0,49.38,0c10.16,0,18.4,8.24,18.41,18.41v.02Z"/>
      <path class="cls-1" d="M68.49,49.3c0,10.56-8.57,19.11-19.13,19.11-10.56,0-19.11-8.57-19.11-19.13s8.57-19.11,19.13-19.11c10.55,0,19.1,8.56,19.11,19.11v.02Z"/>
      <path class="cls-1" d="M98.67,18.42c0,10.17-8.25,18.41-18.42,18.41s-18.41-8.25-18.41-18.42S70.09,0,80.26,0c10.16,0,18.4,8.24,18.41,18.41v.02Z"/>
      <path class="cls-1" d="M99.37,49.3c0,10.56-8.57,19.11-19.13,19.11-10.56,0-19.11-8.57-19.11-19.13s8.57-19.11,19.13-19.11c10.55,0,19.1,8.56,19.11,19.11v.02Z"/>
      <path class="cls-1" d="M129.55,18.42c0,10.17-8.25,18.41-18.42,18.41s-18.41-8.25-18.41-18.42S100.97,0,111.14,0c10.16,0,18.4,8.24,18.41,18.41v.02Z"/>
      <path class="cls-1" d="M130.25,49.3c0,10.56-8.57,19.11-19.13,19.11-10.56,0-19.11-8.57-19.11-19.13s8.57-19.11,19.13-19.11c10.55,0,19.1,8.56,19.11,19.11v.02Z"/>
      <path class="cls-1" d="M160.43,18.42c.01,10.17-8.22,18.42-18.39,18.44-10.17.01-18.42-8.22-18.44-18.39-.01-10.17,8.22-18.42,18.39-18.44,10.16-.01,18.41,8.21,18.44,18.38v.02Z"/>
      <path class="cls-1" d="M161.13,49.3c0,10.56-8.57,19.11-19.13,19.11-10.56,0-19.11-8.57-19.11-19.13s8.57-19.11,19.13-19.11c10.55,0,19.1,8.56,19.11,19.11v.02Z"/>
      <path class="cls-1" d="M191.31,18.42c0,10.17-8.25,18.41-18.42,18.41-10.17,0-18.41-8.25-18.41-18.42S162.73,0,172.9,0c10.16,0,18.4,8.24,18.41,18.41v.02Z"/>
      <path class="cls-1" d="M192.01,49.3c0,10.56-8.57,19.11-19.13,19.11-10.56,0-19.11-8.57-19.11-19.13s8.57-19.11,19.13-19.11c10.55,0,19.1,8.56,19.11,19.11v.02Z"/>
      <path class="cls-1" d="M222.19,18.42c0,10.17-8.25,18.41-18.42,18.41-10.17,0-18.41-8.25-18.41-18.42S193.61,0,203.78,0c10.16,0,18.4,8.24,18.41,18.41v.02Z"/>
      <path class="cls-1" d="M222.89,49.3c0,10.56-8.57,19.11-19.13,19.11-10.56,0-19.11-8.57-19.11-19.13,0-10.56,8.57-19.11,19.13-19.11,10.55,0,19.1,8.56,19.11,19.11v.02Z"/>
      <path class="cls-1" d="M252.91,18.42c0,10.08-8.18,18.26-18.27,18.25-10.08,0-18.26-8.18-18.25-18.27,0-10.08,8.18-18.26,18.27-18.25,10.08,0,18.24,8.17,18.25,18.25v.02Z"/>
      <path class="cls-1" d="M253.77,49.3c0,10.56-8.57,19.11-19.13,19.11-10.56,0-19.11-8.57-19.11-19.13,0-10.56,8.57-19.11,19.13-19.11,10.55,0,19.1,8.56,19.11,19.11v.02Z"/>
      <path class="cls-1" d="M253.77,80.18c0,10.56-8.57,19.11-19.13,19.11-10.56,0-19.11-8.57-19.11-19.13,0-10.56,8.57-19.11,19.13-19.11,10.55,0,19.1,8.56,19.11,19.11v.02Z"/>
      <path class="cls-1" d="M253.77,111.06c0,10.56-8.57,19.11-19.13,19.11-10.56,0-19.11-8.57-19.11-19.13,0-10.56,8.57-19.11,19.13-19.11,10.55,0,19.1,8.56,19.11,19.11v.02Z"/>
      <path class="cls-1" d="M241.75,141.94c0,3.92-3.18,7.1-7.1,7.1-3.92,0-7.1-3.18-7.1-7.1,0-3.92,3.18-7.1,7.1-7.1,3.92,0,7.1,3.18,7.1,7.1h0Z"/>
      <path class="cls-1" d="M265.92,49.3c0,.22-.17.39-.39.39-.22,0-.39-.17-.39-.39,0-.22.17-.39.39-.39.22,0,.39.17.39.39h0Z"/>
      <path class="cls-1" d="M284.65,80.18c0,10.56-8.57,19.11-19.13,19.11-10.56,0-19.11-8.57-19.11-19.13,0-10.56,8.57-19.11,19.13-19.11,10.55,0,19.1,8.56,19.11,19.11v.02Z"/>
      <path class="cls-1" d="M284.65,111.06c0,10.56-8.57,19.11-19.13,19.11-10.56,0-19.11-8.57-19.11-19.13,0-10.56,8.57-19.11,19.13-19.11,10.55,0,19.1,8.56,19.11,19.11v.02Z"/>
      <path class="cls-1" d="M284.65,141.94c0,10.56-8.57,19.11-19.13,19.11-10.56,0-19.11-8.57-19.11-19.13,0-10.56,8.57-19.11,19.13-19.11,10.55,0,19.1,8.56,19.11,19.11v.02Z"/>
      <path class="cls-1" d="M284.65,172.82c0,10.56-8.57,19.11-19.13,19.11-10.56,0-19.11-8.57-19.11-19.13,0-10.56,8.57-19.11,19.13-19.11,10.55,0,19.1,8.56,19.11,19.11v.02Z"/>
      <path class="cls-1" d="M284.65,203.7c0,10.56-8.57,19.11-19.13,19.11-10.56,0-19.11-8.57-19.11-19.13,0-10.56,8.57-19.11,19.13-19.11,10.55,0,19.1,8.56,19.11,19.11v.02Z"/>
      <path class="cls-1" d="M284.65,234.58c0,10.56-8.57,19.11-19.13,19.11-10.56,0-19.11-8.57-19.11-19.13,0-10.56,8.57-19.11,19.13-19.11,10.55,0,19.1,8.56,19.11,19.11v.02Z"/>
      <path class="cls-1" d="M312.02,172.82c.03,8.62-6.93,15.63-15.55,15.66-8.62.03-15.63-6.93-15.66-15.55-.03-8.62,6.93-15.63,15.55-15.66,8.61-.03,15.62,6.92,15.66,15.54v.02Z"/>
      <path class="cls-1" d="M315.53,203.7c0,10.56-8.57,19.11-19.13,19.11-10.56,0-19.11-8.57-19.11-19.13,0-10.56,8.57-19.11,19.13-19.11,10.55,0,19.1,8.56,19.11,19.11v.02Z"/>
      <path class="cls-1" d="M315.53,234.58c0,10.56-8.57,19.11-19.13,19.11-10.56,0-19.11-8.57-19.11-19.13,0-10.56,8.57-19.11,19.13-19.11,10.55,0,19.1,8.56,19.11,19.11v.02Z"/>
      <path class="cls-1" d="M315.53,265.46c0,10.56-8.57,19.11-19.13,19.11s-19.11-8.57-19.11-19.13c0-10.56,8.57-19.11,19.13-19.11,10.55,0,19.1,8.56,19.11,19.11v.02Z"/>
      <path class="cls-1" d="M315.53,296.34c0,10.56-8.57,19.11-19.13,19.11s-19.11-8.57-19.11-19.13c0-10.56,8.57-19.11,19.13-19.11,10.55,0,19.1,8.56,19.11,19.11v.02Z"/>
      <path class="cls-1" d="M315.53,327.22c0,10.56-8.57,19.11-19.13,19.11s-19.11-8.57-19.11-19.13c0-10.56,8.57-19.11,19.13-19.11,10.55,0,19.1,8.56,19.11,19.11v.02Z"/>
      <path class="cls-1" d="M314.75,358.1c0,10.13-8.22,18.33-18.35,18.33-10.13,0-18.33-8.22-18.33-18.35s8.22-18.33,18.35-18.33c10.12,0,18.32,8.21,18.33,18.33v.02Z"/>
      <path class="cls-1" d="M346.41,234.58c0,10.56-8.57,19.11-19.13,19.11-10.56,0-19.11-8.57-19.11-19.13,0-10.56,8.57-19.11,19.13-19.11,10.55,0,19.1,8.56,19.11,19.11v.02Z"/>
      <path class="cls-1" d="M346.41,265.46c0,10.56-8.57,19.11-19.13,19.11s-19.11-8.57-19.11-19.13c0-10.56,8.57-19.11,19.13-19.11,10.55,0,19.1,8.56,19.11,19.11v.02Z"/>
      <path class="cls-1" d="M346.41,296.34c0,10.56-8.57,19.11-19.13,19.11s-19.11-8.57-19.11-19.13c0-10.56,8.57-19.11,19.13-19.11,10.55,0,19.1,8.56,19.11,19.11v.02Z"/>
      <path class="cls-1" d="M346.41,327.22c0,10.56-8.57,19.11-19.13,19.11s-19.11-8.57-19.11-19.13c0-10.56,8.57-19.11,19.13-19.11,10.55,0,19.1,8.56,19.11,19.11v.02Z"/>
      <path class="cls-1" d="M346.41,358.1c0,10.56-8.57,19.11-19.13,19.11-10.56,0-19.11-8.57-19.11-19.13,0-10.56,8.57-19.11,19.13-19.11,10.55,0,19.1,8.56,19.11,19.11v.02Z"/>
      <path class="cls-1" d="M346.41,388.98c0,10.56-8.57,19.11-19.13,19.11-10.56,0-19.11-8.57-19.11-19.13,0-10.56,8.57-19.11,19.13-19.11,10.55,0,19.1,8.56,19.11,19.11v.02Z"/>
      <path class="cls-1" d="M346.41,419.86c0,10.56-8.57,19.11-19.13,19.11-10.56,0-19.11-8.57-19.11-19.13,0-10.56,8.57-19.11,19.13-19.11,10.55,0,19.1,8.56,19.11,19.11v.02Z"/>
      <path class="cls-1" d="M346.41,450.74c0,10.56-8.57,19.11-19.13,19.11s-19.11-8.57-19.11-19.13c0-10.56,8.57-19.11,19.13-19.11,10.55,0,19.1,8.56,19.11,19.11v.02Z"/>
      <path class="cls-1" d="M377.29,203.7c0,10.56-8.57,19.11-19.13,19.11-10.56,0-19.11-8.57-19.11-19.13,0-10.56,8.57-19.11,19.13-19.11,10.55,0,19.1,8.56,19.11,19.11v.02Z"/>
      <path class="cls-1" d="M377.29,234.58c0,10.56-8.57,19.11-19.13,19.11-10.56,0-19.11-8.57-19.11-19.13,0-10.56,8.57-19.11,19.13-19.11,10.55,0,19.1,8.56,19.11,19.11v.02Z"/>
      <path class="cls-1" d="M377.29,265.46c0,10.56-8.57,19.11-19.13,19.11s-19.11-8.57-19.11-19.13c0-10.56,8.57-19.11,19.13-19.11,10.55,0,19.1,8.56,19.11,19.11v.02Z"/>
      <path class="cls-1" d="M377.29,296.34c0,10.56-8.57,19.11-19.13,19.11s-19.11-8.57-19.11-19.13c0-10.56,8.57-19.11,19.13-19.11,10.55,0,19.1,8.56,19.11,19.11v.02Z"/>
      <path class="cls-1" d="M377.29,327.22c0,10.56-8.57,19.11-19.13,19.11s-19.11-8.57-19.11-19.13c0-10.56,8.57-19.11,19.13-19.11,10.55,0,19.1,8.56,19.11,19.11v.02Z"/>
      <path class="cls-1" d="M377.29,358.1c0,10.56-8.57,19.11-19.13,19.11-10.56,0-19.11-8.57-19.11-19.13,0-10.56,8.57-19.11,19.13-19.11,10.55,0,19.1,8.56,19.11,19.11v.02Z"/>
      <path class="cls-1" d="M377.29,388.98c0,10.56-8.57,19.11-19.13,19.11-10.56,0-19.11-8.57-19.11-19.13,0-10.56,8.57-19.11,19.13-19.11,10.55,0,19.1,8.56,19.11,19.11v.02Z"/>
      <path class="cls-1" d="M377.29,419.86c0,10.56-8.57,19.11-19.13,19.11-10.56,0-19.11-8.57-19.11-19.13,0-10.56,8.57-19.11,19.13-19.11,10.55,0,19.1,8.56,19.11,19.11v.02Z"/>
      <path class="cls-1" d="M377.29,450.74c0,10.56-8.57,19.11-19.13,19.11s-19.11-8.57-19.11-19.13c0-10.56,8.57-19.11,19.13-19.11,10.55,0,19.1,8.56,19.11,19.11v.02Z"/>
      <path class="cls-1" d="M377.29,481.62c0,10.56-8.57,19.11-19.13,19.11-10.56,0-19.11-8.57-19.11-19.13,0-10.56,8.57-19.11,19.13-19.11,10.55,0,19.1,8.56,19.11,19.11v.02Z"/>
      <path class="cls-1" d="M377.29,512.5c0,10.56-8.57,19.11-19.13,19.11-10.56,0-19.11-8.57-19.11-19.13,0-10.56,8.57-19.11,19.13-19.11,10.55,0,19.1,8.56,19.11,19.11v.02Z"/>
      <path class="cls-1" d="M377.29,543.38c0,10.56-8.57,19.11-19.13,19.11s-19.11-8.57-19.11-19.13,8.57-19.11,19.13-19.11c10.55,0,19.1,8.56,19.11,19.11v.02Z"/>
      <path class="cls-1" d="M369.33,574.26c.03,6.16-4.94,11.18-11.1,11.21s-11.18-4.94-11.21-11.1,4.94-11.18,11.1-11.21c6.16-.03,11.18,4.93,11.21,11.09h0Z"/>
      <path class="cls-1" d="M408.17,203.7c0,10.56-8.57,19.11-19.13,19.11-10.56,0-19.11-8.57-19.11-19.13,0-10.56,8.57-19.11,19.13-19.11,10.55,0,19.1,8.56,19.11,19.11v.02Z"/>
      <path class="cls-1" d="M408.17,234.58c0,10.56-8.57,19.11-19.13,19.11-10.56,0-19.11-8.57-19.11-19.13,0-10.56,8.57-19.11,19.13-19.11,10.55,0,19.1,8.56,19.11,19.11v.02Z"/>
      <path class="cls-1" d="M408.17,265.46c0,10.56-8.57,19.11-19.13,19.11s-19.11-8.57-19.11-19.13c0-10.56,8.57-19.11,19.13-19.11,10.55,0,19.1,8.56,19.11,19.11v.02Z"/>
      <path class="cls-1" d="M408.17,296.34c0,10.56-8.57,19.11-19.13,19.11s-19.11-8.57-19.11-19.13c0-10.56,8.57-19.11,19.13-19.11,10.55,0,19.1,8.56,19.11,19.11v.02Z"/>
      <path class="cls-1" d="M408.17,327.22c0,10.56-8.57,19.11-19.13,19.11s-19.11-8.57-19.11-19.13c0-10.56,8.57-19.11,19.13-19.11,10.55,0,19.1,8.56,19.11,19.11v.02Z"/>
      <path class="cls-1" d="M408.17,358.1c0,10.56-8.57,19.11-19.13,19.11-10.56,0-19.11-8.57-19.11-19.13,0-10.56,8.57-19.11,19.13-19.11,10.55,0,19.1,8.56,19.11,19.11v.02Z"/>
      <path class="cls-1" d="M408.17,388.98c0,10.56-8.57,19.11-19.13,19.11-10.56,0-19.11-8.57-19.11-19.13,0-10.56,8.57-19.11,19.13-19.11,10.55,0,19.1,8.56,19.11,19.11v.02Z"/>
      <path class="cls-1" d="M408.17,419.86c0,10.56-8.57,19.11-19.13,19.11-10.56,0-19.11-8.57-19.11-19.13,0-10.56,8.57-19.11,19.13-19.11,10.55,0,19.1,8.56,19.11,19.11v.02Z"/>
      <path class="cls-1" d="M408.17,450.74c0,10.56-8.57,19.11-19.13,19.11s-19.11-8.57-19.11-19.13c0-10.56,8.57-19.11,19.13-19.11,10.55,0,19.1,8.56,19.11,19.11v.02Z"/>
      <path class="cls-1" d="M408.17,481.62c0,10.56-8.57,19.11-19.13,19.11-10.56,0-19.11-8.57-19.11-19.13,0-10.56,8.57-19.11,19.13-19.11,10.55,0,19.1,8.56,19.11,19.11v.02Z"/>
      <path class="cls-1" d="M408.17,512.5c0,10.56-8.57,19.11-19.13,19.11-10.56,0-19.11-8.57-19.11-19.13,0-10.56,8.57-19.11,19.13-19.11,10.55,0,19.1,8.56,19.11,19.11v.02Z"/>
      <path class="cls-1" d="M408.17,543.38c0,10.56-8.57,19.11-19.13,19.11s-19.11-8.57-19.11-19.13,8.57-19.11,19.13-19.11c10.55,0,19.1,8.56,19.11,19.11v.02Z"/>
      <path class="cls-1" d="M408.17,574.26c0,10.56-8.57,19.11-19.13,19.11s-19.11-8.57-19.11-19.13,8.57-19.11,19.13-19.11c10.55,0,19.1,8.56,19.11,19.11v.02Z"/>
      <path class="cls-1" d="M408.17,605.14c0,10.56-8.57,19.11-19.13,19.11s-19.11-8.57-19.11-19.13,8.57-19.11,19.13-19.11c10.55,0,19.1,8.56,19.11,19.11v.02Z"/>
      <path class="cls-1" d="M439.05,203.7c0,10.56-8.57,19.11-19.13,19.11-10.56,0-19.11-8.57-19.11-19.13,0-10.56,8.57-19.11,19.13-19.11,10.55,0,19.1,8.56,19.11,19.11v.02Z"/>
      <path class="cls-1" d="M439.05,234.58c0,10.56-8.57,19.11-19.13,19.11-10.56,0-19.11-8.57-19.11-19.13,0-10.56,8.57-19.11,19.13-19.11,10.55,0,19.1,8.56,19.11,19.11v.02Z"/>
      <path class="cls-1" d="M439.05,265.46c0,10.56-8.57,19.11-19.13,19.11s-19.11-8.57-19.11-19.13c0-10.56,8.57-19.11,19.13-19.11,10.55,0,19.1,8.56,19.11,19.11v.02Z"/>
      <path class="cls-1" d="M439.05,296.34c0,10.56-8.57,19.11-19.13,19.11s-19.11-8.57-19.11-19.13c0-10.56,8.57-19.11,19.13-19.11,10.55,0,19.1,8.56,19.11,19.11v.02Z"/>
      <path class="cls-1" d="M439.05,327.22c0,10.56-8.57,19.11-19.13,19.11s-19.11-8.57-19.11-19.13c0-10.56,8.57-19.11,19.13-19.11,10.55,0,19.1,8.56,19.11,19.11v.02Z"/>
      <path class="cls-1" d="M439.05,358.1c0,10.56-8.57,19.11-19.13,19.11-10.56,0-19.11-8.57-19.11-19.13,0-10.56,8.57-19.11,19.13-19.11,10.55,0,19.1,8.56,19.11,19.11v.02Z"/>
      <path class="cls-1" d="M439.05,388.98c0,10.56-8.57,19.11-19.13,19.11-10.56,0-19.11-8.57-19.11-19.13,0-10.56,8.57-19.11,19.13-19.11,10.55,0,19.1,8.56,19.11,19.11v.02Z"/>
      <path class="cls-1" d="M439.05,419.86c0,10.56-8.57,19.11-19.13,19.11-10.56,0-19.11-8.57-19.11-19.13,0-10.56,8.57-19.11,19.13-19.11,10.55,0,19.1,8.56,19.11,19.11v.02Z"/>
      <path class="cls-1" d="M439.05,450.74c0,10.56-8.57,19.11-19.13,19.11s-19.11-8.57-19.11-19.13c0-10.56,8.57-19.11,19.13-19.11,10.55,0,19.1,8.56,19.11,19.11v.02Z"/>
      <path class="cls-1" d="M439.05,481.62c0,10.56-8.57,19.11-19.13,19.11-10.56,0-19.11-8.57-19.11-19.13,0-10.56,8.57-19.11,19.13-19.11,10.55,0,19.1,8.56,19.11,19.11v.02Z"/>
      <path class="cls-1" d="M439.05,512.5c0,10.56-8.57,19.11-19.13,19.11-10.56,0-19.11-8.57-19.11-19.13,0-10.56,8.57-19.11,19.13-19.11,10.55,0,19.1,8.56,19.11,19.11v.02Z"/>
      <path class="cls-1" d="M439.05,543.38c0,10.56-8.57,19.11-19.13,19.11s-19.11-8.57-19.11-19.13,8.57-19.11,19.13-19.11c10.55,0,19.1,8.56,19.11,19.11v.02Z"/>
      <path class="cls-1" d="M439.05,574.26c0,10.56-8.57,19.11-19.13,19.11s-19.11-8.57-19.11-19.13,8.57-19.11,19.13-19.11c10.55,0,19.1,8.56,19.11,19.11v.02Z"/>
      <path class="cls-1" d="M439.05,605.14c0,10.56-8.57,19.11-19.13,19.11s-19.11-8.57-19.11-19.13,8.57-19.11,19.13-19.11c10.55,0,19.1,8.56,19.11,19.11v.02Z"/>
      <path class="cls-1" d="M439.05,636.02c0,10.56-8.57,19.11-19.13,19.11-10.56,0-19.11-8.57-19.11-19.13,0-10.56,8.57-19.11,19.13-19.11,10.55,0,19.1,8.56,19.11,19.11v.02Z"/>
      <path class="cls-1" d="M439.05,790.42c0,10.56-8.57,19.11-19.13,19.11-10.56,0-19.11-8.57-19.11-19.13,0-10.56,8.57-19.11,19.13-19.11,10.55,0,19.1,8.56,19.11,19.11v.02Z"/>
      <path class="cls-1" d="M439.05,821.3c0,10.56-8.57,19.11-19.13,19.11-10.56,0-19.11-8.57-19.11-19.13,0-10.56,8.57-19.11,19.13-19.11,10.55,0,19.1,8.56,19.11,19.11v.02Z"/>
      <path class="cls-1" d="M439.05,852.18c0,10.56-8.57,19.11-19.13,19.11-10.56,0-19.11-8.57-19.11-19.13,0-10.56,8.57-19.11,19.13-19.11,10.55,0,19.1,8.56,19.11,19.11v.02Z"/>
      <path class="cls-1" d="M469.93,203.7c.03,10.56-8.51,19.14-19.07,19.17-10.56.03-19.14-8.51-19.17-19.07-.03-10.56,8.51-19.14,19.07-19.17,10.55-.03,19.13,8.5,19.17,19.05v.02Z"/>
      <path class="cls-1" d="M469.93,234.58c.03,10.56-8.51,19.14-19.07,19.17-10.56.03-19.14-8.51-19.17-19.07-.03-10.56,8.51-19.14,19.07-19.17,10.55-.03,19.13,8.5,19.17,19.05v.02Z"/>
      <path class="cls-1" d="M469.93,265.46c.03,10.56-8.51,19.14-19.07,19.17-10.56.03-19.14-8.51-19.17-19.07-.03-10.56,8.51-19.14,19.07-19.17,10.55-.03,19.13,8.5,19.17,19.05v.02Z"/>
      <path class="cls-1" d="M469.93,296.34c.03,10.56-8.51,19.14-19.07,19.17-10.56.03-19.14-8.51-19.17-19.07-.03-10.56,8.51-19.14,19.07-19.17,10.55-.03,19.13,8.5,19.17,19.05v.02Z"/>
      <path class="cls-1" d="M469.93,327.22c.03,10.56-8.51,19.14-19.07,19.17-10.56.03-19.14-8.51-19.17-19.07-.03-10.56,8.51-19.14,19.07-19.17,10.55-.03,19.13,8.5,19.17,19.05v.02Z"/>
      <path class="cls-1" d="M469.93,358.1c.03,10.56-8.51,19.14-19.07,19.17-10.56.03-19.14-8.51-19.17-19.07s8.51-19.14,19.07-19.17c10.55-.03,19.13,8.5,19.17,19.05v.02Z"/>
      <path class="cls-1" d="M469.93,388.98c.03,10.56-8.51,19.14-19.07,19.17-10.56.03-19.14-8.51-19.17-19.07s8.51-19.14,19.07-19.17c10.55-.03,19.13,8.5,19.17,19.05v.02Z"/>
      <path class="cls-1" d="M469.93,419.86c.03,10.56-8.51,19.14-19.07,19.17-10.56.03-19.14-8.51-19.17-19.07s8.51-19.14,19.07-19.17c10.55-.03,19.13,8.5,19.17,19.05v.02Z"/>
      <path class="cls-1" d="M469.93,450.74c.03,10.56-8.51,19.14-19.07,19.17-10.56.03-19.14-8.51-19.17-19.07-.03-10.56,8.51-19.14,19.07-19.17,10.55-.03,19.13,8.5,19.17,19.05v.02Z"/>
      <path class="cls-1" d="M469.93,481.62c.03,10.56-8.51,19.14-19.07,19.17-10.56.03-19.14-8.51-19.17-19.07s8.51-19.14,19.07-19.17c10.55-.03,19.13,8.5,19.17,19.05v.02Z"/>
      <path class="cls-1" d="M469.93,512.5c.03,10.56-8.51,19.14-19.07,19.17-10.56.03-19.14-8.51-19.17-19.07-.03-10.56,8.51-19.14,19.07-19.17,10.55-.03,19.13,8.5,19.17,19.05v.02Z"/>
      <path class="cls-1" d="M469.93,543.38c.03,10.56-8.51,19.14-19.07,19.17-10.56.03-19.14-8.51-19.17-19.07s8.51-19.14,19.07-19.17c10.55-.03,19.13,8.5,19.17,19.05v.02Z"/>
      <path class="cls-1" d="M469.93,574.26c.03,10.56-8.51,19.14-19.07,19.17-10.56.03-19.14-8.51-19.17-19.07s8.51-19.14,19.07-19.17c10.55-.03,19.13,8.5,19.17,19.05v.02Z"/>
      <path class="cls-1" d="M469.93,605.14c.03,10.56-8.51,19.14-19.07,19.17-10.56.03-19.14-8.51-19.17-19.07s8.51-19.14,19.07-19.17c10.55-.03,19.13,8.5,19.17,19.05v.02Z"/>
      <path class="cls-1" d="M469.93,636.02c.03,10.56-8.51,19.14-19.07,19.17-10.56.03-19.14-8.51-19.17-19.07-.03-10.56,8.51-19.14,19.07-19.17,10.55-.03,19.13,8.5,19.17,19.05v.02Z"/>
      <path class="cls-1" d="M469.93,759.54c.03,10.56-8.51,19.14-19.07,19.17-10.56.03-19.14-8.51-19.17-19.07-.03-10.56,8.51-19.14,19.07-19.17,10.55-.03,19.13,8.5,19.17,19.05v.02Z"/>
      <path class="cls-1" d="M469.93,790.42c.03,10.56-8.51,19.14-19.07,19.17-10.56.03-19.14-8.51-19.17-19.07-.03-10.56,8.51-19.14,19.07-19.17,10.55-.03,19.13,8.5,19.17,19.05v.02Z"/>
      <path class="cls-1" d="M469.93,821.3c.03,10.56-8.51,19.14-19.07,19.17-10.56.03-19.14-8.51-19.17-19.07-.03-10.56,8.51-19.14,19.07-19.17,10.55-.03,19.13,8.5,19.17,19.05v.02Z"/>
      <path class="cls-1" d="M469.93,852.18c.03,10.56-8.51,19.14-19.07,19.17-10.56.03-19.14-8.51-19.17-19.07-.03-10.56,8.51-19.14,19.07-19.17,10.55-.03,19.13,8.5,19.17,19.05v.02Z"/>
      <path class="cls-1" d="M469.93,883.06c.03,10.56-8.51,19.14-19.07,19.17-10.56.03-19.14-8.51-19.17-19.07-.03-10.56,8.51-19.14,19.07-19.17,10.55-.03,19.13,8.5,19.17,19.05v.02Z"/>
      <path class="cls-1" d="M500.81,203.7c.03,10.56-8.51,19.14-19.07,19.17-10.56.03-19.14-8.51-19.17-19.07-.03-10.56,8.51-19.14,19.07-19.17,10.55-.03,19.13,8.5,19.17,19.05v.02Z"/>
      <path class="cls-1" d="M500.81,234.58c.03,10.56-8.51,19.14-19.07,19.17-10.56.03-19.14-8.51-19.17-19.07-.03-10.56,8.51-19.14,19.07-19.17,10.55-.03,19.13,8.5,19.17,19.05v.02Z"/>
      <path class="cls-1" d="M500.81,265.46c.03,10.56-8.51,19.14-19.07,19.17-10.56.03-19.14-8.51-19.17-19.07-.03-10.56,8.51-19.14,19.07-19.17,10.55-.03,19.13,8.5,19.17,19.05v.02Z"/>
      <path class="cls-1" d="M500.81,296.34c.03,10.56-8.51,19.14-19.07,19.17-10.56.03-19.14-8.51-19.17-19.07-.03-10.56,8.51-19.14,19.07-19.17,10.55-.03,19.13,8.5,19.17,19.05v.02Z"/>
      <path class="cls-1" d="M500.81,327.22c.03,10.56-8.51,19.14-19.07,19.17-10.56.03-19.14-8.51-19.17-19.07-.03-10.56,8.51-19.14,19.07-19.17,10.55-.03,19.13,8.5,19.17,19.05v.02Z"/>
      <path class="cls-1" d="M500.81,358.1c.03,10.56-8.51,19.14-19.07,19.17-10.56.03-19.14-8.51-19.17-19.07s8.51-19.14,19.07-19.17c10.55-.03,19.13,8.5,19.17,19.05v.02Z"/>
      <path class="cls-1" d="M500.81,388.98c.03,10.56-8.51,19.14-19.07,19.17-10.56.03-19.14-8.51-19.17-19.07s8.51-19.14,19.07-19.17c10.55-.03,19.13,8.5,19.17,19.05v.02Z"/>
      <path class="cls-1" d="M500.81,419.86c.03,10.56-8.51,19.14-19.07,19.17-10.56.03-19.14-8.51-19.17-19.07s8.51-19.14,19.07-19.17c10.55-.03,19.13,8.5,19.17,19.05v.02Z"/>
      <path class="cls-1" d="M500.81,450.74c.03,10.56-8.51,19.14-19.07,19.17-10.56.03-19.14-8.51-19.17-19.07-.03-10.56,8.51-19.14,19.07-19.17,10.55-.03,19.13,8.5,19.17,19.05v.02Z"/>
      <path class="cls-1" d="M500.81,481.62c.03,10.56-8.51,19.14-19.07,19.17-10.56.03-19.14-8.51-19.17-19.07s8.51-19.14,19.07-19.17c10.55-.03,19.13,8.5,19.17,19.05v.02Z"/>
      <path class="cls-1" d="M500.81,512.5c.03,10.56-8.51,19.14-19.07,19.17-10.56.03-19.14-8.51-19.17-19.07-.03-10.56,8.51-19.14,19.07-19.17,10.55-.03,19.13,8.5,19.17,19.05v.02Z"/>
      <path class="cls-1" d="M500.81,543.38c.03,10.56-8.51,19.14-19.07,19.17-10.56.03-19.14-8.51-19.17-19.07s8.51-19.14,19.07-19.17c10.55-.03,19.13,8.5,19.17,19.05v.02Z"/>
      <path class="cls-1" d="M500.81,574.26c.03,10.56-8.51,19.14-19.07,19.17-10.56.03-19.14-8.51-19.17-19.07s8.51-19.14,19.07-19.17c10.55-.03,19.13,8.5,19.17,19.05v.02Z"/>
      <path class="cls-1" d="M500.81,605.14c.03,10.56-8.51,19.14-19.07,19.17-10.56.03-19.14-8.51-19.17-19.07s8.51-19.14,19.07-19.17c10.55-.03,19.13,8.5,19.17,19.05v.02Z"/>
      <path class="cls-1" d="M500.81,636.02c.03,10.56-8.51,19.14-19.07,19.17-10.56.03-19.14-8.51-19.17-19.07-.03-10.56,8.51-19.14,19.07-19.17,10.55-.03,19.13,8.5,19.17,19.05v.02Z"/>
      <path class="cls-1" d="M500.58,728.66c0,10.43-8.46,18.88-18.89,18.87-10.43,0-18.88-8.46-18.87-18.89,0-10.43,8.46-18.88,18.89-18.87,10.42,0,18.87,8.45,18.87,18.87v.02Z"/>
      <path class="cls-1" d="M500.81,759.54c.03,10.56-8.51,19.14-19.07,19.17-10.56.03-19.14-8.51-19.17-19.07-.03-10.56,8.51-19.14,19.07-19.17,10.55-.03,19.13,8.5,19.17,19.05v.02Z"/>
      <path class="cls-1" d="M500.81,790.42c.03,10.56-8.51,19.14-19.07,19.17-10.56.03-19.14-8.51-19.17-19.07-.03-10.56,8.51-19.14,19.07-19.17,10.55-.03,19.13,8.5,19.17,19.05v.02Z"/>
      <path class="cls-1" d="M500.81,821.3c.03,10.56-8.51,19.14-19.07,19.17-10.56.03-19.14-8.51-19.17-19.07-.03-10.56,8.51-19.14,19.07-19.17,10.55-.03,19.13,8.5,19.17,19.05v.02Z"/>
      <path class="cls-1" d="M500.81,852.18c.03,10.56-8.51,19.14-19.07,19.17-10.56.03-19.14-8.51-19.17-19.07-.03-10.56,8.51-19.14,19.07-19.17,10.55-.03,19.13,8.5,19.17,19.05v.02Z"/>
      <path class="cls-1" d="M500.81,883.06c.03,10.56-8.51,19.14-19.07,19.17-10.56.03-19.14-8.51-19.17-19.07-.03-10.56,8.51-19.14,19.07-19.17,10.55-.03,19.13,8.5,19.17,19.05v.02Z"/>
      <path class="cls-1" d="M531.69,203.7c0,10.56-8.57,19.11-19.13,19.11-10.56,0-19.11-8.57-19.11-19.13,0-10.56,8.57-19.11,19.13-19.11,10.55,0,19.1,8.56,19.11,19.11v.02Z"/>
      <path class="cls-1" d="M531.69,234.58c0,10.56-8.57,19.11-19.13,19.11-10.56,0-19.11-8.57-19.11-19.13,0-10.56,8.57-19.11,19.13-19.11,10.55,0,19.1,8.56,19.11,19.11v.02Z"/>
      <path class="cls-1" d="M531.69,265.46c0,10.56-8.57,19.11-19.13,19.11s-19.11-8.57-19.11-19.13c0-10.56,8.57-19.11,19.13-19.11,10.55,0,19.1,8.56,19.11,19.11v.02Z"/>
      <path class="cls-1" d="M531.69,296.34c0,10.56-8.57,19.11-19.13,19.11s-19.11-8.57-19.11-19.13c0-10.56,8.57-19.11,19.13-19.11,10.55,0,19.1,8.56,19.11,19.11v.02Z"/>
      <path class="cls-1" d="M531.69,327.22c0,10.56-8.57,19.11-19.13,19.11s-19.11-8.57-19.11-19.13c0-10.56,8.57-19.11,19.13-19.11,10.55,0,19.1,8.56,19.11,19.11v.02Z"/>
      <path class="cls-1" d="M531.69,358.1c0,10.56-8.57,19.11-19.13,19.11-10.56,0-19.11-8.57-19.11-19.13,0-10.56,8.57-19.11,19.13-19.11,10.55,0,19.1,8.56,19.11,19.11v.02Z"/>
      <path class="cls-1" d="M531.69,388.98c0,10.56-8.57,19.11-19.13,19.11-10.56,0-19.11-8.57-19.11-19.13,0-10.56,8.57-19.11,19.13-19.11,10.55,0,19.1,8.56,19.11,19.11v.02Z"/>
      <path class="cls-1" d="M531.69,419.86c0,10.56-8.57,19.11-19.13,19.11-10.56,0-19.11-8.57-19.11-19.13,0-10.56,8.57-19.11,19.13-19.11,10.55,0,19.1,8.56,19.11,19.11v.02Z"/>
      <path class="cls-1" d="M531.69,450.74c0,10.56-8.57,19.11-19.13,19.11s-19.11-8.57-19.11-19.13c0-10.56,8.57-19.11,19.13-19.11,10.55,0,19.1,8.56,19.11,19.11v.02Z"/>
      <path class="cls-1" d="M531.69,481.62c0,10.56-8.57,19.11-19.13,19.11-10.56,0-19.11-8.57-19.11-19.13,0-10.56,8.57-19.11,19.13-19.11,10.55,0,19.1,8.56,19.11,19.11v.02Z"/>
      <path class="cls-1" d="M531.69,512.5c0,10.56-8.57,19.11-19.13,19.11-10.56,0-19.11-8.57-19.11-19.13,0-10.56,8.57-19.11,19.13-19.11,10.55,0,19.1,8.56,19.11,19.11v.02Z"/>
      <path class="cls-1" d="M531.69,543.38c0,10.56-8.57,19.11-19.13,19.11s-19.11-8.57-19.11-19.13,8.57-19.11,19.13-19.11c10.55,0,19.1,8.56,19.11,19.11v.02Z"/>
      <path class="cls-1" d="M531.69,574.26c0,10.56-8.57,19.11-19.13,19.11s-19.11-8.57-19.11-19.13,8.57-19.11,19.13-19.11c10.55,0,19.1,8.56,19.11,19.11v.02Z"/>
      <path class="cls-1" d="M531.69,605.14c0,10.56-8.57,19.11-19.13,19.11s-19.11-8.57-19.11-19.13,8.57-19.11,19.13-19.11c10.55,0,19.1,8.56,19.11,19.11v.02Z"/>
      <path class="cls-1" d="M531.69,636.02c0,10.56-8.57,19.11-19.13,19.11-10.56,0-19.11-8.57-19.11-19.13,0-10.56,8.57-19.11,19.13-19.11,10.55,0,19.1,8.56,19.11,19.11v.02Z"/>
      <path class="cls-1" d="M531.46,728.66c0,10.43-8.46,18.88-18.89,18.87-10.43,0-18.88-8.46-18.87-18.89,0-10.43,8.46-18.88,18.89-18.87,10.42,0,18.87,8.45,18.87,18.87v.02Z"/>
      <path class="cls-1" d="M531.69,759.54c0,10.56-8.57,19.11-19.13,19.11-10.56,0-19.11-8.57-19.11-19.13,0-10.56,8.57-19.11,19.13-19.11,10.55,0,19.1,8.56,19.11,19.11v.02Z"/>
      <path class="cls-1" d="M531.69,790.42c0,10.56-8.57,19.11-19.13,19.11-10.56,0-19.11-8.57-19.11-19.13,0-10.56,8.57-19.11,19.13-19.11,10.55,0,19.1,8.56,19.11,19.11v.02Z"/>
      <path class="cls-1" d="M531.69,821.3c0,10.56-8.57,19.11-19.13,19.11-10.56,0-19.11-8.57-19.11-19.13,0-10.56,8.57-19.11,19.13-19.11,10.55,0,19.1,8.56,19.11,19.11v.02Z"/>
      <path class="cls-1" d="M531.69,852.18c0,10.56-8.57,19.11-19.13,19.11-10.56,0-19.11-8.57-19.11-19.13,0-10.56,8.57-19.11,19.13-19.11,10.55,0,19.1,8.56,19.11,19.11v.02Z"/>
      <path class="cls-1" d="M531.69,883.06c0,10.56-8.57,19.11-19.13,19.11-10.56,0-19.11-8.57-19.11-19.13,0-10.56,8.57-19.11,19.13-19.11,10.55,0,19.1,8.56,19.11,19.11v.02Z"/>
      <path class="cls-1" d="M562.57,203.7c0,10.56-8.57,19.11-19.13,19.11-10.56,0-19.11-8.57-19.11-19.13,0-10.56,8.57-19.11,19.13-19.11,10.55,0,19.1,8.56,19.11,19.11v.02Z"/>
      <path class="cls-1" d="M562.57,234.58c0,10.56-8.57,19.11-19.13,19.11-10.56,0-19.11-8.57-19.11-19.13,0-10.56,8.57-19.11,19.13-19.11,10.55,0,19.1,8.56,19.11,19.11v.02Z"/>
      <path class="cls-1" d="M562.57,265.46c0,10.56-8.57,19.11-19.13,19.11s-19.11-8.57-19.11-19.13c0-10.56,8.57-19.11,19.13-19.11,10.55,0,19.1,8.56,19.11,19.11v.02Z"/>
      <path class="cls-1" d="M562.57,296.34c0,10.56-8.57,19.11-19.13,19.11s-19.11-8.57-19.11-19.13c0-10.56,8.57-19.11,19.13-19.11,10.55,0,19.1,8.56,19.11,19.11v.02Z"/>
      <path class="cls-1" d="M562.57,327.22c0,10.56-8.57,19.11-19.13,19.11s-19.11-8.57-19.11-19.13c0-10.56,8.57-19.11,19.13-19.11,10.55,0,19.1,8.56,19.11,19.11v.02Z"/>
      <path class="cls-1" d="M562.57,358.1c0,10.56-8.57,19.11-19.13,19.11-10.56,0-19.11-8.57-19.11-19.13,0-10.56,8.57-19.11,19.13-19.11,10.55,0,19.1,8.56,19.11,19.11v.02Z"/>
      <path class="cls-1" d="M562.57,388.98c0,10.56-8.57,19.11-19.13,19.11-10.56,0-19.11-8.57-19.11-19.13,0-10.56,8.57-19.11,19.13-19.11,10.55,0,19.1,8.56,19.11,19.11v.02Z"/>
      <path class="cls-1" d="M562.57,419.86c0,10.56-8.57,19.11-19.13,19.11-10.56,0-19.11-8.57-19.11-19.13,0-10.56,8.57-19.11,19.13-19.11,10.55,0,19.1,8.56,19.11,19.11v.02Z"/>
      <path class="cls-1" d="M562.57,450.74c0,10.56-8.57,19.11-19.13,19.11s-19.11-8.57-19.11-19.13c0-10.56,8.57-19.11,19.13-19.11,10.55,0,19.1,8.56,19.11,19.11v.02Z"/>
      <path class="cls-1" d="M562.57,481.62c0,10.56-8.57,19.11-19.13,19.11-10.56,0-19.11-8.57-19.11-19.13,0-10.56,8.57-19.11,19.13-19.11,10.55,0,19.1,8.56,19.11,19.11v.02Z"/>
      <path class="cls-1" d="M562.57,512.5c0,10.56-8.57,19.11-19.13,19.11-10.56,0-19.11-8.57-19.11-19.13,0-10.56,8.57-19.11,19.13-19.11,10.55,0,19.1,8.56,19.11,19.11v.02Z"/>
      <path class="cls-1" d="M562.57,543.38c0,10.56-8.57,19.11-19.13,19.11s-19.11-8.57-19.11-19.13,8.57-19.11,19.13-19.11c10.55,0,19.1,8.56,19.11,19.11v.02Z"/>
      <path class="cls-1" d="M562.57,574.26c0,10.56-8.57,19.11-19.13,19.11s-19.11-8.57-19.11-19.13,8.57-19.11,19.13-19.11c10.55,0,19.1,8.56,19.11,19.11v.02Z"/>
      <path class="cls-1" d="M562.57,605.14c0,10.56-8.57,19.11-19.13,19.11s-19.11-8.57-19.11-19.13,8.57-19.11,19.13-19.11c10.55,0,19.1,8.56,19.11,19.11v.02Z"/>
      <path class="cls-1" d="M562.57,636.02c0,10.56-8.57,19.11-19.13,19.11-10.56,0-19.11-8.57-19.11-19.13,0-10.56,8.57-19.11,19.13-19.11,10.55,0,19.1,8.56,19.11,19.11v.02Z"/>
      <path class="cls-1" d="M562.57,759.54c0,10.56-8.57,19.11-19.13,19.11-10.56,0-19.11-8.57-19.11-19.13,0-10.56,8.57-19.11,19.13-19.11,10.55,0,19.1,8.56,19.11,19.11v.02Z"/>
      <path class="cls-1" d="M562.57,790.42c0,10.56-8.57,19.11-19.13,19.11-10.56,0-19.11-8.57-19.11-19.13,0-10.56,8.57-19.11,19.13-19.11,10.55,0,19.1,8.56,19.11,19.11v.02Z"/>
      <path class="cls-1" d="M562.57,821.3c0,10.56-8.57,19.11-19.13,19.11-10.56,0-19.11-8.57-19.11-19.13,0-10.56,8.57-19.11,19.13-19.11,10.55,0,19.1,8.56,19.11,19.11v.02Z"/>
      <path class="cls-1" d="M562.57,852.18c0,10.56-8.57,19.11-19.13,19.11-10.56,0-19.11-8.57-19.11-19.13,0-10.56,8.57-19.11,19.13-19.11,10.55,0,19.1,8.56,19.11,19.11v.02Z"/>
      <path class="cls-1" d="M562.57,883.06c0,10.56-8.57,19.11-19.13,19.11-10.56,0-19.11-8.57-19.11-19.13,0-10.56,8.57-19.11,19.13-19.11,10.55,0,19.1,8.56,19.11,19.11v.02Z"/>
      <path class="cls-1" d="M593.45,203.7c0,10.56-8.57,19.11-19.13,19.11-10.56,0-19.11-8.57-19.11-19.13,0-10.56,8.57-19.11,19.13-19.11,10.55,0,19.1,8.56,19.11,19.11v.02Z"/>
      <path class="cls-1" d="M593.45,234.58c0,10.56-8.57,19.11-19.13,19.11-10.56,0-19.11-8.57-19.11-19.13,0-10.56,8.57-19.11,19.13-19.11,10.55,0,19.1,8.56,19.11,19.11v.02Z"/>
      <path class="cls-1" d="M593.45,265.46c0,10.56-8.57,19.11-19.13,19.11s-19.11-8.57-19.11-19.13c0-10.56,8.57-19.11,19.13-19.11,10.55,0,19.1,8.56,19.11,19.11v.02Z"/>
      <path class="cls-1" d="M593.45,296.34c0,10.56-8.57,19.11-19.13,19.11s-19.11-8.57-19.11-19.13c0-10.56,8.57-19.11,19.13-19.11,10.55,0,19.1,8.56,19.11,19.11v.02Z"/>
      <path class="cls-1" d="M593.45,327.22c0,10.56-8.57,19.11-19.13,19.11s-19.11-8.57-19.11-19.13c0-10.56,8.57-19.11,19.13-19.11,10.55,0,19.1,8.56,19.11,19.11v.02Z"/>
      <path class="cls-1" d="M593.45,358.1c0,10.56-8.57,19.11-19.13,19.11-10.56,0-19.11-8.57-19.11-19.13,0-10.56,8.57-19.11,19.13-19.11,10.55,0,19.1,8.56,19.11,19.11v.02Z"/>
      <path class="cls-1" d="M593.45,388.98c0,10.56-8.57,19.11-19.13,19.11-10.56,0-19.11-8.57-19.11-19.13,0-10.56,8.57-19.11,19.13-19.11,10.55,0,19.1,8.56,19.11,19.11v.02Z"/>
      <path class="cls-1" d="M593.45,419.86c0,10.56-8.57,19.11-19.13,19.11-10.56,0-19.11-8.57-19.11-19.13,0-10.56,8.57-19.11,19.13-19.11,10.55,0,19.1,8.56,19.11,19.11v.02Z"/>
      <path class="cls-1" d="M593.45,450.74c0,10.56-8.57,19.11-19.13,19.11s-19.11-8.57-19.11-19.13c0-10.56,8.57-19.11,19.13-19.11,10.55,0,19.1,8.56,19.11,19.11v.02Z"/>
      <path class="cls-1" d="M593.45,481.62c0,10.56-8.57,19.11-19.13,19.11-10.56,0-19.11-8.57-19.11-19.13,0-10.56,8.57-19.11,19.13-19.11,10.55,0,19.1,8.56,19.11,19.11v.02Z"/>
      <path class="cls-1" d="M593.45,512.5c0,10.56-8.57,19.11-19.13,19.11-10.56,0-19.11-8.57-19.11-19.13,0-10.56,8.57-19.11,19.13-19.11,10.55,0,19.1,8.56,19.11,19.11v.02Z"/>
      <path class="cls-1" d="M593.45,543.38c0,10.56-8.57,19.11-19.13,19.11s-19.11-8.57-19.11-19.13,8.57-19.11,19.13-19.11c10.55,0,19.1,8.56,19.11,19.11v.02Z"/>
      <path class="cls-1" d="M593.45,574.26c0,10.56-8.57,19.11-19.13,19.11s-19.11-8.57-19.11-19.13,8.57-19.11,19.13-19.11c10.55,0,19.1,8.56,19.11,19.11v.02Z"/>
      <path class="cls-1" d="M593.45,605.14c0,10.56-8.57,19.11-19.13,19.11s-19.11-8.57-19.11-19.13,8.57-19.11,19.13-19.11c10.55,0,19.1,8.56,19.11,19.11v.02Z"/>
      <path class="cls-1" d="M593.45,636.02c0,10.56-8.57,19.11-19.13,19.11-10.56,0-19.11-8.57-19.11-19.13,0-10.56,8.57-19.11,19.13-19.11,10.55,0,19.1,8.56,19.11,19.11v.02Z"/>
      <path class="cls-1" d="M593.45,790.42c0,10.56-8.57,19.11-19.13,19.11-10.56,0-19.11-8.57-19.11-19.13,0-10.56,8.57-19.11,19.13-19.11,10.55,0,19.1,8.56,19.11,19.11v.02Z"/>
      <path class="cls-1" d="M593.45,821.3c0,10.56-8.57,19.11-19.13,19.11-10.56,0-19.11-8.57-19.11-19.13,0-10.56,8.57-19.11,19.13-19.11,10.55,0,19.1,8.56,19.11,19.11v.02Z"/>
      <path class="cls-1" d="M593.45,852.18c0,10.56-8.57,19.11-19.13,19.11-10.56,0-19.11-8.57-19.11-19.13,0-10.56,8.57-19.11,19.13-19.11,10.55,0,19.1,8.56,19.11,19.11v.02Z"/>
      <path class="cls-1" d="M624.33,203.7c0,10.56-8.57,19.11-19.13,19.11-10.56,0-19.11-8.57-19.11-19.13,0-10.56,8.57-19.11,19.13-19.11,10.55,0,19.1,8.56,19.11,19.11v.02Z"/>
      <path class="cls-1" d="M624.33,234.58c0,10.56-8.57,19.11-19.13,19.11-10.56,0-19.11-8.57-19.11-19.13,0-10.56,8.57-19.11,19.13-19.11,10.55,0,19.1,8.56,19.11,19.11v.02Z"/>
      <path class="cls-1" d="M624.33,265.46c0,10.56-8.57,19.11-19.13,19.11s-19.11-8.57-19.11-19.13c0-10.56,8.57-19.11,19.13-19.11,10.55,0,19.1,8.56,19.11,19.11v.02Z"/>
      <path class="cls-1" d="M624.33,296.34c0,10.56-8.57,19.11-19.13,19.11s-19.11-8.57-19.11-19.13c0-10.56,8.57-19.11,19.13-19.11,10.55,0,19.1,8.56,19.11,19.11v.02Z"/>
      <path class="cls-1" d="M624.33,327.22c0,10.56-8.57,19.11-19.13,19.11s-19.11-8.57-19.11-19.13c0-10.56,8.57-19.11,19.13-19.11,10.55,0,19.1,8.56,19.11,19.11v.02Z"/>
      <path class="cls-1" d="M624.33,358.1c0,10.56-8.57,19.11-19.13,19.11-10.56,0-19.11-8.57-19.11-19.13,0-10.56,8.57-19.11,19.13-19.11,10.55,0,19.1,8.56,19.11,19.11v.02Z"/>
      <path class="cls-1" d="M624.33,388.98c0,10.56-8.57,19.11-19.13,19.11-10.56,0-19.11-8.57-19.11-19.13,0-10.56,8.57-19.11,19.13-19.11,10.55,0,19.1,8.56,19.11,19.11v.02Z"/>
      <path class="cls-1" d="M624.33,419.86c0,10.56-8.57,19.11-19.13,19.11-10.56,0-19.11-8.57-19.11-19.13,0-10.56,8.57-19.11,19.13-19.11,10.55,0,19.1,8.56,19.11,19.11v.02Z"/>
      <path class="cls-1" d="M624.33,450.74c0,10.56-8.57,19.11-19.13,19.11s-19.11-8.57-19.11-19.13c0-10.56,8.57-19.11,19.13-19.11,10.55,0,19.1,8.56,19.11,19.11v.02Z"/>
      <path class="cls-1" d="M624.33,481.62c0,10.56-8.57,19.11-19.13,19.11-10.56,0-19.11-8.57-19.11-19.13,0-10.56,8.57-19.11,19.13-19.11,10.55,0,19.1,8.56,19.11,19.11v.02Z"/>
      <path class="cls-1" d="M624.33,512.5c0,10.56-8.57,19.11-19.13,19.11-10.56,0-19.11-8.57-19.11-19.13,0-10.56,8.57-19.11,19.13-19.11,10.55,0,19.1,8.56,19.11,19.11v.02Z"/>
      <path class="cls-1" d="M624.33,543.38c0,10.56-8.57,19.11-19.13,19.11s-19.11-8.57-19.11-19.13,8.57-19.11,19.13-19.11c10.55,0,19.1,8.56,19.11,19.11v.02Z"/>
      <path class="cls-1" d="M624.33,574.26c0,10.56-8.57,19.11-19.13,19.11s-19.11-8.57-19.11-19.13,8.57-19.11,19.13-19.11c10.55,0,19.1,8.56,19.11,19.11v.02Z"/>
      <path class="cls-1" d="M624.33,605.14c0,10.56-8.57,19.11-19.13,19.11s-19.11-8.57-19.11-19.13,8.57-19.11,19.13-19.11c10.55,0,19.1,8.56,19.11,19.11v.02Z"/>
      <path class="cls-1" d="M624.33,636.02c0,10.56-8.57,19.11-19.13,19.11-10.56,0-19.11-8.57-19.11-19.13,0-10.56,8.57-19.11,19.13-19.11,10.55,0,19.1,8.56,19.11,19.11v.02Z"/>
      <path class="cls-1" d="M655.21,203.7c0,10.56-8.57,19.11-19.13,19.11-10.56,0-19.11-8.57-19.11-19.13,0-10.56,8.57-19.11,19.13-19.11,10.55,0,19.1,8.56,19.11,19.11v.02Z"/>
      <path class="cls-1" d="M655.21,234.58c0,10.56-8.57,19.11-19.13,19.11-10.56,0-19.11-8.57-19.11-19.13,0-10.56,8.57-19.11,19.13-19.11,10.55,0,19.1,8.56,19.11,19.11v.02Z"/>
      <path class="cls-1" d="M655.21,265.46c0,10.56-8.57,19.11-19.13,19.11s-19.11-8.57-19.11-19.13c0-10.56,8.57-19.11,19.13-19.11,10.55,0,19.1,8.56,19.11,19.11v.02Z"/>
      <path class="cls-1" d="M655.21,296.34c0,10.56-8.57,19.11-19.13,19.11s-19.11-8.57-19.11-19.13c0-10.56,8.57-19.11,19.13-19.11,10.55,0,19.1,8.56,19.11,19.11v.02Z"/>
      <path class="cls-1" d="M655.21,327.22c0,10.56-8.57,19.11-19.13,19.11s-19.11-8.57-19.11-19.13c0-10.56,8.57-19.11,19.13-19.11,10.55,0,19.1,8.56,19.11,19.11v.02Z"/>
      <path class="cls-1" d="M655.21,358.1c0,10.56-8.57,19.11-19.13,19.11-10.56,0-19.11-8.57-19.11-19.13,0-10.56,8.57-19.11,19.13-19.11,10.55,0,19.1,8.56,19.11,19.11v.02Z"/>
      <path class="cls-1" d="M655.21,388.98c0,10.56-8.57,19.11-19.13,19.11-10.56,0-19.11-8.57-19.11-19.13,0-10.56,8.57-19.11,19.13-19.11,10.55,0,19.1,8.56,19.11,19.11v.02Z"/>
      <path class="cls-1" d="M655.21,419.86c0,10.56-8.57,19.11-19.13,19.11-10.56,0-19.11-8.57-19.11-19.13,0-10.56,8.57-19.11,19.13-19.11,10.55,0,19.1,8.56,19.11,19.11v.02Z"/>
      <path class="cls-1" d="M655.21,450.74c0,10.56-8.57,19.11-19.13,19.11s-19.11-8.57-19.11-19.13c0-10.56,8.57-19.11,19.13-19.11,10.55,0,19.1,8.56,19.11,19.11v.02Z"/>
      <path class="cls-1" d="M655.21,481.62c0,10.56-8.57,19.11-19.13,19.11-10.56,0-19.11-8.57-19.11-19.13,0-10.56,8.57-19.11,19.13-19.11,10.55,0,19.1,8.56,19.11,19.11v.02Z"/>
      <path class="cls-1" d="M655.21,512.5c0,10.56-8.57,19.11-19.13,19.11-10.56,0-19.11-8.57-19.11-19.13,0-10.56,8.57-19.11,19.13-19.11,10.55,0,19.1,8.56,19.11,19.11v.02Z"/>
      <path class="cls-1" d="M655.21,543.38c0,10.56-8.57,19.11-19.13,19.11s-19.11-8.57-19.11-19.13,8.57-19.11,19.13-19.11c10.55,0,19.1,8.56,19.11,19.11v.02Z"/>
      <path class="cls-1" d="M655.21,574.26c0,10.56-8.57,19.11-19.13,19.11s-19.11-8.57-19.11-19.13,8.57-19.11,19.13-19.11c10.55,0,19.1,8.56,19.11,19.11v.02Z"/>
      <path class="cls-1" d="M655.21,605.14c0,10.56-8.57,19.11-19.13,19.11s-19.11-8.57-19.11-19.13,8.57-19.11,19.13-19.11c10.55,0,19.1,8.56,19.11,19.11v.02Z"/>
      <path class="cls-1" d="M655.21,636.02c0,10.56-8.57,19.11-19.13,19.11-10.56,0-19.11-8.57-19.11-19.13,0-10.56,8.57-19.11,19.13-19.11,10.55,0,19.1,8.56,19.11,19.11v.02Z"/>
      <path class="cls-1" d="M686.09,203.7c.06,10.56-8.45,19.17-19,19.23-10.56.06-19.17-8.45-19.23-19s8.45-19.17,19-19.23c10.55-.06,19.16,8.43,19.23,18.99v.02Z"/>
      <path class="cls-1" d="M686.09,234.58c.06,10.56-8.45,19.17-19,19.23s-19.17-8.45-19.23-19c-.06-10.56,8.45-19.17,19-19.23,10.55-.06,19.16,8.43,19.23,18.99v.02Z"/>
      <path class="cls-1" d="M686.09,265.46c.06,10.56-8.45,19.17-19,19.23-10.56.06-19.17-8.45-19.23-19-.06-10.56,8.45-19.17,19-19.23,10.55-.06,19.16,8.44,19.23,18.99v.02Z"/>
      <path class="cls-1" d="M686.09,296.34c.06,10.56-8.45,19.17-19,19.23-10.56.06-19.17-8.45-19.23-19-.06-10.56,8.45-19.17,19-19.23,10.55-.06,19.16,8.44,19.23,18.99v.02Z"/>
      <path class="cls-1" d="M686.09,327.22c.06,10.56-8.45,19.17-19,19.23-10.56.06-19.17-8.45-19.23-19-.06-10.56,8.45-19.17,19-19.23,10.55-.06,19.16,8.44,19.23,18.99v.02Z"/>
      <path class="cls-1" d="M686.09,358.1c.06,10.56-8.45,19.17-19,19.23s-19.17-8.45-19.23-19c-.06-10.56,8.45-19.17,19-19.23,10.55-.06,19.16,8.43,19.23,18.99v.02Z"/>
      <path class="cls-1" d="M686.09,388.98c.06,10.56-8.45,19.17-19,19.23s-19.17-8.45-19.23-19c-.06-10.56,8.45-19.17,19-19.23,10.55-.06,19.16,8.43,19.23,18.99v.02Z"/>
      <path class="cls-1" d="M686.09,419.86c.06,10.56-8.45,19.17-19,19.23s-19.17-8.45-19.23-19c-.06-10.56,8.45-19.17,19-19.23,10.55-.06,19.16,8.43,19.23,18.99v.02Z"/>
      <path class="cls-1" d="M686.09,450.74c.06,10.56-8.45,19.17-19,19.23-10.56.06-19.17-8.45-19.23-19-.06-10.56,8.45-19.17,19-19.23,10.55-.06,19.16,8.44,19.23,18.99v.02Z"/>
      <path class="cls-1" d="M686.09,481.62c.06,10.56-8.45,19.17-19,19.23-10.56.06-19.17-8.45-19.23-19-.06-10.56,8.45-19.17,19-19.23,10.55-.06,19.16,8.44,19.23,18.99v.02Z"/>
      <path class="cls-1" d="M686.09,512.5c.06,10.56-8.45,19.17-19,19.23-10.56.06-19.17-8.45-19.23-19-.06-10.56,8.45-19.17,19-19.23,10.55-.06,19.16,8.43,19.23,18.99v.02Z"/>
      <path class="cls-1" d="M686.09,543.38c.06,10.56-8.45,19.17-19.01,19.23-10.56.06-19.17-8.45-19.23-19.01-.06-10.56,8.45-19.17,19-19.23,10.55-.06,19.16,8.44,19.23,18.99v.02Z"/>
      <path class="cls-1" d="M686.09,574.26c.06,10.56-8.45,19.17-19.01,19.23-10.56.06-19.17-8.45-19.23-19.01-.06-10.56,8.45-19.17,19-19.23,10.55-.06,19.16,8.44,19.23,18.99v.02Z"/>
      <path class="cls-1" d="M686.09,605.14c.06,10.56-8.45,19.17-19.01,19.23-10.56.06-19.17-8.45-19.23-19.01-.06-10.56,8.45-19.17,19-19.23,10.55-.06,19.16,8.44,19.23,18.99v.02Z"/>
      <path class="cls-1" d="M686.09,636.02c.06,10.56-8.45,19.17-19,19.23-10.56.06-19.17-8.45-19.23-19-.06-10.56,8.45-19.17,19-19.23,10.55-.06,19.16,8.43,19.23,18.99v.02Z"/>
      <path class="cls-1" d="M716.97,203.7c0,10.56-8.57,19.11-19.13,19.11-10.56,0-19.11-8.57-19.11-19.13s8.57-19.11,19.13-19.11c10.55,0,19.1,8.56,19.11,19.11v.02Z"/>
      <path class="cls-1" d="M716.97,234.58c0,10.56-8.57,19.11-19.13,19.11-10.56,0-19.11-8.57-19.11-19.13,0-10.56,8.57-19.11,19.13-19.11,10.55,0,19.1,8.56,19.11,19.11v.02Z"/>
      <path class="cls-1" d="M716.97,265.46c0,10.56-8.57,19.11-19.13,19.11s-19.11-8.57-19.11-19.13,8.57-19.11,19.13-19.11c10.55,0,19.1,8.56,19.11,19.11v.02Z"/>
      <path class="cls-1" d="M716.97,296.34c0,10.56-8.57,19.11-19.13,19.11s-19.11-8.57-19.11-19.13,8.57-19.11,19.13-19.11c10.55,0,19.1,8.56,19.11,19.11v.02Z"/>
      <path class="cls-1" d="M716.97,327.22c0,10.56-8.57,19.11-19.13,19.11s-19.11-8.57-19.11-19.13,8.57-19.11,19.13-19.11c10.55,0,19.1,8.56,19.11,19.11v.02Z"/>
      <path class="cls-1" d="M716.97,358.1c0,10.56-8.57,19.11-19.13,19.11-10.56,0-19.11-8.57-19.11-19.13s8.57-19.11,19.13-19.11c10.55,0,19.1,8.56,19.11,19.11v.02Z"/>
      <path class="cls-1" d="M716.97,388.98c0,10.56-8.57,19.11-19.13,19.11-10.56,0-19.11-8.57-19.11-19.13s8.57-19.11,19.13-19.11c10.55,0,19.1,8.56,19.11,19.11v.02Z"/>
      <path class="cls-1" d="M716.97,419.86c0,10.56-8.57,19.11-19.13,19.11-10.56,0-19.11-8.57-19.11-19.13s8.57-19.11,19.13-19.11c10.55,0,19.1,8.56,19.11,19.11v.02Z"/>
      <path class="cls-1" d="M716.97,450.74c0,10.56-8.57,19.11-19.13,19.11s-19.11-8.57-19.11-19.13,8.57-19.11,19.13-19.11c10.55,0,19.1,8.56,19.11,19.11v.02Z"/>
      <path class="cls-1" d="M716.97,481.62c0,10.56-8.57,19.11-19.13,19.11-10.56,0-19.11-8.57-19.11-19.13,0-10.56,8.57-19.11,19.13-19.11,10.55,0,19.1,8.56,19.11,19.11v.02Z"/>
      <path class="cls-1" d="M716.97,512.5c0,10.56-8.57,19.11-19.13,19.11-10.56,0-19.11-8.57-19.11-19.13s8.57-19.11,19.13-19.11c10.55,0,19.1,8.56,19.11,19.11v.02Z"/>
      <path class="cls-1" d="M716.97,543.38c0,10.56-8.57,19.11-19.13,19.11s-19.11-8.57-19.11-19.13,8.57-19.11,19.13-19.11c10.55,0,19.1,8.56,19.11,19.11v.02Z"/>
      <path class="cls-1" d="M716.97,574.26c0,10.56-8.57,19.11-19.13,19.11s-19.11-8.57-19.11-19.13,8.57-19.11,19.13-19.11c10.55,0,19.1,8.56,19.11,19.11v.02Z"/>
      <path class="cls-1" d="M716.97,605.14c0,10.56-8.57,19.11-19.13,19.11s-19.11-8.57-19.11-19.13,8.57-19.11,19.13-19.11c10.55,0,19.1,8.56,19.11,19.11v.02Z"/>
      <path class="cls-1" d="M716.97,636.02c0,10.56-8.57,19.11-19.13,19.11-10.56,0-19.11-8.57-19.11-19.13s8.57-19.11,19.13-19.11c10.55,0,19.1,8.56,19.11,19.11v.02Z"/>
      <path class="cls-1" d="M747.85,203.7c0,10.56-8.57,19.11-19.13,19.11-10.56,0-19.11-8.57-19.11-19.13s8.57-19.11,19.13-19.11c10.55,0,19.1,8.56,19.11,19.11v.02Z"/>
      <path class="cls-1" d="M747.85,234.58c0,10.56-8.57,19.11-19.13,19.11-10.56,0-19.11-8.57-19.11-19.13,0-10.56,8.57-19.11,19.13-19.11,10.55,0,19.1,8.56,19.11,19.11v.02Z"/>
      <path class="cls-1" d="M747.85,265.46c0,10.56-8.57,19.11-19.13,19.11s-19.11-8.57-19.11-19.13,8.57-19.11,19.13-19.11c10.55,0,19.1,8.56,19.11,19.11v.02Z"/>
      <path class="cls-1" d="M747.85,296.34c0,10.56-8.57,19.11-19.13,19.11s-19.11-8.57-19.11-19.13,8.57-19.11,19.13-19.11c10.55,0,19.1,8.56,19.11,19.11v.02Z"/>
      <path class="cls-1" d="M747.85,327.22c0,10.56-8.57,19.11-19.13,19.11s-19.11-8.57-19.11-19.13,8.57-19.11,19.13-19.11c10.55,0,19.1,8.56,19.11,19.11v.02Z"/>
      <path class="cls-1" d="M747.85,358.1c0,10.56-8.57,19.11-19.13,19.11-10.56,0-19.11-8.57-19.11-19.13s8.57-19.11,19.13-19.11c10.55,0,19.1,8.56,19.11,19.11v.02Z"/>
      <path class="cls-1" d="M747.85,388.98c0,10.56-8.57,19.11-19.13,19.11-10.56,0-19.11-8.57-19.11-19.13s8.57-19.11,19.13-19.11c10.55,0,19.1,8.56,19.11,19.11v.02Z"/>
      <path class="cls-1" d="M747.85,419.86c0,10.56-8.57,19.11-19.13,19.11-10.56,0-19.11-8.57-19.11-19.13s8.57-19.11,19.13-19.11c10.55,0,19.1,8.56,19.11,19.11v.02Z"/>
      <path class="cls-1" d="M747.85,450.74c0,10.56-8.57,19.11-19.13,19.11s-19.11-8.57-19.11-19.13,8.57-19.11,19.13-19.11c10.55,0,19.1,8.56,19.11,19.11v.02Z"/>
      <path class="cls-1" d="M747.85,481.62c0,10.56-8.57,19.11-19.13,19.11-10.56,0-19.11-8.57-19.11-19.13,0-10.56,8.57-19.11,19.13-19.11,10.55,0,19.1,8.56,19.11,19.11v.02Z"/>
      <path class="cls-1" d="M747.85,512.5c0,10.56-8.57,19.11-19.13,19.11-10.56,0-19.11-8.57-19.11-19.13s8.57-19.11,19.13-19.11c10.55,0,19.1,8.56,19.11,19.11v.02Z"/>
      <path class="cls-1" d="M747.85,543.38c0,10.56-8.57,19.11-19.13,19.11s-19.11-8.57-19.11-19.13,8.57-19.11,19.13-19.11c10.55,0,19.1,8.56,19.11,19.11v.02Z"/>
      <path class="cls-1" d="M747.85,574.26c0,10.56-8.57,19.11-19.13,19.11s-19.11-8.57-19.11-19.13,8.57-19.11,19.13-19.11c10.55,0,19.1,8.56,19.11,19.11v.02Z"/>
      <path class="cls-1" d="M747.85,605.14c0,10.56-8.57,19.11-19.13,19.11s-19.11-8.57-19.11-19.13,8.57-19.11,19.13-19.11c10.55,0,19.1,8.56,19.11,19.11v.02Z"/>
      <path class="cls-1" d="M747.85,636.02c0,10.56-8.57,19.11-19.13,19.11-10.56,0-19.11-8.57-19.11-19.13s8.57-19.11,19.13-19.11c10.55,0,19.1,8.56,19.11,19.11v.02Z"/>
      <path class="cls-1" d="M778.73,203.7c0,10.56-8.57,19.11-19.13,19.11-10.56,0-19.11-8.57-19.11-19.13s8.57-19.11,19.13-19.11c10.55,0,19.1,8.56,19.11,19.11v.02Z"/>
      <path class="cls-1" d="M778.73,234.58c0,10.56-8.57,19.11-19.13,19.11-10.56,0-19.11-8.57-19.11-19.13,0-10.56,8.57-19.11,19.13-19.11,10.55,0,19.1,8.56,19.11,19.11v.02Z"/>
      <path class="cls-1" d="M778.73,265.46c0,10.56-8.57,19.11-19.13,19.11s-19.11-8.57-19.11-19.13,8.57-19.11,19.13-19.11c10.55,0,19.1,8.56,19.11,19.11v.02Z"/>
      <path class="cls-1" d="M778.73,296.34c0,10.56-8.57,19.11-19.13,19.11s-19.11-8.57-19.11-19.13,8.57-19.11,19.13-19.11c10.55,0,19.1,8.56,19.11,19.11v.02Z"/>
      <path class="cls-1" d="M778.73,327.22c0,10.56-8.57,19.11-19.13,19.11s-19.11-8.57-19.11-19.13,8.57-19.11,19.13-19.11c10.55,0,19.1,8.56,19.11,19.11v.02Z"/>
      <path class="cls-1" d="M778.73,358.1c0,10.56-8.57,19.11-19.13,19.11-10.56,0-19.11-8.57-19.11-19.13s8.57-19.11,19.13-19.11c10.55,0,19.1,8.56,19.11,19.11v.02Z"/>
      <path class="cls-1" d="M778.73,388.98c0,10.56-8.57,19.11-19.13,19.11-10.56,0-19.11-8.57-19.11-19.13s8.57-19.11,19.13-19.11c10.55,0,19.1,8.56,19.11,19.11v.02Z"/>
      <path class="cls-1" d="M778.73,419.86c0,10.56-8.57,19.11-19.13,19.11-10.56,0-19.11-8.57-19.11-19.13s8.57-19.11,19.13-19.11c10.55,0,19.1,8.56,19.11,19.11v.02Z"/>
      <path class="cls-1" d="M778.73,450.74c0,10.56-8.57,19.11-19.13,19.11s-19.11-8.57-19.11-19.13,8.57-19.11,19.13-19.11c10.55,0,19.1,8.56,19.11,19.11v.02Z"/>
      <path class="cls-1" d="M778.73,481.62c0,10.56-8.57,19.11-19.13,19.11-10.56,0-19.11-8.57-19.11-19.13,0-10.56,8.57-19.11,19.13-19.11,10.55,0,19.1,8.56,19.11,19.11v.02Z"/>
      <path class="cls-1" d="M778.73,512.5c0,10.56-8.57,19.11-19.13,19.11-10.56,0-19.11-8.57-19.11-19.13s8.57-19.11,19.13-19.11c10.55,0,19.1,8.56,19.11,19.11v.02Z"/>
      <path class="cls-1" d="M778.73,543.38c0,10.56-8.57,19.11-19.13,19.11s-19.11-8.57-19.11-19.13,8.57-19.11,19.13-19.11c10.55,0,19.1,8.56,19.11,19.11v.02Z"/>
      <path class="cls-1" d="M778.73,574.26c0,10.56-8.57,19.11-19.13,19.11s-19.11-8.57-19.11-19.13,8.57-19.11,19.13-19.11c10.55,0,19.1,8.56,19.11,19.11v.02Z"/>
      <path class="cls-1" d="M778.73,605.14c0,10.56-8.57,19.11-19.13,19.11s-19.11-8.57-19.11-19.13,8.57-19.11,19.13-19.11c10.55,0,19.1,8.56,19.11,19.11v.02Z"/>
      <path class="cls-1" d="M778.73,636.02c0,10.56-8.57,19.11-19.13,19.11-10.56,0-19.11-8.57-19.11-19.13s8.57-19.11,19.13-19.11c10.55,0,19.1,8.56,19.11,19.11v.02Z"/>
      <path class="cls-1" d="M809.61,203.7c0,10.56-8.57,19.11-19.13,19.11-10.56,0-19.11-8.57-19.11-19.13s8.57-19.11,19.13-19.11c10.55,0,19.1,8.56,19.11,19.11v.02Z"/>
      <path class="cls-1" d="M809.61,234.58c0,10.56-8.57,19.11-19.13,19.11-10.56,0-19.11-8.57-19.11-19.13,0-10.56,8.57-19.11,19.13-19.11,10.55,0,19.1,8.56,19.11,19.11v.02Z"/>
      <path class="cls-1" d="M809.61,265.46c0,10.56-8.57,19.11-19.13,19.11s-19.11-8.57-19.11-19.13,8.57-19.11,19.13-19.11c10.55,0,19.1,8.56,19.11,19.11v.02Z"/>
      <path class="cls-1" d="M809.61,296.34c0,10.56-8.57,19.11-19.13,19.11s-19.11-8.57-19.11-19.13,8.57-19.11,19.13-19.11c10.55,0,19.1,8.56,19.11,19.11v.02Z"/>
      <path class="cls-1" d="M809.61,327.22c0,10.56-8.57,19.11-19.13,19.11s-19.11-8.57-19.11-19.13,8.57-19.11,19.13-19.11c10.55,0,19.1,8.56,19.11,19.11v.02Z"/>
      <path class="cls-1" d="M809.61,358.1c0,10.56-8.57,19.11-19.13,19.11-10.56,0-19.11-8.57-19.11-19.13s8.57-19.11,19.13-19.11c10.55,0,19.1,8.56,19.11,19.11v.02Z"/>
      <path class="cls-1" d="M809.61,388.98c0,10.56-8.57,19.11-19.13,19.11-10.56,0-19.11-8.57-19.11-19.13s8.57-19.11,19.13-19.11c10.55,0,19.1,8.56,19.11,19.11v.02Z"/>
      <path class="cls-1" d="M809.61,419.86c0,10.56-8.57,19.11-19.13,19.11-10.56,0-19.11-8.57-19.11-19.13s8.57-19.11,19.13-19.11c10.55,0,19.1,8.56,19.11,19.11v.02Z"/>
      <path class="cls-1" d="M809.61,450.74c0,10.56-8.57,19.11-19.13,19.11s-19.11-8.57-19.11-19.13,8.57-19.11,19.13-19.11c10.55,0,19.1,8.56,19.11,19.11v.02Z"/>
      <path class="cls-1" d="M809.61,481.62c0,10.56-8.57,19.11-19.13,19.11-10.56,0-19.11-8.57-19.11-19.13,0-10.56,8.57-19.11,19.13-19.11,10.55,0,19.1,8.56,19.11,19.11v.02Z"/>
      <path class="cls-1" d="M809.61,512.5c0,10.56-8.57,19.11-19.13,19.11-10.56,0-19.11-8.57-19.11-19.13s8.57-19.11,19.13-19.11c10.55,0,19.1,8.56,19.11,19.11v.02Z"/>
      <path class="cls-1" d="M809.61,543.38c0,10.56-8.57,19.11-19.13,19.11s-19.11-8.57-19.11-19.13,8.57-19.11,19.13-19.11c10.55,0,19.1,8.56,19.11,19.11v.02Z"/>
      <path class="cls-1" d="M809.61,574.26c0,10.56-8.57,19.11-19.13,19.11s-19.11-8.57-19.11-19.13,8.57-19.11,19.13-19.11c10.55,0,19.1,8.56,19.11,19.11v.02Z"/>
      <path class="cls-1" d="M809.61,605.14c0,10.56-8.57,19.11-19.13,19.11s-19.11-8.57-19.11-19.13,8.57-19.11,19.13-19.11c10.55,0,19.1,8.56,19.11,19.11v.02Z"/>
      <path class="cls-1" d="M809.61,636.02c0,10.56-8.57,19.11-19.13,19.11-10.56,0-19.11-8.57-19.11-19.13s8.57-19.11,19.13-19.11c10.55,0,19.1,8.56,19.11,19.11v.02Z"/>
      <path class="cls-1" d="M840.49,203.7c0,10.56-8.57,19.11-19.13,19.11-10.56,0-19.11-8.57-19.11-19.13s8.57-19.11,19.13-19.11c10.55,0,19.1,8.56,19.11,19.11v.02Z"/>
      <path class="cls-1" d="M840.49,234.58c0,10.56-8.57,19.11-19.13,19.11-10.56,0-19.11-8.57-19.11-19.13,0-10.56,8.57-19.11,19.13-19.11,10.55,0,19.1,8.56,19.11,19.11v.02Z"/>
      <path class="cls-1" d="M840.49,265.46c0,10.56-8.57,19.11-19.13,19.11s-19.11-8.57-19.11-19.13,8.57-19.11,19.13-19.11c10.55,0,19.1,8.56,19.11,19.11v.02Z"/>
      <path class="cls-1" d="M840.49,296.34c0,10.56-8.57,19.11-19.13,19.11s-19.11-8.57-19.11-19.13,8.57-19.11,19.13-19.11c10.55,0,19.1,8.56,19.11,19.11v.02Z"/>
      <path class="cls-1" d="M840.49,327.22c0,10.56-8.57,19.11-19.13,19.11s-19.11-8.57-19.11-19.13,8.57-19.11,19.13-19.11c10.55,0,19.1,8.56,19.11,19.11v.02Z"/>
      <path class="cls-1" d="M840.49,358.1c0,10.56-8.57,19.11-19.13,19.11-10.56,0-19.11-8.57-19.11-19.13s8.57-19.11,19.13-19.11c10.55,0,19.1,8.56,19.11,19.11v.02Z"/>
      <path class="cls-1" d="M840.49,388.98c0,10.56-8.57,19.11-19.13,19.11-10.56,0-19.11-8.57-19.11-19.13s8.57-19.11,19.13-19.11c10.55,0,19.1,8.56,19.11,19.11v.02Z"/>
      <path class="cls-1" d="M840.49,419.86c0,10.56-8.57,19.11-19.13,19.11-10.56,0-19.11-8.57-19.11-19.13s8.57-19.11,19.13-19.11c10.55,0,19.1,8.56,19.11,19.11v.02Z"/>
      <path class="cls-1" d="M840.49,450.74c0,10.56-8.57,19.11-19.13,19.11s-19.11-8.57-19.11-19.13,8.57-19.11,19.13-19.11c10.55,0,19.1,8.56,19.11,19.11v.02Z"/>
      <path class="cls-1" d="M840.49,481.62c0,10.56-8.57,19.11-19.13,19.11-10.56,0-19.11-8.57-19.11-19.13,0-10.56,8.57-19.11,19.13-19.11,10.55,0,19.1,8.56,19.11,19.11v.02Z"/>
      <path class="cls-1" d="M840.49,512.5c0,10.56-8.57,19.11-19.13,19.11-10.56,0-19.11-8.57-19.11-19.13s8.57-19.11,19.13-19.11c10.55,0,19.1,8.56,19.11,19.11v.02Z"/>
      <path class="cls-1" d="M840.49,543.38c0,10.56-8.57,19.11-19.13,19.11s-19.11-8.57-19.11-19.13,8.57-19.11,19.13-19.11c10.55,0,19.1,8.56,19.11,19.11v.02Z"/>
      <path class="cls-1" d="M840.49,574.26c0,10.56-8.57,19.11-19.13,19.11s-19.11-8.57-19.11-19.13,8.57-19.11,19.13-19.11c10.55,0,19.1,8.56,19.11,19.11v.02Z"/>
      <path class="cls-1" d="M840.49,605.14c0,10.56-8.57,19.11-19.13,19.11s-19.11-8.57-19.11-19.13,8.57-19.11,19.13-19.11c10.55,0,19.1,8.56,19.11,19.11v.02Z"/>
      <path class="cls-1" d="M840.49,636.02c0,10.56-8.57,19.11-19.13,19.11-10.56,0-19.11-8.57-19.11-19.13s8.57-19.11,19.13-19.11c10.55,0,19.1,8.56,19.11,19.11v.02Z"/>
      <path class="cls-1" d="M839.87,759.54c.06,10.21-8.17,18.54-18.38,18.61s-18.54-8.17-18.61-18.38c-.06-10.21,8.17-18.54,18.38-18.61,10.21-.06,18.53,8.16,18.61,18.36v.02Z"/>
      <path class="cls-1" d="M840.49,790.42c0,10.56-8.57,19.11-19.13,19.11-10.56,0-19.11-8.57-19.11-19.13s8.57-19.11,19.13-19.11c10.55,0,19.1,8.56,19.11,19.11v.02Z"/>
      <path class="cls-1" d="M840.49,821.3c0,10.56-8.57,19.11-19.13,19.11-10.56,0-19.11-8.57-19.11-19.13s8.57-19.11,19.13-19.11c10.55,0,19.1,8.56,19.11,19.11v.02Z"/>
      <path class="cls-1" d="M840.49,852.18c0,10.56-8.57,19.11-19.13,19.11-10.56,0-19.11-8.57-19.11-19.13s8.57-19.11,19.13-19.11c10.55,0,19.1,8.56,19.11,19.11v.02Z"/>
      <path class="cls-1" d="M871.37,203.7c0,10.56-8.57,19.11-19.13,19.11-10.56,0-19.11-8.57-19.11-19.13s8.57-19.11,19.13-19.11c10.55,0,19.1,8.56,19.11,19.11v.02Z"/>
      <path class="cls-1" d="M871.37,234.58c0,10.56-8.57,19.11-19.13,19.11-10.56,0-19.11-8.57-19.11-19.13,0-10.56,8.57-19.11,19.13-19.11,10.55,0,19.1,8.56,19.11,19.11v.02Z"/>
      <path class="cls-1" d="M871.37,265.46c0,10.56-8.57,19.11-19.13,19.11s-19.11-8.57-19.11-19.13,8.57-19.11,19.13-19.11c10.55,0,19.1,8.56,19.11,19.11v.02Z"/>
      <path class="cls-1" d="M871.37,296.34c0,10.56-8.57,19.11-19.13,19.11s-19.11-8.57-19.11-19.13,8.57-19.11,19.13-19.11c10.55,0,19.1,8.56,19.11,19.11v.02Z"/>
      <path class="cls-1" d="M871.37,327.22c0,10.56-8.57,19.11-19.13,19.11s-19.11-8.57-19.11-19.13,8.57-19.11,19.13-19.11c10.55,0,19.1,8.56,19.11,19.11v.02Z"/>
      <path class="cls-1" d="M871.37,358.1c0,10.56-8.57,19.11-19.13,19.11-10.56,0-19.11-8.57-19.11-19.13s8.57-19.11,19.13-19.11c10.55,0,19.1,8.56,19.11,19.11v.02Z"/>
      <path class="cls-1" d="M871.37,388.98c0,10.56-8.57,19.11-19.13,19.11-10.56,0-19.11-8.57-19.11-19.13s8.57-19.11,19.13-19.11c10.55,0,19.1,8.56,19.11,19.11v.02Z"/>
      <path class="cls-1" d="M871.37,419.86c0,10.56-8.57,19.11-19.13,19.11-10.56,0-19.11-8.57-19.11-19.13s8.57-19.11,19.13-19.11c10.55,0,19.1,8.56,19.11,19.11v.02Z"/>
      <path class="cls-1" d="M871.37,450.74c0,10.56-8.57,19.11-19.13,19.11s-19.11-8.57-19.11-19.13,8.57-19.11,19.13-19.11c10.55,0,19.1,8.56,19.11,19.11v.02Z"/>
      <path class="cls-1" d="M871.37,481.62c0,10.56-8.57,19.11-19.13,19.11-10.56,0-19.11-8.57-19.11-19.13,0-10.56,8.57-19.11,19.13-19.11,10.55,0,19.1,8.56,19.11,19.11v.02Z"/>
      <path class="cls-1" d="M871.37,512.5c0,10.56-8.57,19.11-19.13,19.11-10.56,0-19.11-8.57-19.11-19.13s8.57-19.11,19.13-19.11c10.55,0,19.1,8.56,19.11,19.11v.02Z"/>
      <path class="cls-1" d="M871.37,543.38c0,10.56-8.57,19.11-19.13,19.11s-19.11-8.57-19.11-19.13,8.57-19.11,19.13-19.11c10.55,0,19.1,8.56,19.11,19.11v.02Z"/>
      <path class="cls-1" d="M871.37,574.26c0,10.56-8.57,19.11-19.13,19.11s-19.11-8.57-19.11-19.13,8.57-19.11,19.13-19.11c10.55,0,19.1,8.56,19.11,19.11v.02Z"/>
      <path class="cls-1" d="M871.37,605.14c0,10.56-8.57,19.11-19.13,19.11s-19.11-8.57-19.11-19.13,8.57-19.11,19.13-19.11c10.55,0,19.1,8.56,19.11,19.11v.02Z"/>
      <path class="cls-1" d="M871.37,636.02c0,10.56-8.57,19.11-19.13,19.11-10.56,0-19.11-8.57-19.11-19.13s8.57-19.11,19.13-19.11c10.55,0,19.1,8.56,19.11,19.11v.02Z"/>
      <path class="cls-1" d="M871.37,759.54c0,10.56-8.57,19.11-19.13,19.11-10.56,0-19.11-8.57-19.11-19.13s8.57-19.11,19.13-19.11c10.55,0,19.1,8.56,19.11,19.11v.02Z"/>
      <path class="cls-1" d="M871.37,790.42c0,10.56-8.57,19.11-19.13,19.11-10.56,0-19.11-8.57-19.11-19.13s8.57-19.11,19.13-19.11c10.55,0,19.1,8.56,19.11,19.11v.02Z"/>
      <path class="cls-1" d="M871.37,821.3c0,10.56-8.57,19.11-19.13,19.11-10.56,0-19.11-8.57-19.11-19.13s8.57-19.11,19.13-19.11c10.55,0,19.1,8.56,19.11,19.11v.02Z"/>
      <path class="cls-1" d="M871.37,852.18c0,10.56-8.57,19.11-19.13,19.11-10.56,0-19.11-8.57-19.11-19.13s8.57-19.11,19.13-19.11c10.55,0,19.1,8.56,19.11,19.11v.02Z"/>
      <path class="cls-1" d="M871.37,883.06c0,10.56-8.57,19.11-19.13,19.11-10.56,0-19.11-8.57-19.11-19.13s8.57-19.11,19.13-19.11c10.55,0,19.1,8.56,19.11,19.11v.02Z"/>
      <path class="cls-1" d="M902.25,203.7c0,10.56-8.57,19.11-19.13,19.11-10.56,0-19.11-8.57-19.11-19.13s8.57-19.11,19.13-19.11c10.55,0,19.1,8.56,19.11,19.11v.02Z"/>
      <path class="cls-1" d="M902.25,234.58c0,10.56-8.57,19.11-19.13,19.11-10.56,0-19.11-8.57-19.11-19.13,0-10.56,8.57-19.11,19.13-19.11,10.55,0,19.1,8.56,19.11,19.11v.02Z"/>
      <path class="cls-1" d="M902.25,265.46c0,10.56-8.57,19.11-19.13,19.11s-19.11-8.57-19.11-19.13,8.57-19.11,19.13-19.11c10.55,0,19.1,8.56,19.11,19.11v.02Z"/>
      <path class="cls-1" d="M902.25,296.34c0,10.56-8.57,19.11-19.13,19.11s-19.11-8.57-19.11-19.13,8.57-19.11,19.13-19.11c10.55,0,19.1,8.56,19.11,19.11v.02Z"/>
      <path class="cls-1" d="M902.25,327.22c0,10.56-8.57,19.11-19.13,19.11s-19.11-8.57-19.11-19.13,8.57-19.11,19.13-19.11c10.55,0,19.1,8.56,19.11,19.11v.02Z"/>
      <path class="cls-1" d="M902.25,358.1c0,10.56-8.57,19.11-19.13,19.11-10.56,0-19.11-8.57-19.11-19.13s8.57-19.11,19.13-19.11c10.55,0,19.1,8.56,19.11,19.11v.02Z"/>
      <path class="cls-1" d="M902.25,388.98c0,10.56-8.57,19.11-19.13,19.11-10.56,0-19.11-8.57-19.11-19.13s8.57-19.11,19.13-19.11c10.55,0,19.1,8.56,19.11,19.11v.02Z"/>
      <path class="cls-1" d="M902.25,419.86c0,10.56-8.57,19.11-19.13,19.11-10.56,0-19.11-8.57-19.11-19.13s8.57-19.11,19.13-19.11c10.55,0,19.1,8.56,19.11,19.11v.02Z"/>
      <path class="cls-1" d="M902.25,450.74c0,10.56-8.57,19.11-19.13,19.11s-19.11-8.57-19.11-19.13,8.57-19.11,19.13-19.11c10.55,0,19.1,8.56,19.11,19.11v.02Z"/>
      <path class="cls-1" d="M902.25,481.62c0,10.56-8.57,19.11-19.13,19.11-10.56,0-19.11-8.57-19.11-19.13,0-10.56,8.57-19.11,19.13-19.11,10.55,0,19.1,8.56,19.11,19.11v.02Z"/>
      <path class="cls-1" d="M902.25,512.5c0,10.56-8.57,19.11-19.13,19.11-10.56,0-19.11-8.57-19.11-19.13s8.57-19.11,19.13-19.11c10.55,0,19.1,8.56,19.11,19.11v.02Z"/>
      <path class="cls-1" d="M902.25,543.38c0,10.56-8.57,19.11-19.13,19.11s-19.11-8.57-19.11-19.13,8.57-19.11,19.13-19.11c10.55,0,19.1,8.56,19.11,19.11v.02Z"/>
      <path class="cls-1" d="M902.25,574.26c0,10.56-8.57,19.11-19.13,19.11s-19.11-8.57-19.11-19.13,8.57-19.11,19.13-19.11c10.55,0,19.1,8.56,19.11,19.11v.02Z"/>
      <path class="cls-1" d="M902.25,605.14c0,10.56-8.57,19.11-19.13,19.11s-19.11-8.57-19.11-19.13,8.57-19.11,19.13-19.11c10.55,0,19.1,8.56,19.11,19.11v.02Z"/>
      <path class="cls-1" d="M902.25,636.02c0,10.56-8.57,19.11-19.13,19.11-10.56,0-19.11-8.57-19.11-19.13s8.57-19.11,19.13-19.11c10.55,0,19.1,8.56,19.11,19.11v.02Z"/>
      <path class="cls-1" d="M902.25,728.66c0,10.56-8.57,19.11-19.13,19.11-10.56,0-19.11-8.57-19.11-19.13s8.57-19.11,19.13-19.11c10.55,0,19.1,8.56,19.11,19.11v.02Z"/>
      <path class="cls-1" d="M902.25,759.54c0,10.56-8.57,19.11-19.13,19.11-10.56,0-19.11-8.57-19.11-19.13s8.57-19.11,19.13-19.11c10.55,0,19.1,8.56,19.11,19.11v.02Z"/>
      <path class="cls-1" d="M902.25,790.42c0,10.56-8.57,19.11-19.13,19.11-10.56,0-19.11-8.57-19.11-19.13s8.57-19.11,19.13-19.11c10.55,0,19.1,8.56,19.11,19.11v.02Z"/>
      <path class="cls-1" d="M902.25,821.3c0,10.56-8.57,19.11-19.13,19.11-10.56,0-19.11-8.57-19.11-19.13s8.57-19.11,19.13-19.11c10.55,0,19.1,8.56,19.11,19.11v.02Z"/>
      <path class="cls-1" d="M902.25,852.18c0,10.56-8.57,19.11-19.13,19.11-10.56,0-19.11-8.57-19.11-19.13s8.57-19.11,19.13-19.11c10.55,0,19.1,8.56,19.11,19.11v.02Z"/>
      <path class="cls-1" d="M902.25,883.06c0,10.56-8.57,19.11-19.13,19.11-10.56,0-19.11-8.57-19.11-19.13s8.57-19.11,19.13-19.11c10.55,0,19.1,8.56,19.11,19.11v.02Z"/>
      <path class="cls-1" d="M933.13,203.7c0,10.56-8.57,19.11-19.13,19.11-10.56,0-19.11-8.57-19.11-19.13s8.57-19.11,19.13-19.11c10.55,0,19.1,8.56,19.11,19.11v.02Z"/>
      <path class="cls-1" d="M933.13,234.58c0,10.56-8.57,19.11-19.13,19.11-10.56,0-19.11-8.57-19.11-19.13,0-10.56,8.57-19.11,19.13-19.11,10.55,0,19.1,8.56,19.11,19.11v.02Z"/>
      <path class="cls-1" d="M933.13,265.46c0,10.56-8.57,19.11-19.13,19.11s-19.11-8.57-19.11-19.13,8.57-19.11,19.13-19.11c10.55,0,19.1,8.56,19.11,19.11v.02Z"/>
      <path class="cls-1" d="M933.13,296.34c0,10.56-8.57,19.11-19.13,19.11s-19.11-8.57-19.11-19.13,8.57-19.11,19.13-19.11c10.55,0,19.1,8.56,19.11,19.11v.02Z"/>
      <path class="cls-1" d="M933.13,327.22c0,10.56-8.57,19.11-19.13,19.11s-19.11-8.57-19.11-19.13,8.57-19.11,19.13-19.11c10.55,0,19.1,8.56,19.11,19.11v.02Z"/>
      <path class="cls-1" d="M933.13,358.1c0,10.56-8.57,19.11-19.13,19.11-10.56,0-19.11-8.57-19.11-19.13s8.57-19.11,19.13-19.11c10.55,0,19.1,8.56,19.11,19.11v.02Z"/>
      <path class="cls-1" d="M933.13,388.98c0,10.56-8.57,19.11-19.13,19.11-10.56,0-19.11-8.57-19.11-19.13s8.57-19.11,19.13-19.11c10.55,0,19.1,8.56,19.11,19.11v.02Z"/>
      <path class="cls-1" d="M933.13,419.86c0,10.56-8.57,19.11-19.13,19.11-10.56,0-19.11-8.57-19.11-19.13s8.57-19.11,19.13-19.11c10.55,0,19.1,8.56,19.11,19.11v.02Z"/>
      <path class="cls-1" d="M933.13,450.74c0,10.56-8.57,19.11-19.13,19.11s-19.11-8.57-19.11-19.13,8.57-19.11,19.13-19.11c10.55,0,19.1,8.56,19.11,19.11v.02Z"/>
      <path class="cls-1" d="M933.13,481.62c0,10.56-8.57,19.11-19.13,19.11-10.56,0-19.11-8.57-19.11-19.13,0-10.56,8.57-19.11,19.13-19.11,10.55,0,19.1,8.56,19.11,19.11v.02Z"/>
      <path class="cls-1" d="M933.13,512.5c0,10.56-8.57,19.11-19.13,19.11-10.56,0-19.11-8.57-19.11-19.13s8.57-19.11,19.13-19.11c10.55,0,19.1,8.56,19.11,19.11v.02Z"/>
      <path class="cls-1" d="M933.13,543.38c0,10.56-8.57,19.11-19.13,19.11s-19.11-8.57-19.11-19.13,8.57-19.11,19.13-19.11c10.55,0,19.1,8.56,19.11,19.11v.02Z"/>
      <path class="cls-1" d="M933.13,574.26c0,10.56-8.57,19.11-19.13,19.11s-19.11-8.57-19.11-19.13,8.57-19.11,19.13-19.11c10.55,0,19.1,8.56,19.11,19.11v.02Z"/>
      <path class="cls-1" d="M933.13,605.14c0,10.56-8.57,19.11-19.13,19.11s-19.11-8.57-19.11-19.13,8.57-19.11,19.13-19.11c10.55,0,19.1,8.56,19.11,19.11v.02Z"/>
      <path class="cls-1" d="M933.13,636.02c0,10.56-8.57,19.11-19.13,19.11-10.56,0-19.11-8.57-19.11-19.13s8.57-19.11,19.13-19.11c10.55,0,19.1,8.56,19.11,19.11v.02Z"/>
      <path class="cls-1" d="M920.65,728.66c0,3.66-2.97,6.63-6.64,6.63-3.66,0-6.63-2.97-6.63-6.64,0-3.66,2.97-6.63,6.64-6.63,3.66,0,6.63,2.97,6.63,6.63h0Z"/>
      <path class="cls-1" d="M933.13,759.54c0,10.56-8.57,19.11-19.13,19.11-10.56,0-19.11-8.57-19.11-19.13s8.57-19.11,19.13-19.11c10.55,0,19.1,8.56,19.11,19.11v.02Z"/>
      <path class="cls-1" d="M933.13,790.42c0,10.56-8.57,19.11-19.13,19.11-10.56,0-19.11-8.57-19.11-19.13s8.57-19.11,19.13-19.11c10.55,0,19.1,8.56,19.11,19.11v.02Z"/>
      <path class="cls-1" d="M933.13,821.3c0,10.56-8.57,19.11-19.13,19.11-10.56,0-19.11-8.57-19.11-19.13s8.57-19.11,19.13-19.11c10.55,0,19.1,8.56,19.11,19.11v.02Z"/>
      <path class="cls-1" d="M933.13,852.18c0,10.56-8.57,19.11-19.13,19.11-10.56,0-19.11-8.57-19.11-19.13s8.57-19.11,19.13-19.11c10.55,0,19.1,8.56,19.11,19.11v.02Z"/>
      <path class="cls-1" d="M933.13,883.06c0,10.56-8.57,19.11-19.13,19.11-10.56,0-19.11-8.57-19.11-19.13s8.57-19.11,19.13-19.11c10.55,0,19.1,8.56,19.11,19.11v.02Z"/>
      <path class="cls-1" d="M964.01,203.7c0,10.56-8.57,19.11-19.13,19.11-10.56,0-19.11-8.57-19.11-19.13s8.57-19.11,19.13-19.11c10.55,0,19.1,8.56,19.11,19.11v.02Z"/>
      <path class="cls-1" d="M964.01,234.58c0,10.56-8.57,19.11-19.13,19.11-10.56,0-19.11-8.57-19.11-19.13,0-10.56,8.57-19.11,19.13-19.11,10.55,0,19.1,8.56,19.11,19.11v.02Z"/>
      <path class="cls-1" d="M964.01,265.46c0,10.56-8.57,19.11-19.13,19.11s-19.11-8.57-19.11-19.13,8.57-19.11,19.13-19.11c10.55,0,19.1,8.56,19.11,19.11v.02Z"/>
      <path class="cls-1" d="M964.01,296.34c0,10.56-8.57,19.11-19.13,19.11s-19.11-8.57-19.11-19.13,8.57-19.11,19.13-19.11c10.55,0,19.1,8.56,19.11,19.11v.02Z"/>
      <path class="cls-1" d="M964.01,327.22c0,10.56-8.57,19.11-19.13,19.11s-19.11-8.57-19.11-19.13,8.57-19.11,19.13-19.11c10.55,0,19.1,8.56,19.11,19.11v.02Z"/>
      <path class="cls-1" d="M964.01,358.1c0,10.56-8.57,19.11-19.13,19.11-10.56,0-19.11-8.57-19.11-19.13s8.57-19.11,19.13-19.11c10.55,0,19.1,8.56,19.11,19.11v.02Z"/>
      <path class="cls-1" d="M964.01,388.98c0,10.56-8.57,19.11-19.13,19.11-10.56,0-19.11-8.57-19.11-19.13s8.57-19.11,19.13-19.11c10.55,0,19.1,8.56,19.11,19.11v.02Z"/>
      <path class="cls-1" d="M964.01,419.86c0,10.56-8.57,19.11-19.13,19.11-10.56,0-19.11-8.57-19.11-19.13s8.57-19.11,19.13-19.11c10.55,0,19.1,8.56,19.11,19.11v.02Z"/>
      <path class="cls-1" d="M964.01,450.74c0,10.56-8.57,19.11-19.13,19.11s-19.11-8.57-19.11-19.13,8.57-19.11,19.13-19.11c10.55,0,19.1,8.56,19.11,19.11v.02Z"/>
      <path class="cls-1" d="M964.01,481.62c0,10.56-8.57,19.11-19.13,19.11-10.56,0-19.11-8.57-19.11-19.13,0-10.56,8.57-19.11,19.13-19.11,10.55,0,19.1,8.56,19.11,19.11v.02Z"/>
      <path class="cls-1" d="M964.01,512.5c0,10.56-8.57,19.11-19.13,19.11-10.56,0-19.11-8.57-19.11-19.13s8.57-19.11,19.13-19.11c10.55,0,19.1,8.56,19.11,19.11v.02Z"/>
      <path class="cls-1" d="M964.01,543.38c0,10.56-8.57,19.11-19.13,19.11s-19.11-8.57-19.11-19.13,8.57-19.11,19.13-19.11c10.55,0,19.1,8.56,19.11,19.11v.02Z"/>
      <path class="cls-1" d="M964.01,574.26c0,10.56-8.57,19.11-19.13,19.11s-19.11-8.57-19.11-19.13,8.57-19.11,19.13-19.11c10.55,0,19.1,8.56,19.11,19.11v.02Z"/>
      <path class="cls-1" d="M964.01,605.14c0,10.56-8.57,19.11-19.13,19.11s-19.11-8.57-19.11-19.13,8.57-19.11,19.13-19.11c10.55,0,19.1,8.56,19.11,19.11v.02Z"/>
      <path class="cls-1" d="M964.01,636.02c0,10.56-8.57,19.11-19.13,19.11-10.56,0-19.11-8.57-19.11-19.13s8.57-19.11,19.13-19.11c10.55,0,19.1,8.56,19.11,19.11v.02Z"/>
      <path class="cls-1" d="M964.01,759.54c0,10.56-8.57,19.11-19.13,19.11-10.56,0-19.11-8.57-19.11-19.13s8.57-19.11,19.13-19.11c10.55,0,19.1,8.56,19.11,19.11v.02Z"/>
      <path class="cls-1" d="M964.01,790.42c0,10.56-8.57,19.11-19.13,19.11-10.56,0-19.11-8.57-19.11-19.13s8.57-19.11,19.13-19.11c10.55,0,19.1,8.56,19.11,19.11v.02Z"/>
      <path class="cls-1" d="M964.01,821.3c0,10.56-8.57,19.11-19.13,19.11-10.56,0-19.11-8.57-19.11-19.13s8.57-19.11,19.13-19.11c10.55,0,19.1,8.56,19.11,19.11v.02Z"/>
      <path class="cls-1" d="M964.01,852.18c0,10.56-8.57,19.11-19.13,19.11-10.56,0-19.11-8.57-19.11-19.13s8.57-19.11,19.13-19.11c10.55,0,19.1,8.56,19.11,19.11v.02Z"/>
      <path class="cls-1" d="M964.01,883.06c0,10.56-8.57,19.11-19.13,19.11-10.56,0-19.11-8.57-19.11-19.13s8.57-19.11,19.13-19.11c10.55,0,19.1,8.56,19.11,19.11v.02Z"/>
      <path class="cls-1" d="M994.89,203.7c0,10.56-8.57,19.11-19.13,19.11-10.56,0-19.11-8.57-19.11-19.13s8.57-19.11,19.13-19.11c10.55,0,19.1,8.56,19.11,19.11v.02Z"/>
      <path class="cls-1" d="M994.89,234.58c0,10.56-8.57,19.11-19.13,19.11-10.56,0-19.11-8.57-19.11-19.13,0-10.56,8.57-19.11,19.13-19.11,10.55,0,19.1,8.56,19.11,19.11v.02Z"/>
      <path class="cls-1" d="M994.89,265.46c0,10.56-8.57,19.11-19.13,19.11s-19.11-8.57-19.11-19.13,8.57-19.11,19.13-19.11c10.55,0,19.1,8.56,19.11,19.11v.02Z"/>
      <path class="cls-1" d="M994.89,296.34c0,10.56-8.57,19.11-19.13,19.11s-19.11-8.57-19.11-19.13,8.57-19.11,19.13-19.11c10.55,0,19.1,8.56,19.11,19.11v.02Z"/>
      <path class="cls-1" d="M994.89,327.22c0,10.56-8.57,19.11-19.13,19.11s-19.11-8.57-19.11-19.13,8.57-19.11,19.13-19.11c10.55,0,19.1,8.56,19.11,19.11v.02Z"/>
      <path class="cls-1" d="M994.89,358.1c0,10.56-8.57,19.11-19.13,19.11-10.56,0-19.11-8.57-19.11-19.13s8.57-19.11,19.13-19.11c10.55,0,19.1,8.56,19.11,19.11v.02Z"/>
      <path class="cls-1" d="M994.89,388.98c0,10.56-8.57,19.11-19.13,19.11-10.56,0-19.11-8.57-19.11-19.13s8.57-19.11,19.13-19.11c10.55,0,19.1,8.56,19.11,19.11v.02Z"/>
      <path class="cls-1" d="M994.89,419.86c0,10.56-8.57,19.11-19.13,19.11-10.56,0-19.11-8.57-19.11-19.13s8.57-19.11,19.13-19.11c10.55,0,19.1,8.56,19.11,19.11v.02Z"/>
      <path class="cls-1" d="M994.89,450.74c0,10.56-8.57,19.11-19.13,19.11s-19.11-8.57-19.11-19.13,8.57-19.11,19.13-19.11c10.55,0,19.1,8.56,19.11,19.11v.02Z"/>
      <path class="cls-1" d="M994.89,481.62c0,10.56-8.57,19.11-19.13,19.11-10.56,0-19.11-8.57-19.11-19.13,0-10.56,8.57-19.11,19.13-19.11,10.55,0,19.1,8.56,19.11,19.11v.02Z"/>
      <path class="cls-1" d="M994.89,512.5c0,10.56-8.57,19.11-19.13,19.11-10.56,0-19.11-8.57-19.11-19.13s8.57-19.11,19.13-19.11c10.55,0,19.1,8.56,19.11,19.11v.02Z"/>
      <path class="cls-1" d="M994.89,543.38c0,10.56-8.57,19.11-19.13,19.11s-19.11-8.57-19.11-19.13,8.57-19.11,19.13-19.11c10.55,0,19.1,8.56,19.11,19.11v.02Z"/>
      <path class="cls-1" d="M994.89,574.26c0,10.56-8.57,19.11-19.13,19.11s-19.11-8.57-19.11-19.13,8.57-19.11,19.13-19.11c10.55,0,19.1,8.56,19.11,19.11v.02Z"/>
      <path class="cls-1" d="M994.89,605.14c0,10.56-8.57,19.11-19.13,19.11s-19.11-8.57-19.11-19.13,8.57-19.11,19.13-19.11c10.55,0,19.1,8.56,19.11,19.11v.02Z"/>
      <path class="cls-1" d="M994.89,790.42c0,10.56-8.57,19.11-19.13,19.11-10.56,0-19.11-8.57-19.11-19.13s8.57-19.11,19.13-19.11c10.55,0,19.1,8.56,19.11,19.11v.02Z"/>
      <path class="cls-1" d="M994.89,821.3c0,10.56-8.57,19.11-19.13,19.11-10.56,0-19.11-8.57-19.11-19.13s8.57-19.11,19.13-19.11c10.55,0,19.1,8.56,19.11,19.11v.02Z"/>
      <path class="cls-1" d="M982.33,852.18c0,3.62-2.94,6.55-6.56,6.55-3.62,0-6.55-2.94-6.55-6.56s2.94-6.55,6.56-6.55c3.62,0,6.55,2.93,6.55,6.55h0Z"/>
      <path class="cls-1" d="M1025.77,203.7c0,10.56-8.57,19.11-19.13,19.11-10.56,0-19.11-8.57-19.11-19.13s8.57-19.11,19.13-19.11c10.55,0,19.1,8.56,19.11,19.11v.02Z"/>
      <path class="cls-1" d="M1025.77,234.58c0,10.56-8.57,19.11-19.13,19.11-10.56,0-19.11-8.57-19.11-19.13,0-10.56,8.57-19.11,19.13-19.11,10.55,0,19.1,8.56,19.11,19.11v.02Z"/>
      <path class="cls-1" d="M1025.77,265.46c0,10.56-8.57,19.11-19.13,19.11s-19.11-8.57-19.11-19.13,8.57-19.11,19.13-19.11c10.55,0,19.1,8.56,19.11,19.11v.02Z"/>
      <path class="cls-1" d="M1025.77,296.34c0,10.56-8.57,19.11-19.13,19.11s-19.11-8.57-19.11-19.13,8.57-19.11,19.13-19.11c10.55,0,19.1,8.56,19.11,19.11v.02Z"/>
      <path class="cls-1" d="M1025.77,327.22c0,10.56-8.57,19.11-19.13,19.11s-19.11-8.57-19.11-19.13,8.57-19.11,19.13-19.11c10.55,0,19.1,8.56,19.11,19.11v.02Z"/>
      <path class="cls-1" d="M1025.77,358.1c0,10.56-8.57,19.11-19.13,19.11-10.56,0-19.11-8.57-19.11-19.13s8.57-19.11,19.13-19.11c10.55,0,19.1,8.56,19.11,19.11v.02Z"/>
      <path class="cls-1" d="M1025.77,388.98c0,10.56-8.57,19.11-19.13,19.11-10.56,0-19.11-8.57-19.11-19.13s8.57-19.11,19.13-19.11c10.55,0,19.1,8.56,19.11,19.11v.02Z"/>
      <path class="cls-1" d="M1025.77,419.86c0,10.56-8.57,19.11-19.13,19.11-10.56,0-19.11-8.57-19.11-19.13s8.57-19.11,19.13-19.11c10.55,0,19.1,8.56,19.11,19.11v.02Z"/>
      <path class="cls-1" d="M1025.77,450.74c0,10.56-8.57,19.11-19.13,19.11s-19.11-8.57-19.11-19.13,8.57-19.11,19.13-19.11c10.55,0,19.1,8.56,19.11,19.11v.02Z"/>
      <path class="cls-1" d="M1025.77,481.62c0,10.56-8.57,19.11-19.13,19.11-10.56,0-19.11-8.57-19.11-19.13,0-10.56,8.57-19.11,19.13-19.11,10.55,0,19.1,8.56,19.11,19.11v.02Z"/>
      <path class="cls-1" d="M1025.77,512.5c0,10.56-8.57,19.11-19.13,19.11-10.56,0-19.11-8.57-19.11-19.13s8.57-19.11,19.13-19.11c10.55,0,19.1,8.56,19.11,19.11v.02Z"/>
      <path class="cls-1" d="M1025.77,543.38c0,10.56-8.57,19.11-19.13,19.11s-19.11-8.57-19.11-19.13,8.57-19.11,19.13-19.11c10.55,0,19.1,8.56,19.11,19.11v.02Z"/>
      <path class="cls-1" d="M1025.77,574.26c0,10.56-8.57,19.11-19.13,19.11s-19.11-8.57-19.11-19.13,8.57-19.11,19.13-19.11c10.55,0,19.1,8.56,19.11,19.11v.02Z"/>
      <path class="cls-1" d="M1056.65,234.58c0,10.56-8.57,19.11-19.13,19.11-10.56,0-19.11-8.57-19.11-19.13,0-10.56,8.57-19.11,19.13-19.11,10.55,0,19.1,8.56,19.11,19.11v.02Z"/>
      <path class="cls-1" d="M1056.65,265.46c0,10.56-8.57,19.11-19.13,19.11s-19.11-8.57-19.11-19.13,8.57-19.11,19.13-19.11c10.55,0,19.1,8.56,19.11,19.11v.02Z"/>
      <path class="cls-1" d="M1056.65,296.34c0,10.56-8.57,19.11-19.13,19.11s-19.11-8.57-19.11-19.13,8.57-19.11,19.13-19.11c10.55,0,19.1,8.56,19.11,19.11v.02Z"/>
      <path class="cls-1" d="M1056.65,327.22c0,10.56-8.57,19.11-19.13,19.11s-19.11-8.57-19.11-19.13,8.57-19.11,19.13-19.11c10.55,0,19.1,8.56,19.11,19.11v.02Z"/>
      <path class="cls-1" d="M1056.65,358.1c0,10.56-8.57,19.11-19.13,19.11-10.56,0-19.11-8.57-19.11-19.13s8.57-19.11,19.13-19.11c10.55,0,19.1,8.56,19.11,19.11v.02Z"/>
      <path class="cls-1" d="M1056.65,388.98c0,10.56-8.57,19.11-19.13,19.11-10.56,0-19.11-8.57-19.11-19.13s8.57-19.11,19.13-19.11c10.55,0,19.1,8.56,19.11,19.11v.02Z"/>
      <path class="cls-1" d="M1056.65,419.86c0,10.56-8.57,19.11-19.13,19.11-10.56,0-19.11-8.57-19.11-19.13s8.57-19.11,19.13-19.11c10.55,0,19.1,8.56,19.11,19.11v.02Z"/>
      <path class="cls-1" d="M1056.65,450.74c0,10.56-8.57,19.11-19.13,19.11s-19.11-8.57-19.11-19.13,8.57-19.11,19.13-19.11c10.55,0,19.1,8.56,19.11,19.11v.02Z"/>
      <path class="cls-1" d="M1056.65,481.62c0,10.56-8.57,19.11-19.13,19.11-10.56,0-19.11-8.57-19.11-19.13,0-10.56,8.57-19.11,19.13-19.11,10.55,0,19.1,8.56,19.11,19.11v.02Z"/>
      <path class="cls-1" d="M1068.65,234.58c0,.13-.1.23-.23.23s-.23-.1-.23-.23c0-.13.1-.23.23-.23s.23.1.23.23h0Z"/>
      <path class="cls-1" d="M1087.53,265.46c0,10.56-8.57,19.11-19.13,19.11s-19.11-8.57-19.11-19.13,8.57-19.11,19.13-19.11c10.55,0,19.1,8.56,19.11,19.11v.02Z"/>
      <path class="cls-1" d="M1087.53,296.34c0,10.56-8.57,19.11-19.13,19.11s-19.11-8.57-19.11-19.13,8.57-19.11,19.13-19.11c10.55,0,19.1,8.56,19.11,19.11v.02Z"/>
      <path class="cls-1" d="M1087.53,327.22c0,10.56-8.57,19.11-19.13,19.11s-19.11-8.57-19.11-19.13,8.57-19.11,19.13-19.11c10.55,0,19.1,8.56,19.11,19.11v.02Z"/>
      <path class="cls-1" d="M1087.53,358.1c0,10.56-8.57,19.11-19.13,19.11-10.56,0-19.11-8.57-19.11-19.13s8.57-19.11,19.13-19.11c10.55,0,19.1,8.56,19.11,19.11v.02Z"/>
      <path class="cls-1" d="M1087.53,388.98c0,10.56-8.57,19.11-19.13,19.11-10.56,0-19.11-8.57-19.11-19.13s8.57-19.11,19.13-19.11c10.55,0,19.1,8.56,19.11,19.11v.02Z"/>
    </g>
  </g>
</svg>