<?xml version="1.0" encoding="UTF-8"?>
<svg id="Layer_2" data-name="Layer 2" xmlns="http://www.w3.org/2000/svg" xmlns:xlink="http://www.w3.org/1999/xlink" viewBox="0 0 1920 1080">
  <defs>
    <style>
      .cls-1 {
        fill: none;
      }

      .cls-2 {
        fill: #0d0c1d;
      }

      .cls-3 {
        clip-path: url(#clippath);
      }
    </style>
    <clipPath id="clippath">
      <rect class="cls-1" width="1920" height="1080"/>
    </clipPath>
  </defs>
  <g id="Layer_1-2" data-name="Layer 1">
    <g class="cls-3">
      <g>
        <path class="cls-2" d="M304.21,544.44c0-75.31,54.84-139.42,145.99-139.42s145.99,64.11,145.99,139.42-54.84,139.42-145.99,139.42-145.99-64.11-145.99-139.42ZM515.08,544.44c0-38.24-23.17-69.9-64.88-69.9s-64.88,31.67-64.88,69.9,23.17,69.91,64.88,69.91,64.88-32.06,64.88-69.91Z"/>
        <path class="cls-2" d="M859.2,566.07c0-15.84-3.09-31.67-18.54-31.67s-18.92,15.84-18.92,31.67v113.55h-79.56v-113.55c0-15.84-3.09-31.67-18.54-31.67s-18.93,15.84-18.93,31.67v113.55h-79.56v-203.15h79.56v25.49c7.34-18.15,25.1-29.74,46.73-29.74,26.26,0,43.26,12.36,53.69,28.97,21.63-25.49,40.16-28.97,62.18-28.97,56.39,0,71.45,56,71.45,88.83v118.57h-79.56v-113.55Z"/>
        <path class="cls-2" d="M1053.08,679.62h-79.56v-279.23h79.56v101.57c10.81-18.54,31.67-29.74,57.93-29.74,54.07,0,95.39,44.41,95.39,105.82s-41.32,105.82-95.39,105.82c-26.26,0-47.12-11.2-57.93-29.35v25.1ZM1089.38,532.85c-23.17,0-37.46,19.31-37.46,45.19s14.29,45.19,37.46,45.19,37.46-19.31,37.46-45.19-14.29-45.19-37.46-45.19Z"/>
        <path class="cls-2" d="M1310.68,519.34c6.18-41.33,46.34-47.12,57.16-47.12,6.18,0,4.25-.38,11.58.77v77.24c-10.43-2.7-20.85-2.7-25.49-2.7-32.44,0-40.17,22.4-40.17,43.64v88.44h-79.56v-203.15h76.47v42.87Z"/>
        <path class="cls-2" d="M1390.25,578.81c0-55.61,40.17-106.59,113.55-106.59,63.73,0,112,38.24,112,103.51,0,7.72-.77,13.9-1.93,18.15h-149.46c0,10.82,17.77,30.51,52.14,30.51,13.52,0,34.37-3.09,54.84-19.7l32.83,44.03c-25.1,25.88-60.64,35.15-94.62,35.15-74.92,0-119.34-46.73-119.34-105.05ZM1567.9,396.14v45.96h-131.7v-45.96h131.7ZM1464.4,557.19h79.56c-1.16-19.7-20.08-29.35-39.78-29.35s-38.62,9.27-39.78,29.35Z"/>
      </g>
    </g>
  </g>
</svg>