<?xml version="1.0" encoding="UTF-8"?>
<svg id="Layer_2" data-name="Layer 2" xmlns="http://www.w3.org/2000/svg" viewBox="0 0 3645 2160">
  <defs>
    <style>
      .cls-1 {
        fill: #fff;
      }
    </style>
  </defs>
  <g id="Layer_1-2" data-name="Layer 1">
    <rect width="3645" height="2160"/>
    <g>
      <path class="cls-1" d="M1133.24,1082.47c0-81.06,63.78-148.55,152.66-148.55s152.66,67.48,152.66,148.55-63.78,148.55-152.66,148.55-152.66-67.49-152.66-148.55ZM1365.74,1082.47c0-47.73-33.74-83.94-79.83-83.94s-79.42,36.21-79.42,83.94,33.33,83.94,79.42,83.94,79.83-36.21,79.83-83.94Z"/>
      <path class="cls-1" d="M1676.01,1110.45v116.04h-70.78v-116.45c0-21.81-6.99-44.44-28.8-44.44s-29.22,20.99-29.22,44.85v116.04h-70.78v-213.15h70.78v28.39c11.11-20.99,30.86-32.92,53.9-32.92,30.86,0,50.2,13.58,61.31,33.74,18.52-29.63,45.68-33.74,66.66-33.74,59.26,0,75.72,52.26,75.72,98.35v119.33h-70.78v-116.45c0-21.81-7-44.44-29.22-44.44s-28.8,20.99-28.8,44.85Z"/>
      <path class="cls-1" d="M1984.63,1231.02c-29.63,0-50.61-12.76-64.19-33.74v29.22h-70.78v-297.51h70.78v112.75c13.17-19.75,36.62-32.92,65.02-32.92,62.55,0,102.05,49.38,102.05,110.69s-41.56,111.51-102.87,111.51ZM1969,1064.77c-30.04,0-50.2,22.22-50.2,56.79s20.98,53.9,48.97,53.9c30.04,0,48.56-24.69,48.56-55.96s-17.28-54.73-47.32-54.73Z"/>
      <path class="cls-1" d="M2191.62,1059.01c6.58-40.33,44.03-50.2,59.26-50.2,6.58,0,7.41,0,14.4,1.23v69.13c-9.46-2.88-20.57-2.88-26.75-2.88-27.98,0-44.44,17.28-44.44,43.62v106.58h-70.78v-213.15h68.31v45.68Z"/>
      <path class="cls-1" d="M2279.26,1120.74c0-60.9,45.26-111.93,118.92-111.93,64.6,0,113.57,39.92,113.57,115.22,0,2.88,0,6.17-.41,9.05h-164.19c1.23,19.34,23.04,41.15,63.37,41.15,20.99,0,40.33-7.82,58.43-23.04,5.76,5.76,29.63,34.98,34.98,40.33-28.39,30.04-65.02,39.5-99.58,39.5-79.01,0-125.09-49.38-125.09-110.28ZM2347.98,1095.23h97.11c-2.06-24.28-26.34-33.74-47.32-33.74s-45.26,9.05-49.79,33.74Z"/>
    </g>
  </g>
</svg>