<svg xmlns="http://www.w3.org/2000/svg" xml:space="preserve" style="fill-rule:evenodd;clip-rule:evenodd;stroke-linejoin:round;stroke-miterlimit:2" viewBox="0 0 648 346"><path d="m0 105.302 25.336-25.336c4.948 6.334 10.886 9.5 19.199 9.5 9.699 0 18.012-5.938 18.012-19.396v-89.072h39.786v87.487c0 34.838-22.168 55.819-59.381 55.819-19.199 0-32.263-6.533-42.952-19.002" style="fill:#eff1f3;fill-rule:nonzero" transform="translate(213.675 127.504)scale(1.75723)"/><path d="M-15.575-42.085c-11.855-13.81-29.44-22.558-49.068-22.558-35.701 0-64.643 28.942-64.643 64.643s28.942 64.643 64.643 64.643c21.338 0 40.262-10.339 52.035-26.281-6.836-26.544-7.829-53.45-2.967-80.447m9.96 68.476C-2.007 18.333 0 9.401 0 0c0-11.094-2.795-21.535-7.719-30.659-2.389 19.119-1.686 38.171 2.104 57.05" style="fill:#eff1f3;fill-rule:nonzero" transform="matrix(0 -1.75723 -1.75723 0 113.597 102.33)"/><path d="M-64.643-64.643c-35.701 0-64.643 28.942-64.643 64.643s28.942 64.643 64.643 64.643S0 35.701 0 0s-28.942-64.643-64.643-64.643" style="fill:#eff1f3;fill-rule:nonzero" transform="matrix(0 -1.75723 -1.75723 0 532.875 102.33)"/><path d="M-64.167-35.391c4.77 37.195-2.801 70.593-23.143 102.095a2.496 2.496 0 0 0 .742 3.451l23.523 15.19a2.497 2.497 0 0 0 3.45-.743c24.401-37.79 33.872-79.574 28.153-124.188a2.496 2.496 0 0 0-2.793-2.158l-27.774 3.56a2.5 2.5 0 0 0-2.158 2.793" style="fill:#eff1f3" transform="rotate(-75 136.597 44.303)scale(-1.75723 1.75723)"/><path d="M-64.167-35.391c4.77 37.195-2.801 70.593-23.143 102.095a2.496 2.496 0 0 0 .742 3.451l23.523 15.19a2.497 2.497 0 0 0 3.45-.743c24.401-37.79 33.872-79.574 28.153-124.188a2.496 2.496 0 0 0-2.793-2.158l-27.774 3.56a2.5 2.5 0 0 0-2.158 2.793" style="fill:#eff1f3" transform="rotate(105 313.792 203.88)scale(-1.75723 1.75723)"/></svg>